ISO-10303-21;
HEADER;
/* Generated by software containing ST-Developer
 * from STEP Tools, Inc. (www.steptools.com) 
 */
/* OPTION: using custom renumber hook */

FILE_DESCRIPTION(
/* description */ ('STEP AP242 Edition 2',
'CAx-IF Rec.Pracs.---Representation and Presentation of Product Manufa
cturing Information (PMI)---4.0---2014-10-13',
'CAx-IF Rec.Pracs.---3D Tessellated Geometry---0.4---2014-09-14','2;1',
'CAx-IF Rec.Pracs.---User Defined Attributes---1.5---2016-08-15'),
/* implementation_level */ '2;1');

FILE_NAME(
/* name */ 'Part Studio 1',
/* time_stamp */ '2026-10-10T15:50:55Z',
/* author */ (''),
/* organization */ (''),
/* preprocessor_version */ 'ST-DEVELOPER v20',
/* originating_system */ 'ONSHAPE BY PTC INC, 1.222',
/* authorisation */ '  ');

FILE_SCHEMA (('AP242_MANAGED_MODEL_BASED_3D_ENGINEERING_MIM_LF { 1 0 10303 442 3 1 4 }'));
ENDSEC;

DATA;
#10=SHAPE_REPRESENTATION_RELATIONSHIP('','',#1519,#11);
#11=ADVANCED_BREP_SHAPE_REPRESENTATION('',(#1517),#2429);
#12=CONICAL_SURFACE('',#1573,0.0035,0.785398163397449);
#13=CONICAL_SURFACE('',#1576,0.0035,0.785398163397449);
#14=CYLINDRICAL_SURFACE('',#1537,0.0016);
#15=CYLINDRICAL_SURFACE('',#1540,0.0016);
#16=CYLINDRICAL_SURFACE('',#1565,0.0035);
#17=CYLINDRICAL_SURFACE('',#1569,0.0035);
#18=CYLINDRICAL_SURFACE('',#1591,0.0025);
#19=CYLINDRICAL_SURFACE('',#1592,0.00425);
#20=CYLINDRICAL_SURFACE('',#1594,0.0055);
#21=CYLINDRICAL_SURFACE('',#1600,0.0028);
#22=CIRCLE('',#1524,0.0016);
#23=CIRCLE('',#1525,0.0016);
#24=CIRCLE('',#1531,0.00425);
#25=CIRCLE('',#1532,0.0025);
#26=CIRCLE('',#1534,0.0045);
#27=CIRCLE('',#1535,0.0045);
#28=CIRCLE('',#1538,0.0016);
#29=CIRCLE('',#1541,0.0016);
#30=CIRCLE('',#1548,0.0055);
#31=CIRCLE('',#1550,0.00425);
#32=CIRCLE('',#1551,0.0025);
#33=CIRCLE('',#1566,0.0035);
#34=CIRCLE('',#1567,0.0035);
#35=CIRCLE('',#1570,0.0035);
#36=CIRCLE('',#1571,0.0035);
#37=CIRCLE('',#1595,0.0055);
#38=CIRCLE('',#1599,0.0028);
#39=CIRCLE('',#1601,0.0028);
#40=ORIENTED_EDGE('',*,*,#456,.F.);
#41=ORIENTED_EDGE('',*,*,#457,.F.);
#42=ORIENTED_EDGE('',*,*,#458,.T.);
#43=ORIENTED_EDGE('',*,*,#459,.T.);
#44=ORIENTED_EDGE('',*,*,#460,.T.);
#45=ORIENTED_EDGE('',*,*,#461,.T.);
#46=ORIENTED_EDGE('',*,*,#462,.F.);
#47=ORIENTED_EDGE('',*,*,#463,.F.);
#48=ORIENTED_EDGE('',*,*,#464,.F.);
#49=ORIENTED_EDGE('',*,*,#465,.T.);
#50=ORIENTED_EDGE('',*,*,#466,.F.);
#51=ORIENTED_EDGE('',*,*,#467,.F.);
#52=ORIENTED_EDGE('',*,*,#468,.T.);
#53=ORIENTED_EDGE('',*,*,#469,.T.);
#54=ORIENTED_EDGE('',*,*,#470,.F.);
#55=ORIENTED_EDGE('',*,*,#471,.F.);
#56=ORIENTED_EDGE('',*,*,#472,.T.);
#57=ORIENTED_EDGE('',*,*,#473,.T.);
#58=ORIENTED_EDGE('',*,*,#460,.F.);
#59=ORIENTED_EDGE('',*,*,#474,.T.);
#60=ORIENTED_EDGE('',*,*,#475,.T.);
#61=ORIENTED_EDGE('',*,*,#476,.T.);
#62=ORIENTED_EDGE('',*,*,#477,.F.);
#63=ORIENTED_EDGE('',*,*,#478,.T.);
#64=ORIENTED_EDGE('',*,*,#479,.T.);
#65=ORIENTED_EDGE('',*,*,#480,.F.);
#66=ORIENTED_EDGE('',*,*,#481,.T.);
#67=ORIENTED_EDGE('',*,*,#482,.F.);
#68=ORIENTED_EDGE('',*,*,#483,.F.);
#69=ORIENTED_EDGE('',*,*,#484,.T.);
#70=ORIENTED_EDGE('',*,*,#485,.T.);
#71=ORIENTED_EDGE('',*,*,#486,.T.);
#72=ORIENTED_EDGE('',*,*,#487,.F.);
#73=ORIENTED_EDGE('',*,*,#488,.F.);
#74=ORIENTED_EDGE('',*,*,#489,.T.);
#75=ORIENTED_EDGE('',*,*,#490,.T.);
#76=ORIENTED_EDGE('',*,*,#491,.T.);
#77=ORIENTED_EDGE('',*,*,#492,.F.);
#78=ORIENTED_EDGE('',*,*,#493,.F.);
#79=ORIENTED_EDGE('',*,*,#494,.T.);
#80=ORIENTED_EDGE('',*,*,#495,.F.);
#81=ORIENTED_EDGE('',*,*,#496,.F.);
#82=ORIENTED_EDGE('',*,*,#497,.F.);
#83=ORIENTED_EDGE('',*,*,#498,.F.);
#84=ORIENTED_EDGE('',*,*,#462,.T.);
#85=ORIENTED_EDGE('',*,*,#499,.F.);
#86=ORIENTED_EDGE('',*,*,#500,.T.);
#87=ORIENTED_EDGE('',*,*,#456,.T.);
#88=ORIENTED_EDGE('',*,*,#501,.T.);
#89=ORIENTED_EDGE('',*,*,#502,.T.);
#90=ORIENTED_EDGE('',*,*,#503,.F.);
#91=ORIENTED_EDGE('',*,*,#487,.T.);
#92=ORIENTED_EDGE('',*,*,#504,.F.);
#93=ORIENTED_EDGE('',*,*,#505,.T.);
#94=ORIENTED_EDGE('',*,*,#506,.T.);
#95=ORIENTED_EDGE('',*,*,#507,.T.);
#96=ORIENTED_EDGE('',*,*,#508,.T.);
#97=ORIENTED_EDGE('',*,*,#509,.F.);
#98=ORIENTED_EDGE('',*,*,#510,.T.);
#99=ORIENTED_EDGE('',*,*,#482,.T.);
#100=ORIENTED_EDGE('',*,*,#511,.F.);
#101=ORIENTED_EDGE('',*,*,#512,.T.);
#102=ORIENTED_EDGE('',*,*,#513,.F.);
#103=ORIENTED_EDGE('',*,*,#514,.F.);
#104=ORIENTED_EDGE('',*,*,#515,.T.);
#105=ORIENTED_EDGE('',*,*,#516,.F.);
#106=ORIENTED_EDGE('',*,*,#517,.T.);
#107=ORIENTED_EDGE('',*,*,#518,.T.);
#108=ORIENTED_EDGE('',*,*,#519,.T.);
#109=ORIENTED_EDGE('',*,*,#520,.T.);
#110=ORIENTED_EDGE('',*,*,#521,.T.);
#111=ORIENTED_EDGE('',*,*,#522,.F.);
#112=ORIENTED_EDGE('',*,*,#523,.F.);
#113=ORIENTED_EDGE('',*,*,#524,.T.);
#114=ORIENTED_EDGE('',*,*,#525,.F.);
#115=ORIENTED_EDGE('',*,*,#526,.T.);
#116=ORIENTED_EDGE('',*,*,#527,.T.);
#117=ORIENTED_EDGE('',*,*,#465,.F.);
#118=ORIENTED_EDGE('',*,*,#528,.F.);
#119=ORIENTED_EDGE('',*,*,#525,.T.);
#120=ORIENTED_EDGE('',*,*,#464,.T.);
#121=ORIENTED_EDGE('',*,*,#529,.F.);
#122=ORIENTED_EDGE('',*,*,#530,.F.);
#123=ORIENTED_EDGE('',*,*,#529,.T.);
#124=ORIENTED_EDGE('',*,*,#467,.T.);
#125=ORIENTED_EDGE('',*,*,#531,.F.);
#126=ORIENTED_EDGE('',*,*,#532,.F.);
#127=ORIENTED_EDGE('',*,*,#531,.T.);
#128=ORIENTED_EDGE('',*,*,#466,.T.);
#129=ORIENTED_EDGE('',*,*,#527,.F.);
#130=ORIENTED_EDGE('',*,*,#533,.F.);
#131=ORIENTED_EDGE('',*,*,#534,.T.);
#132=ORIENTED_EDGE('',*,*,#535,.T.);
#133=ORIENTED_EDGE('',*,*,#507,.F.);
#134=ORIENTED_EDGE('',*,*,#536,.T.);
#135=ORIENTED_EDGE('',*,*,#537,.T.);
#136=ORIENTED_EDGE('',*,*,#501,.F.);
#137=ORIENTED_EDGE('',*,*,#459,.F.);
#138=ORIENTED_EDGE('',*,*,#538,.F.);
#139=ORIENTED_EDGE('',*,*,#539,.F.);
#140=ORIENTED_EDGE('',*,*,#470,.T.);
#141=ORIENTED_EDGE('',*,*,#540,.F.);
#142=ORIENTED_EDGE('',*,*,#541,.F.);
#143=ORIENTED_EDGE('',*,*,#524,.F.);
#144=ORIENTED_EDGE('',*,*,#542,.T.);
#145=ORIENTED_EDGE('',*,*,#543,.T.);
#146=ORIENTED_EDGE('',*,*,#544,.T.);
#147=ORIENTED_EDGE('',*,*,#545,.F.);
#148=ORIENTED_EDGE('',*,*,#546,.F.);
#149=ORIENTED_EDGE('',*,*,#522,.T.);
#150=ORIENTED_EDGE('',*,*,#547,.T.);
#151=ORIENTED_EDGE('',*,*,#548,.F.);
#152=ORIENTED_EDGE('',*,*,#543,.F.);
#153=ORIENTED_EDGE('',*,*,#549,.T.);
#154=ORIENTED_EDGE('',*,*,#545,.T.);
#155=ORIENTED_EDGE('',*,*,#550,.F.);
#156=ORIENTED_EDGE('',*,*,#551,.F.);
#157=ORIENTED_EDGE('',*,*,#552,.F.);
#158=ORIENTED_EDGE('',*,*,#553,.T.);
#159=ORIENTED_EDGE('',*,*,#541,.T.);
#160=ORIENTED_EDGE('',*,*,#548,.T.);
#161=ORIENTED_EDGE('',*,*,#544,.F.);
#162=ORIENTED_EDGE('',*,*,#521,.F.);
#163=ORIENTED_EDGE('',*,*,#554,.F.);
#164=ORIENTED_EDGE('',*,*,#555,.T.);
#165=ORIENTED_EDGE('',*,*,#483,.T.);
#166=ORIENTED_EDGE('',*,*,#510,.F.);
#167=ORIENTED_EDGE('',*,*,#484,.F.);
#168=ORIENTED_EDGE('',*,*,#555,.F.);
#169=ORIENTED_EDGE('',*,*,#556,.F.);
#170=ORIENTED_EDGE('',*,*,#557,.F.);
#171=ORIENTED_EDGE('',*,*,#534,.F.);
#172=ORIENTED_EDGE('',*,*,#558,.F.);
#173=ORIENTED_EDGE('',*,*,#559,.F.);
#174=ORIENTED_EDGE('',*,*,#560,.T.);
#175=ORIENTED_EDGE('',*,*,#485,.F.);
#176=ORIENTED_EDGE('',*,*,#561,.F.);
#177=ORIENTED_EDGE('',*,*,#562,.F.);
#178=ORIENTED_EDGE('',*,*,#536,.F.);
#179=ORIENTED_EDGE('',*,*,#458,.F.);
#180=ORIENTED_EDGE('',*,*,#563,.F.);
#181=ORIENTED_EDGE('',*,*,#468,.F.);
#182=ORIENTED_EDGE('',*,*,#479,.F.);
#183=ORIENTED_EDGE('',*,*,#542,.F.);
#184=ORIENTED_EDGE('',*,*,#523,.T.);
#185=ORIENTED_EDGE('',*,*,#546,.T.);
#186=ORIENTED_EDGE('',*,*,#549,.F.);
#187=ORIENTED_EDGE('',*,*,#502,.F.);
#188=ORIENTED_EDGE('',*,*,#537,.F.);
#189=ORIENTED_EDGE('',*,*,#564,.F.);
#190=ORIENTED_EDGE('',*,*,#565,.T.);
#191=ORIENTED_EDGE('',*,*,#566,.T.);
#192=ORIENTED_EDGE('',*,*,#562,.T.);
#193=ORIENTED_EDGE('',*,*,#567,.F.);
#194=ORIENTED_EDGE('',*,*,#568,.F.);
#195=ORIENTED_EDGE('',*,*,#564,.T.);
#196=ORIENTED_EDGE('',*,*,#561,.T.);
#197=ORIENTED_EDGE('',*,*,#569,.F.);
#198=ORIENTED_EDGE('',*,*,#570,.F.);
#199=ORIENTED_EDGE('',*,*,#567,.T.);
#200=ORIENTED_EDGE('',*,*,#503,.T.);
#201=ORIENTED_EDGE('',*,*,#566,.F.);
#202=ORIENTED_EDGE('',*,*,#571,.F.);
#203=ORIENTED_EDGE('',*,*,#569,.T.);
#204=ORIENTED_EDGE('',*,*,#488,.T.);
#205=ORIENTED_EDGE('',*,*,#565,.F.);
#206=ORIENTED_EDGE('',*,*,#568,.T.);
#207=ORIENTED_EDGE('',*,*,#570,.T.);
#208=ORIENTED_EDGE('',*,*,#571,.T.);
#209=ORIENTED_EDGE('',*,*,#556,.T.);
#210=ORIENTED_EDGE('',*,*,#572,.F.);
#211=ORIENTED_EDGE('',*,*,#573,.F.);
#212=ORIENTED_EDGE('',*,*,#574,.T.);
#213=ORIENTED_EDGE('',*,*,#509,.T.);
#214=ORIENTED_EDGE('',*,*,#575,.F.);
#215=ORIENTED_EDGE('',*,*,#576,.F.);
#216=ORIENTED_EDGE('',*,*,#572,.T.);
#217=ORIENTED_EDGE('',*,*,#554,.T.);
#218=ORIENTED_EDGE('',*,*,#508,.F.);
#219=ORIENTED_EDGE('',*,*,#535,.F.);
#220=ORIENTED_EDGE('',*,*,#577,.F.);
#221=ORIENTED_EDGE('',*,*,#578,.T.);
#222=ORIENTED_EDGE('',*,*,#575,.T.);
#223=ORIENTED_EDGE('',*,*,#557,.T.);
#224=ORIENTED_EDGE('',*,*,#574,.F.);
#225=ORIENTED_EDGE('',*,*,#579,.F.);
#226=ORIENTED_EDGE('',*,*,#577,.T.);
#227=ORIENTED_EDGE('',*,*,#573,.T.);
#228=ORIENTED_EDGE('',*,*,#576,.T.);
#229=ORIENTED_EDGE('',*,*,#578,.F.);
#230=ORIENTED_EDGE('',*,*,#579,.T.);
#231=ORIENTED_EDGE('',*,*,#580,.T.);
#232=ORIENTED_EDGE('',*,*,#581,.T.);
#233=ORIENTED_EDGE('',*,*,#582,.F.);
#234=ORIENTED_EDGE('',*,*,#583,.T.);
#235=ORIENTED_EDGE('',*,*,#582,.T.);
#236=ORIENTED_EDGE('',*,*,#584,.T.);
#237=ORIENTED_EDGE('',*,*,#585,.F.);
#238=ORIENTED_EDGE('',*,*,#586,.F.);
#239=ORIENTED_EDGE('',*,*,#585,.T.);
#240=ORIENTED_EDGE('',*,*,#587,.T.);
#241=ORIENTED_EDGE('',*,*,#588,.F.);
#242=ORIENTED_EDGE('',*,*,#589,.F.);
#243=ORIENTED_EDGE('',*,*,#588,.T.);
#244=ORIENTED_EDGE('',*,*,#590,.T.);
#245=ORIENTED_EDGE('',*,*,#580,.F.);
#246=ORIENTED_EDGE('',*,*,#591,.F.);
#247=ORIENTED_EDGE('',*,*,#526,.F.);
#248=ORIENTED_EDGE('',*,*,#528,.T.);
#249=ORIENTED_EDGE('',*,*,#530,.T.);
#250=ORIENTED_EDGE('',*,*,#532,.T.);
#251=ORIENTED_EDGE('',*,*,#583,.F.);
#252=ORIENTED_EDGE('',*,*,#586,.T.);
#253=ORIENTED_EDGE('',*,*,#589,.T.);
#254=ORIENTED_EDGE('',*,*,#591,.T.);
#255=ORIENTED_EDGE('',*,*,#592,.F.);
#256=ORIENTED_EDGE('',*,*,#520,.F.);
#257=ORIENTED_EDGE('',*,*,#593,.F.);
#258=ORIENTED_EDGE('',*,*,#584,.F.);
#259=ORIENTED_EDGE('',*,*,#593,.T.);
#260=ORIENTED_EDGE('',*,*,#519,.F.);
#261=ORIENTED_EDGE('',*,*,#594,.F.);
#262=ORIENTED_EDGE('',*,*,#587,.F.);
#263=ORIENTED_EDGE('',*,*,#592,.T.);
#264=ORIENTED_EDGE('',*,*,#581,.F.);
#265=ORIENTED_EDGE('',*,*,#595,.F.);
#266=ORIENTED_EDGE('',*,*,#517,.F.);
#267=ORIENTED_EDGE('',*,*,#594,.T.);
#268=ORIENTED_EDGE('',*,*,#518,.F.);
#269=ORIENTED_EDGE('',*,*,#595,.T.);
#270=ORIENTED_EDGE('',*,*,#590,.F.);
#271=ORIENTED_EDGE('',*,*,#540,.T.);
#272=ORIENTED_EDGE('',*,*,#469,.F.);
#273=ORIENTED_EDGE('',*,*,#596,.F.);
#274=ORIENTED_EDGE('',*,*,#597,.F.);
#275=ORIENTED_EDGE('',*,*,#598,.F.);
#276=ORIENTED_EDGE('',*,*,#599,.T.);
#277=ORIENTED_EDGE('',*,*,#600,.T.);
#278=ORIENTED_EDGE('',*,*,#601,.T.);
#279=ORIENTED_EDGE('',*,*,#472,.F.);
#280=ORIENTED_EDGE('',*,*,#602,.T.);
#281=ORIENTED_EDGE('',*,*,#603,.T.);
#282=ORIENTED_EDGE('',*,*,#495,.T.);
#283=ORIENTED_EDGE('',*,*,#604,.F.);
#284=ORIENTED_EDGE('',*,*,#605,.T.);
#285=ORIENTED_EDGE('',*,*,#606,.T.);
#286=ORIENTED_EDGE('',*,*,#607,.F.);
#287=ORIENTED_EDGE('',*,*,#608,.T.);
#288=ORIENTED_EDGE('',*,*,#475,.F.);
#289=ORIENTED_EDGE('',*,*,#609,.T.);
#290=ORIENTED_EDGE('',*,*,#497,.T.);
#291=ORIENTED_EDGE('',*,*,#603,.F.);
#292=ORIENTED_EDGE('',*,*,#610,.T.);
#293=ORIENTED_EDGE('',*,*,#607,.T.);
#294=ORIENTED_EDGE('',*,*,#496,.T.);
#295=ORIENTED_EDGE('',*,*,#471,.T.);
#296=ORIENTED_EDGE('',*,*,#539,.T.);
#297=ORIENTED_EDGE('',*,*,#611,.F.);
#298=ORIENTED_EDGE('',*,*,#612,.T.);
#299=ORIENTED_EDGE('',*,*,#613,.T.);
#300=ORIENTED_EDGE('',*,*,#493,.T.);
#301=ORIENTED_EDGE('',*,*,#614,.F.);
#302=ORIENTED_EDGE('',*,*,#615,.T.);
#303=ORIENTED_EDGE('',*,*,#616,.F.);
#304=ORIENTED_EDGE('',*,*,#617,.F.);
#305=ORIENTED_EDGE('',*,*,#618,.F.);
#306=ORIENTED_EDGE('',*,*,#619,.T.);
#307=ORIENTED_EDGE('',*,*,#620,.T.);
#308=ORIENTED_EDGE('',*,*,#621,.T.);
#309=ORIENTED_EDGE('',*,*,#480,.T.);
#310=ORIENTED_EDGE('',*,*,#622,.F.);
#311=ORIENTED_EDGE('',*,*,#623,.T.);
#312=ORIENTED_EDGE('',*,*,#614,.T.);
#313=ORIENTED_EDGE('',*,*,#492,.T.);
#314=ORIENTED_EDGE('',*,*,#624,.T.);
#315=ORIENTED_EDGE('',*,*,#625,.T.);
#316=ORIENTED_EDGE('',*,*,#622,.T.);
#317=ORIENTED_EDGE('',*,*,#491,.F.);
#318=ORIENTED_EDGE('',*,*,#626,.F.);
#319=ORIENTED_EDGE('',*,*,#627,.F.);
#320=ORIENTED_EDGE('',*,*,#628,.T.);
#321=ORIENTED_EDGE('',*,*,#629,.T.);
#322=ORIENTED_EDGE('',*,*,#489,.F.);
#323=ORIENTED_EDGE('',*,*,#630,.F.);
#324=ORIENTED_EDGE('',*,*,#616,.T.);
#325=ORIENTED_EDGE('',*,*,#631,.T.);
#326=ORIENTED_EDGE('',*,*,#624,.F.);
#327=ORIENTED_EDGE('',*,*,#632,.F.);
#328=ORIENTED_EDGE('',*,*,#628,.F.);
#329=ORIENTED_EDGE('',*,*,#538,.T.);
#330=ORIENTED_EDGE('',*,*,#606,.F.);
#331=ORIENTED_EDGE('',*,*,#633,.F.);
#332=ORIENTED_EDGE('',*,*,#611,.T.);
#333=ORIENTED_EDGE('',*,*,#494,.F.);
#334=ORIENTED_EDGE('',*,*,#613,.F.);
#335=ORIENTED_EDGE('',*,*,#634,.T.);
#336=ORIENTED_EDGE('',*,*,#604,.T.);
#337=ORIENTED_EDGE('',*,*,#612,.F.);
#338=ORIENTED_EDGE('',*,*,#633,.T.);
#339=ORIENTED_EDGE('',*,*,#605,.F.);
#340=ORIENTED_EDGE('',*,*,#634,.F.);
#341=ORIENTED_EDGE('',*,*,#608,.F.);
#342=ORIENTED_EDGE('',*,*,#610,.F.);
#343=ORIENTED_EDGE('',*,*,#602,.F.);
#344=ORIENTED_EDGE('',*,*,#476,.F.);
#345=ORIENTED_EDGE('',*,*,#615,.F.);
#346=ORIENTED_EDGE('',*,*,#623,.F.);
#347=ORIENTED_EDGE('',*,*,#625,.F.);
#348=ORIENTED_EDGE('',*,*,#631,.F.);
#349=ORIENTED_EDGE('',*,*,#635,.T.);
#350=ORIENTED_EDGE('',*,*,#515,.F.);
#351=ORIENTED_EDGE('',*,*,#636,.F.);
#352=ORIENTED_EDGE('',*,*,#553,.F.);
#353=ORIENTED_EDGE('',*,*,#552,.T.);
#354=ORIENTED_EDGE('',*,*,#637,.T.);
#355=ORIENTED_EDGE('',*,*,#516,.T.);
#356=ORIENTED_EDGE('',*,*,#635,.F.);
#357=ORIENTED_EDGE('',*,*,#550,.T.);
#358=ORIENTED_EDGE('',*,*,#636,.T.);
#359=ORIENTED_EDGE('',*,*,#514,.T.);
#360=ORIENTED_EDGE('',*,*,#638,.F.);
#361=ORIENTED_EDGE('',*,*,#551,.T.);
#362=ORIENTED_EDGE('',*,*,#638,.T.);
#363=ORIENTED_EDGE('',*,*,#513,.T.);
#364=ORIENTED_EDGE('',*,*,#637,.F.);
#365=ORIENTED_EDGE('',*,*,#547,.F.);
#366=ORIENTED_EDGE('',*,*,#639,.T.);
#367=ORIENTED_EDGE('',*,*,#533,.T.);
#368=ORIENTED_EDGE('',*,*,#506,.F.);
#369=ORIENTED_EDGE('',*,*,#640,.F.);
#370=ORIENTED_EDGE('',*,*,#558,.T.);
#371=ORIENTED_EDGE('',*,*,#486,.F.);
#372=ORIENTED_EDGE('',*,*,#560,.F.);
#373=ORIENTED_EDGE('',*,*,#641,.T.);
#374=ORIENTED_EDGE('',*,*,#504,.T.);
#375=ORIENTED_EDGE('',*,*,#642,.F.);
#376=ORIENTED_EDGE('',*,*,#559,.T.);
#377=ORIENTED_EDGE('',*,*,#640,.T.);
#378=ORIENTED_EDGE('',*,*,#505,.F.);
#379=ORIENTED_EDGE('',*,*,#641,.F.);
#380=ORIENTED_EDGE('',*,*,#643,.F.);
#381=ORIENTED_EDGE('',*,*,#642,.T.);
#382=ORIENTED_EDGE('',*,*,#643,.T.);
#383=ORIENTED_EDGE('',*,*,#639,.F.);
#384=ORIENTED_EDGE('',*,*,#630,.T.);
#385=ORIENTED_EDGE('',*,*,#627,.T.);
#386=ORIENTED_EDGE('',*,*,#512,.F.);
#387=ORIENTED_EDGE('',*,*,#644,.F.);
#388=ORIENTED_EDGE('',*,*,#645,.F.);
#389=ORIENTED_EDGE('',*,*,#617,.T.);
#390=ORIENTED_EDGE('',*,*,#646,.F.);
#391=ORIENTED_EDGE('',*,*,#647,.T.);
#392=ORIENTED_EDGE('',*,*,#648,.T.);
#393=ORIENTED_EDGE('',*,*,#644,.T.);
#394=ORIENTED_EDGE('',*,*,#511,.T.);
#395=ORIENTED_EDGE('',*,*,#481,.F.);
#396=ORIENTED_EDGE('',*,*,#478,.F.);
#397=ORIENTED_EDGE('',*,*,#649,.F.);
#398=ORIENTED_EDGE('',*,*,#648,.F.);
#399=ORIENTED_EDGE('',*,*,#650,.T.);
#400=ORIENTED_EDGE('',*,*,#618,.T.);
#401=ORIENTED_EDGE('',*,*,#645,.T.);
#402=ORIENTED_EDGE('',*,*,#477,.T.);
#403=ORIENTED_EDGE('',*,*,#621,.F.);
#404=ORIENTED_EDGE('',*,*,#651,.F.);
#405=ORIENTED_EDGE('',*,*,#649,.T.);
#406=ORIENTED_EDGE('',*,*,#620,.F.);
#407=ORIENTED_EDGE('',*,*,#652,.T.);
#408=ORIENTED_EDGE('',*,*,#646,.T.);
#409=ORIENTED_EDGE('',*,*,#651,.T.);
#410=ORIENTED_EDGE('',*,*,#647,.F.);
#411=ORIENTED_EDGE('',*,*,#652,.F.);
#412=ORIENTED_EDGE('',*,*,#619,.F.);
#413=ORIENTED_EDGE('',*,*,#650,.F.);
#414=ORIENTED_EDGE('',*,*,#653,.F.);
#415=ORIENTED_EDGE('',*,*,#654,.T.);
#416=ORIENTED_EDGE('',*,*,#596,.T.);
#417=ORIENTED_EDGE('',*,*,#563,.T.);
#418=ORIENTED_EDGE('',*,*,#655,.F.);
#419=ORIENTED_EDGE('',*,*,#656,.T.);
#420=ORIENTED_EDGE('',*,*,#657,.T.);
#421=ORIENTED_EDGE('',*,*,#658,.T.);
#422=ORIENTED_EDGE('',*,*,#653,.T.);
#423=ORIENTED_EDGE('',*,*,#457,.T.);
#424=ORIENTED_EDGE('',*,*,#500,.F.);
#425=ORIENTED_EDGE('',*,*,#659,.F.);
#426=ORIENTED_EDGE('',*,*,#473,.F.);
#427=ORIENTED_EDGE('',*,*,#601,.F.);
#428=ORIENTED_EDGE('',*,*,#660,.T.);
#429=ORIENTED_EDGE('',*,*,#659,.T.);
#430=ORIENTED_EDGE('',*,*,#499,.T.);
#431=ORIENTED_EDGE('',*,*,#461,.F.);
#432=ORIENTED_EDGE('',*,*,#600,.F.);
#433=ORIENTED_EDGE('',*,*,#661,.T.);
#434=ORIENTED_EDGE('',*,*,#655,.T.);
#435=ORIENTED_EDGE('',*,*,#660,.F.);
#436=ORIENTED_EDGE('',*,*,#654,.F.);
#437=ORIENTED_EDGE('',*,*,#658,.F.);
#438=ORIENTED_EDGE('',*,*,#662,.T.);
#439=ORIENTED_EDGE('',*,*,#597,.T.);
#440=ORIENTED_EDGE('',*,*,#657,.F.);
#441=ORIENTED_EDGE('',*,*,#663,.T.);
#442=ORIENTED_EDGE('',*,*,#598,.T.);
#443=ORIENTED_EDGE('',*,*,#662,.F.);
#444=ORIENTED_EDGE('',*,*,#656,.F.);
#445=ORIENTED_EDGE('',*,*,#661,.F.);
#446=ORIENTED_EDGE('',*,*,#599,.F.);
#447=ORIENTED_EDGE('',*,*,#663,.F.);
#448=ORIENTED_EDGE('',*,*,#498,.T.);
#449=ORIENTED_EDGE('',*,*,#609,.F.);
#450=ORIENTED_EDGE('',*,*,#474,.F.);
#451=ORIENTED_EDGE('',*,*,#463,.T.);
#452=ORIENTED_EDGE('',*,*,#490,.F.);
#453=ORIENTED_EDGE('',*,*,#629,.F.);
#454=ORIENTED_EDGE('',*,*,#632,.T.);
#455=ORIENTED_EDGE('',*,*,#626,.T.);
#456=EDGE_CURVE('',#664,#665,#800,.T.);
#457=EDGE_CURVE('',#666,#664,#801,.T.);
#458=EDGE_CURVE('',#666,#667,#802,.T.);
#459=EDGE_CURVE('',#667,#665,#803,.T.);
#460=EDGE_CURVE('',#668,#669,#804,.T.);
#461=EDGE_CURVE('',#669,#670,#805,.T.);
#462=EDGE_CURVE('',#671,#670,#806,.T.);
#463=EDGE_CURVE('',#668,#671,#807,.T.);
#464=EDGE_CURVE('',#672,#673,#22,.T.);
#465=EDGE_CURVE('',#672,#674,#808,.T.);
#466=EDGE_CURVE('',#675,#674,#23,.T.);
#467=EDGE_CURVE('',#673,#675,#809,.T.);
#468=EDGE_CURVE('',#676,#677,#810,.T.);
#469=EDGE_CURVE('',#677,#678,#811,.T.);
#470=EDGE_CURVE('',#679,#678,#812,.T.);
#471=EDGE_CURVE('',#676,#679,#813,.T.);
#472=EDGE_CURVE('',#680,#681,#814,.T.);
#473=EDGE_CURVE('',#681,#669,#815,.T.);
#474=EDGE_CURVE('',#668,#682,#816,.T.);
#475=EDGE_CURVE('',#682,#683,#817,.T.);
#476=EDGE_CURVE('',#683,#680,#818,.T.);
#477=EDGE_CURVE('',#684,#685,#819,.T.);
#478=EDGE_CURVE('',#684,#686,#820,.T.);
#479=EDGE_CURVE('',#686,#676,#821,.T.);
#480=EDGE_CURVE('',#685,#676,#822,.T.);
#481=EDGE_CURVE('',#686,#687,#823,.T.);
#482=EDGE_CURVE('',#688,#687,#824,.T.);
#483=EDGE_CURVE('',#689,#688,#825,.T.);
#484=EDGE_CURVE('',#689,#686,#826,.T.);
#485=EDGE_CURVE('',#690,#691,#827,.T.);
#486=EDGE_CURVE('',#691,#692,#828,.T.);
#487=EDGE_CURVE('',#693,#692,#829,.T.);
#488=EDGE_CURVE('',#690,#693,#830,.T.);
#489=EDGE_CURVE('',#694,#695,#831,.T.);
#490=EDGE_CURVE('',#695,#696,#832,.T.);
#491=EDGE_CURVE('',#696,#697,#833,.T.);
#492=EDGE_CURVE('',#698,#697,#834,.T.);
#493=EDGE_CURVE('',#699,#698,#835,.T.);
#494=EDGE_CURVE('',#699,#700,#836,.T.);
#495=EDGE_CURVE('',#701,#700,#837,.T.);
#496=EDGE_CURVE('',#702,#701,#838,.T.);
#497=EDGE_CURVE('',#703,#702,#839,.T.);
#498=EDGE_CURVE('',#671,#703,#840,.T.);
#499=EDGE_CURVE('',#704,#670,#841,.T.);
#500=EDGE_CURVE('',#704,#664,#842,.T.);
#501=EDGE_CURVE('',#665,#705,#843,.T.);
#502=EDGE_CURVE('',#705,#706,#844,.T.);
#503=EDGE_CURVE('',#693,#706,#845,.T.);
#504=EDGE_CURVE('',#707,#692,#846,.T.);
#505=EDGE_CURVE('',#707,#708,#847,.T.);
#506=EDGE_CURVE('',#708,#709,#848,.T.);
#507=EDGE_CURVE('',#709,#710,#849,.T.);
#508=EDGE_CURVE('',#710,#711,#850,.T.);
#509=EDGE_CURVE('',#712,#711,#851,.T.);
#510=EDGE_CURVE('',#712,#688,#852,.T.);
#511=EDGE_CURVE('',#713,#687,#853,.T.);
#512=EDGE_CURVE('',#713,#694,#854,.T.);
#513=EDGE_CURVE('',#714,#715,#855,.T.);
#514=EDGE_CURVE('',#716,#714,#24,.T.);
#515=EDGE_CURVE('',#716,#717,#856,.T.);
#516=EDGE_CURVE('',#715,#717,#25,.T.);
#517=EDGE_CURVE('',#718,#719,#857,.T.);
#518=EDGE_CURVE('',#719,#720,#26,.T.);
#519=EDGE_CURVE('',#720,#721,#858,.T.);
#520=EDGE_CURVE('',#721,#718,#27,.T.);
#521=EDGE_CURVE('',#722,#723,#859,.T.);
#522=EDGE_CURVE('',#724,#723,#860,.T.);
#523=EDGE_CURVE('',#725,#724,#861,.T.);
#524=EDGE_CURVE('',#725,#722,#862,.T.);
#525=EDGE_CURVE('',#726,#672,#863,.T.);
#526=EDGE_CURVE('',#726,#727,#864,.T.);
#527=EDGE_CURVE('',#727,#674,#865,.T.);
#528=EDGE_CURVE('',#726,#728,#28,.T.);
#529=EDGE_CURVE('',#728,#673,#866,.T.);
#530=EDGE_CURVE('',#728,#729,#867,.T.);
#531=EDGE_CURVE('',#729,#675,#868,.T.);
#532=EDGE_CURVE('',#729,#727,#29,.T.);
#533=EDGE_CURVE('',#730,#709,#869,.T.);
#534=EDGE_CURVE('',#730,#731,#870,.T.);
#535=EDGE_CURVE('',#731,#710,#871,.T.);
#536=EDGE_CURVE('',#667,#732,#872,.T.);
#537=EDGE_CURVE('',#732,#705,#873,.T.);
#538=EDGE_CURVE('',#733,#734,#874,.T.);
#539=EDGE_CURVE('',#679,#733,#875,.T.);
#540=EDGE_CURVE('',#734,#678,#876,.T.);
#541=EDGE_CURVE('',#722,#735,#877,.T.);
#542=EDGE_CURVE('',#725,#736,#878,.T.);
#543=EDGE_CURVE('',#736,#735,#879,.T.);
#544=EDGE_CURVE('',#723,#737,#880,.T.);
#545=EDGE_CURVE('',#738,#737,#881,.T.);
#546=EDGE_CURVE('',#724,#738,#882,.T.);
#547=EDGE_CURVE('',#739,#739,#30,.T.);
#548=EDGE_CURVE('',#735,#737,#883,.T.);
#549=EDGE_CURVE('',#736,#738,#884,.T.);
#550=EDGE_CURVE('',#740,#741,#31,.F.);
#551=EDGE_CURVE('',#742,#740,#885,.T.);
#552=EDGE_CURVE('',#743,#742,#32,.F.);
#553=EDGE_CURVE('',#743,#741,#886,.T.);
#554=EDGE_CURVE('',#744,#712,#887,.T.);
#555=EDGE_CURVE('',#744,#689,#888,.T.);
#556=EDGE_CURVE('',#745,#744,#889,.T.);
#557=EDGE_CURVE('',#731,#745,#890,.T.);
#558=EDGE_CURVE('',#746,#730,#891,.T.);
#559=EDGE_CURVE('',#747,#746,#892,.T.);
#560=EDGE_CURVE('',#747,#691,#893,.T.);
#561=EDGE_CURVE('',#748,#690,#894,.T.);
#562=EDGE_CURVE('',#732,#748,#895,.T.);
#563=EDGE_CURVE('',#677,#666,#896,.T.);
#564=EDGE_CURVE('',#749,#732,#897,.T.);
#565=EDGE_CURVE('',#749,#750,#898,.T.);
#566=EDGE_CURVE('',#750,#706,#899,.T.);
#567=EDGE_CURVE('',#751,#748,#900,.T.);
#568=EDGE_CURVE('',#749,#751,#901,.T.);
#569=EDGE_CURVE('',#752,#690,#902,.T.);
#570=EDGE_CURVE('',#751,#752,#903,.T.);
#571=EDGE_CURVE('',#752,#750,#904,.T.);
#572=EDGE_CURVE('',#753,#744,#905,.T.);
#573=EDGE_CURVE('',#754,#753,#906,.T.);
#574=EDGE_CURVE('',#754,#745,#907,.T.);
#575=EDGE_CURVE('',#755,#711,#908,.T.);
#576=EDGE_CURVE('',#753,#755,#909,.T.);
#577=EDGE_CURVE('',#756,#731,#910,.T.);
#578=EDGE_CURVE('',#756,#755,#911,.T.);
#579=EDGE_CURVE('',#756,#754,#912,.T.);
#580=EDGE_CURVE('',#757,#758,#913,.T.);
#581=EDGE_CURVE('',#758,#759,#914,.T.);
#582=EDGE_CURVE('',#760,#759,#915,.T.);
#583=EDGE_CURVE('',#760,#757,#916,.T.);
#584=EDGE_CURVE('',#759,#761,#33,.F.);
#585=EDGE_CURVE('',#762,#761,#917,.T.);
#586=EDGE_CURVE('',#760,#762,#34,.T.);
#587=EDGE_CURVE('',#761,#763,#918,.T.);
#588=EDGE_CURVE('',#764,#763,#919,.T.);
#589=EDGE_CURVE('',#762,#764,#920,.T.);
#590=EDGE_CURVE('',#763,#758,#35,.F.);
#591=EDGE_CURVE('',#764,#757,#36,.T.);
#592=EDGE_CURVE('',#718,#759,#921,.T.);
#593=EDGE_CURVE('',#761,#721,#922,.T.);
#594=EDGE_CURVE('',#763,#720,#923,.T.);
#595=EDGE_CURVE('',#719,#758,#924,.T.);
#596=EDGE_CURVE('',#765,#677,#925,.T.);
#597=EDGE_CURVE('',#766,#765,#926,.T.);
#598=EDGE_CURVE('',#767,#766,#927,.T.);
#599=EDGE_CURVE('',#767,#768,#928,.F.);
#600=EDGE_CURVE('',#768,#769,#929,.T.);
#601=EDGE_CURVE('',#769,#681,#930,.T.);
#602=EDGE_CURVE('',#680,#770,#931,.T.);
#603=EDGE_CURVE('',#770,#701,#932,.T.);
#604=EDGE_CURVE('',#771,#700,#933,.T.);
#605=EDGE_CURVE('',#771,#772,#934,.T.);
#606=EDGE_CURVE('',#772,#734,#935,.T.);
#607=EDGE_CURVE('',#773,#702,#936,.T.);
#608=EDGE_CURVE('',#773,#683,#937,.T.);
#609=EDGE_CURVE('',#682,#703,#938,.T.);
#610=EDGE_CURVE('',#770,#773,#939,.T.);
#611=EDGE_CURVE('',#774,#733,#940,.T.);
#612=EDGE_CURVE('',#774,#775,#941,.T.);
#613=EDGE_CURVE('',#775,#699,#942,.T.);
#614=EDGE_CURVE('',#776,#698,#943,.T.);
#615=EDGE_CURVE('',#776,#777,#944,.T.);
#616=EDGE_CURVE('',#778,#777,#945,.T.);
#617=EDGE_CURVE('',#779,#778,#946,.T.);
#618=EDGE_CURVE('',#780,#779,#947,.T.);
#619=EDGE_CURVE('',#780,#781,#948,.F.);
#620=EDGE_CURVE('',#781,#782,#949,.T.);
#621=EDGE_CURVE('',#782,#685,#950,.T.);
#622=EDGE_CURVE('',#783,#697,#951,.T.);
#623=EDGE_CURVE('',#783,#776,#952,.T.);
#624=EDGE_CURVE('',#784,#785,#953,.T.);
#625=EDGE_CURVE('',#785,#783,#954,.T.);
#626=EDGE_CURVE('',#784,#696,#955,.T.);
#627=EDGE_CURVE('',#786,#694,#956,.T.);
#628=EDGE_CURVE('',#786,#787,#957,.T.);
#629=EDGE_CURVE('',#787,#695,#958,.T.);
#630=EDGE_CURVE('',#778,#786,#959,.T.);
#631=EDGE_CURVE('',#777,#785,#960,.T.);
#632=EDGE_CURVE('',#787,#784,#961,.T.);
#633=EDGE_CURVE('',#774,#772,#962,.T.);
#634=EDGE_CURVE('',#775,#771,#963,.T.);
#635=EDGE_CURVE('',#743,#717,#964,.T.);
#636=EDGE_CURVE('',#741,#716,#965,.T.);
#637=EDGE_CURVE('',#742,#715,#966,.T.);
#638=EDGE_CURVE('',#740,#714,#967,.T.);
#639=EDGE_CURVE('',#788,#788,#37,.T.);
#640=EDGE_CURVE('',#746,#708,#968,.T.);
#641=EDGE_CURVE('',#747,#707,#969,.T.);
#642=EDGE_CURVE('',#789,#789,#38,.T.);
#643=EDGE_CURVE('',#790,#790,#39,.T.);
#644=EDGE_CURVE('',#791,#713,#970,.T.);
#645=EDGE_CURVE('',#779,#791,#971,.T.);
#646=EDGE_CURVE('',#792,#793,#972,.T.);
#647=EDGE_CURVE('',#792,#794,#973,.F.);
#648=EDGE_CURVE('',#794,#791,#974,.T.);
#649=EDGE_CURVE('',#793,#684,#975,.T.);
#650=EDGE_CURVE('',#794,#780,#976,.T.);
#651=EDGE_CURVE('',#793,#782,#977,.T.);
#652=EDGE_CURVE('',#781,#792,#978,.T.);
#653=EDGE_CURVE('',#795,#666,#979,.T.);
#654=EDGE_CURVE('',#795,#765,#980,.T.);
#655=EDGE_CURVE('',#796,#797,#981,.T.);
#656=EDGE_CURVE('',#796,#798,#982,.F.);
#657=EDGE_CURVE('',#798,#799,#983,.T.);
#658=EDGE_CURVE('',#799,#795,#984,.T.);
#659=EDGE_CURVE('',#797,#704,#985,.T.);
#660=EDGE_CURVE('',#769,#797,#986,.T.);
#661=EDGE_CURVE('',#768,#796,#987,.T.);
#662=EDGE_CURVE('',#799,#766,#988,.T.);
#663=EDGE_CURVE('',#798,#767,#989,.T.);
#664=VERTEX_POINT('',#2007);
#665=VERTEX_POINT('',#2008);
#666=VERTEX_POINT('',#2010);
#667=VERTEX_POINT('',#2012);
#668=VERTEX_POINT('',#2016);
#669=VERTEX_POINT('',#2017);
#670=VERTEX_POINT('',#2019);
#671=VERTEX_POINT('',#2021);
#672=VERTEX_POINT('',#2025);
#673=VERTEX_POINT('',#2026);
#674=VERTEX_POINT('',#2028);
#675=VERTEX_POINT('',#2030);
#676=VERTEX_POINT('',#2033);
#677=VERTEX_POINT('',#2034);
#678=VERTEX_POINT('',#2036);
#679=VERTEX_POINT('',#2038);
#680=VERTEX_POINT('',#2042);
#681=VERTEX_POINT('',#2043);
#682=VERTEX_POINT('',#2046);
#683=VERTEX_POINT('',#2048);
#684=VERTEX_POINT('',#2052);
#685=VERTEX_POINT('',#2053);
#686=VERTEX_POINT('',#2055);
#687=VERTEX_POINT('',#2060);
#688=VERTEX_POINT('',#2062);
#689=VERTEX_POINT('',#2064);
#690=VERTEX_POINT('',#2068);
#691=VERTEX_POINT('',#2069);
#692=VERTEX_POINT('',#2071);
#693=VERTEX_POINT('',#2073);
#694=VERTEX_POINT('',#2077);
#695=VERTEX_POINT('',#2078);
#696=VERTEX_POINT('',#2080);
#697=VERTEX_POINT('',#2082);
#698=VERTEX_POINT('',#2084);
#699=VERTEX_POINT('',#2086);
#700=VERTEX_POINT('',#2088);
#701=VERTEX_POINT('',#2090);
#702=VERTEX_POINT('',#2092);
#703=VERTEX_POINT('',#2094);
#704=VERTEX_POINT('',#2097);
#705=VERTEX_POINT('',#2100);
#706=VERTEX_POINT('',#2102);
#707=VERTEX_POINT('',#2105);
#708=VERTEX_POINT('',#2107);
#709=VERTEX_POINT('',#2109);
#710=VERTEX_POINT('',#2111);
#711=VERTEX_POINT('',#2113);
#712=VERTEX_POINT('',#2115);
#713=VERTEX_POINT('',#2118);
#714=VERTEX_POINT('',#2121);
#715=VERTEX_POINT('',#2122);
#716=VERTEX_POINT('',#2124);
#717=VERTEX_POINT('',#2126);
#718=VERTEX_POINT('',#2130);
#719=VERTEX_POINT('',#2131);
#720=VERTEX_POINT('',#2133);
#721=VERTEX_POINT('',#2135);
#722=VERTEX_POINT('',#2138);
#723=VERTEX_POINT('',#2139);
#724=VERTEX_POINT('',#2141);
#725=VERTEX_POINT('',#2143);
#726=VERTEX_POINT('',#2147);
#727=VERTEX_POINT('',#2149);
#728=VERTEX_POINT('',#2153);
#729=VERTEX_POINT('',#2157);
#730=VERTEX_POINT('',#2163);
#731=VERTEX_POINT('',#2165);
#732=VERTEX_POINT('',#2169);
#733=VERTEX_POINT('',#2173);
#734=VERTEX_POINT('',#2174);
#735=VERTEX_POINT('',#2179);
#736=VERTEX_POINT('',#2181);
#737=VERTEX_POINT('',#2185);
#738=VERTEX_POINT('',#2187);
#739=VERTEX_POINT('',#2191);
#740=VERTEX_POINT('',#2196);
#741=VERTEX_POINT('',#2197);
#742=VERTEX_POINT('',#2199);
#743=VERTEX_POINT('',#2201);
#744=VERTEX_POINT('',#2205);
#745=VERTEX_POINT('',#2209);
#746=VERTEX_POINT('',#2212);
#747=VERTEX_POINT('',#2214);
#748=VERTEX_POINT('',#2217);
#749=VERTEX_POINT('',#2222);
#750=VERTEX_POINT('',#2224);
#751=VERTEX_POINT('',#2228);
#752=VERTEX_POINT('',#2232);
#753=VERTEX_POINT('',#2239);
#754=VERTEX_POINT('',#2241);
#755=VERTEX_POINT('',#2245);
#756=VERTEX_POINT('',#2249);
#757=VERTEX_POINT('',#2256);
#758=VERTEX_POINT('',#2257);
#759=VERTEX_POINT('',#2259);
#760=VERTEX_POINT('',#2261);
#761=VERTEX_POINT('',#2265);
#762=VERTEX_POINT('',#2267);
#763=VERTEX_POINT('',#2271);
#764=VERTEX_POINT('',#2273);
#765=VERTEX_POINT('',#2289);
#766=VERTEX_POINT('',#2291);
#767=VERTEX_POINT('',#2293);
#768=VERTEX_POINT('',#2295);
#769=VERTEX_POINT('',#2297);
#770=VERTEX_POINT('',#2300);
#771=VERTEX_POINT('',#2303);
#772=VERTEX_POINT('',#2305);
#773=VERTEX_POINT('',#2309);
#774=VERTEX_POINT('',#2316);
#775=VERTEX_POINT('',#2318);
#776=VERTEX_POINT('',#2321);
#777=VERTEX_POINT('',#2323);
#778=VERTEX_POINT('',#2325);
#779=VERTEX_POINT('',#2327);
#780=VERTEX_POINT('',#2329);
#781=VERTEX_POINT('',#2331);
#782=VERTEX_POINT('',#2333);
#783=VERTEX_POINT('',#2337);
#784=VERTEX_POINT('',#2341);
#785=VERTEX_POINT('',#2342);
#786=VERTEX_POINT('',#2347);
#787=VERTEX_POINT('',#2349);
#788=VERTEX_POINT('',#2372);
#789=VERTEX_POINT('',#2379);
#790=VERTEX_POINT('',#2382);
#791=VERTEX_POINT('',#2386);
#792=VERTEX_POINT('',#2390);
#793=VERTEX_POINT('',#2391);
#794=VERTEX_POINT('',#2393);
#795=VERTEX_POINT('',#2405);
#796=VERTEX_POINT('',#2409);
#797=VERTEX_POINT('',#2410);
#798=VERTEX_POINT('',#2412);
#799=VERTEX_POINT('',#2414);
#800=LINE('',#2006,#990);
#801=LINE('',#2009,#991);
#802=LINE('',#2011,#992);
#803=LINE('',#2013,#993);
#804=LINE('',#2015,#994);
#805=LINE('',#2018,#995);
#806=LINE('',#2020,#996);
#807=LINE('',#2022,#997);
#808=LINE('',#2027,#998);
#809=LINE('',#2031,#999);
#810=LINE('',#2032,#1000);
#811=LINE('',#2035,#1001);
#812=LINE('',#2037,#1002);
#813=LINE('',#2039,#1003);
#814=LINE('',#2041,#1004);
#815=LINE('',#2044,#1005);
#816=LINE('',#2045,#1006);
#817=LINE('',#2047,#1007);
#818=LINE('',#2049,#1008);
#819=LINE('',#2051,#1009);
#820=LINE('',#2054,#1010);
#821=LINE('',#2056,#1011);
#822=LINE('',#2057,#1012);
#823=LINE('',#2059,#1013);
#824=LINE('',#2061,#1014);
#825=LINE('',#2063,#1015);
#826=LINE('',#2065,#1016);
#827=LINE('',#2067,#1017);
#828=LINE('',#2070,#1018);
#829=LINE('',#2072,#1019);
#830=LINE('',#2074,#1020);
#831=LINE('',#2076,#1021);
#832=LINE('',#2079,#1022);
#833=LINE('',#2081,#1023);
#834=LINE('',#2083,#1024);
#835=LINE('',#2085,#1025);
#836=LINE('',#2087,#1026);
#837=LINE('',#2089,#1027);
#838=LINE('',#2091,#1028);
#839=LINE('',#2093,#1029);
#840=LINE('',#2095,#1030);
#841=LINE('',#2096,#1031);
#842=LINE('',#2098,#1032);
#843=LINE('',#2099,#1033);
#844=LINE('',#2101,#1034);
#845=LINE('',#2103,#1035);
#846=LINE('',#2104,#1036);
#847=LINE('',#2106,#1037);
#848=LINE('',#2108,#1038);
#849=LINE('',#2110,#1039);
#850=LINE('',#2112,#1040);
#851=LINE('',#2114,#1041);
#852=LINE('',#2116,#1042);
#853=LINE('',#2117,#1043);
#854=LINE('',#2119,#1044);
#855=LINE('',#2120,#1045);
#856=LINE('',#2125,#1046);
#857=LINE('',#2129,#1047);
#858=LINE('',#2134,#1048);
#859=LINE('',#2137,#1049);
#860=LINE('',#2140,#1050);
#861=LINE('',#2142,#1051);
#862=LINE('',#2144,#1052);
#863=LINE('',#2146,#1053);
#864=LINE('',#2148,#1054);
#865=LINE('',#2150,#1055);
#866=LINE('',#2154,#1056);
#867=LINE('',#2156,#1057);
#868=LINE('',#2158,#1058);
#869=LINE('',#2162,#1059);
#870=LINE('',#2164,#1060);
#871=LINE('',#2166,#1061);
#872=LINE('',#2168,#1062);
#873=LINE('',#2170,#1063);
#874=LINE('',#2172,#1064);
#875=LINE('',#2175,#1065);
#876=LINE('',#2176,#1066);
#877=LINE('',#2178,#1067);
#878=LINE('',#2180,#1068);
#879=LINE('',#2182,#1069);
#880=LINE('',#2184,#1070);
#881=LINE('',#2186,#1071);
#882=LINE('',#2188,#1072);
#883=LINE('',#2192,#1073);
#884=LINE('',#2193,#1074);
#885=LINE('',#2198,#1075);
#886=LINE('',#2202,#1076);
#887=LINE('',#2204,#1077);
#888=LINE('',#2206,#1078);
#889=LINE('',#2208,#1079);
#890=LINE('',#2210,#1080);
#891=LINE('',#2211,#1081);
#892=LINE('',#2213,#1082);
#893=LINE('',#2215,#1083);
#894=LINE('',#2216,#1084);
#895=LINE('',#2218,#1085);
#896=LINE('',#2219,#1086);
#897=LINE('',#2221,#1087);
#898=LINE('',#2223,#1088);
#899=LINE('',#2225,#1089);
#900=LINE('',#2227,#1090);
#901=LINE('',#2229,#1091);
#902=LINE('',#2231,#1092);
#903=LINE('',#2233,#1093);
#904=LINE('',#2235,#1094);
#905=LINE('',#2238,#1095);
#906=LINE('',#2240,#1096);
#907=LINE('',#2242,#1097);
#908=LINE('',#2244,#1098);
#909=LINE('',#2246,#1099);
#910=LINE('',#2248,#1100);
#911=LINE('',#2250,#1101);
#912=LINE('',#2252,#1102);
#913=LINE('',#2255,#1103);
#914=LINE('',#2258,#1104);
#915=LINE('',#2260,#1105);
#916=LINE('',#2262,#1106);
#917=LINE('',#2266,#1107);
#918=LINE('',#2270,#1108);
#919=LINE('',#2272,#1109);
#920=LINE('',#2274,#1110);
#921=LINE('',#2280,#1111);
#922=LINE('',#2281,#1112);
#923=LINE('',#2283,#1113);
#924=LINE('',#2285,#1114);
#925=LINE('',#2288,#1115);
#926=LINE('',#2290,#1116);
#927=LINE('',#2292,#1117);
#928=LINE('',#2294,#1118);
#929=LINE('',#2296,#1119);
#930=LINE('',#2298,#1120);
#931=LINE('',#2299,#1121);
#932=LINE('',#2301,#1122);
#933=LINE('',#2302,#1123);
#934=LINE('',#2304,#1124);
#935=LINE('',#2306,#1125);
#936=LINE('',#2308,#1126);
#937=LINE('',#2310,#1127);
#938=LINE('',#2311,#1128);
#939=LINE('',#2313,#1129);
#940=LINE('',#2315,#1130);
#941=LINE('',#2317,#1131);
#942=LINE('',#2319,#1132);
#943=LINE('',#2320,#1133);
#944=LINE('',#2322,#1134);
#945=LINE('',#2324,#1135);
#946=LINE('',#2326,#1136);
#947=LINE('',#2328,#1137);
#948=LINE('',#2330,#1138);
#949=LINE('',#2332,#1139);
#950=LINE('',#2334,#1140);
#951=LINE('',#2336,#1141);
#952=LINE('',#2338,#1142);
#953=LINE('',#2340,#1143);
#954=LINE('',#2343,#1144);
#955=LINE('',#2344,#1145);
#956=LINE('',#2346,#1146);
#957=LINE('',#2348,#1147);
#958=LINE('',#2350,#1148);
#959=LINE('',#2352,#1149);
#960=LINE('',#2353,#1150);
#961=LINE('',#2354,#1151);
#962=LINE('',#2356,#1152);
#963=LINE('',#2358,#1153);
#964=LINE('',#2363,#1154);
#965=LINE('',#2364,#1155);
#966=LINE('',#2366,#1156);
#967=LINE('',#2368,#1157);
#968=LINE('',#2374,#1158);
#969=LINE('',#2376,#1159);
#970=LINE('',#2385,#1160);
#971=LINE('',#2387,#1161);
#972=LINE('',#2389,#1162);
#973=LINE('',#2392,#1163);
#974=LINE('',#2394,#1164);
#975=LINE('',#2395,#1165);
#976=LINE('',#2397,#1166);
#977=LINE('',#2399,#1167);
#978=LINE('',#2401,#1168);
#979=LINE('',#2404,#1169);
#980=LINE('',#2406,#1170);
#981=LINE('',#2408,#1171);
#982=LINE('',#2411,#1172);
#983=LINE('',#2413,#1173);
#984=LINE('',#2415,#1174);
#985=LINE('',#2416,#1175);
#986=LINE('',#2418,#1176);
#987=LINE('',#2420,#1177);
#988=LINE('',#2422,#1178);
#989=LINE('',#2424,#1179);
#990=VECTOR('',#1622,1.);
#991=VECTOR('',#1623,1.);
#992=VECTOR('',#1624,1.);
#993=VECTOR('',#1625,1.);
#994=VECTOR('',#1628,1.);
#995=VECTOR('',#1629,1.);
#996=VECTOR('',#1630,1.);
#997=VECTOR('',#1631,1.);
#998=VECTOR('',#1636,1.);
#999=VECTOR('',#1639,1.);
#1000=VECTOR('',#1640,1.);
#1001=VECTOR('',#1641,1.);
#1002=VECTOR('',#1642,1.);
#1003=VECTOR('',#1643,1.);
#1004=VECTOR('',#1646,1.);
#1005=VECTOR('',#1647,1.);
#1006=VECTOR('',#1648,1.);
#1007=VECTOR('',#1649,1.);
#1008=VECTOR('',#1650,1.);
#1009=VECTOR('',#1653,1.);
#1010=VECTOR('',#1654,1.);
#1011=VECTOR('',#1655,1.);
#1012=VECTOR('',#1656,1.);
#1013=VECTOR('',#1659,1.);
#1014=VECTOR('',#1660,1.);
#1015=VECTOR('',#1661,1.);
#1016=VECTOR('',#1662,1.);
#1017=VECTOR('',#1665,1.);
#1018=VECTOR('',#1666,1.);
#1019=VECTOR('',#1667,1.);
#1020=VECTOR('',#1668,1.);
#1021=VECTOR('',#1671,1.);
#1022=VECTOR('',#1672,1.);
#1023=VECTOR('',#1673,1.);
#1024=VECTOR('',#1674,1.);
#1025=VECTOR('',#1675,1.);
#1026=VECTOR('',#1676,1.);
#1027=VECTOR('',#1677,1.);
#1028=VECTOR('',#1678,1.);
#1029=VECTOR('',#1679,1.);
#1030=VECTOR('',#1680,1.);
#1031=VECTOR('',#1681,1.);
#1032=VECTOR('',#1682,1.);
#1033=VECTOR('',#1683,1.);
#1034=VECTOR('',#1684,1.);
#1035=VECTOR('',#1685,1.);
#1036=VECTOR('',#1686,1.);
#1037=VECTOR('',#1687,1.);
#1038=VECTOR('',#1688,1.);
#1039=VECTOR('',#1689,1.);
#1040=VECTOR('',#1690,1.);
#1041=VECTOR('',#1691,1.);
#1042=VECTOR('',#1692,1.);
#1043=VECTOR('',#1693,1.);
#1044=VECTOR('',#1694,1.);
#1045=VECTOR('',#1695,1.);
#1046=VECTOR('',#1698,1.);
#1047=VECTOR('',#1703,1.);
#1048=VECTOR('',#1706,1.);
#1049=VECTOR('',#1709,1.);
#1050=VECTOR('',#1710,1.);
#1051=VECTOR('',#1711,1.);
#1052=VECTOR('',#1712,1.);
#1053=VECTOR('',#1715,1.);
#1054=VECTOR('',#1716,1.);
#1055=VECTOR('',#1717,1.);
#1056=VECTOR('',#1722,1.);
#1057=VECTOR('',#1725,1.);
#1058=VECTOR('',#1726,1.);
#1059=VECTOR('',#1733,1.);
#1060=VECTOR('',#1734,1.);
#1061=VECTOR('',#1735,1.);
#1062=VECTOR('',#1738,1.);
#1063=VECTOR('',#1739,1.);
#1064=VECTOR('',#1742,1.);
#1065=VECTOR('',#1743,1.);
#1066=VECTOR('',#1744,1.);
#1067=VECTOR('',#1747,1.);
#1068=VECTOR('',#1748,1.);
#1069=VECTOR('',#1749,1.);
#1070=VECTOR('',#1752,1.);
#1071=VECTOR('',#1753,1.);
#1072=VECTOR('',#1754,1.);
#1073=VECTOR('',#1759,1.);
#1074=VECTOR('',#1760,1.);
#1075=VECTOR('',#1765,1.);
#1076=VECTOR('',#1768,1.);
#1077=VECTOR('',#1771,1.);
#1078=VECTOR('',#1772,1.);
#1079=VECTOR('',#1775,1.);
#1080=VECTOR('',#1776,1.);
#1081=VECTOR('',#1777,1.);
#1082=VECTOR('',#1778,1.);
#1083=VECTOR('',#1779,1.);
#1084=VECTOR('',#1780,1.);
#1085=VECTOR('',#1781,1.);
#1086=VECTOR('',#1782,1.);
#1087=VECTOR('',#1785,1.);
#1088=VECTOR('',#1786,1.);
#1089=VECTOR('',#1787,1.);
#1090=VECTOR('',#1790,1.);
#1091=VECTOR('',#1791,1.);
#1092=VECTOR('',#1794,1.);
#1093=VECTOR('',#1795,1.);
#1094=VECTOR('',#1798,1.);
#1095=VECTOR('',#1803,1.);
#1096=VECTOR('',#1804,1.);
#1097=VECTOR('',#1805,1.);
#1098=VECTOR('',#1808,1.);
#1099=VECTOR('',#1809,1.);
#1100=VECTOR('',#1812,1.);
#1101=VECTOR('',#1813,1.);
#1102=VECTOR('',#1816,1.);
#1103=VECTOR('',#1821,1.);
#1104=VECTOR('',#1822,1.);
#1105=VECTOR('',#1823,1.);
#1106=VECTOR('',#1824,1.);
#1107=VECTOR('',#1829,1.);
#1108=VECTOR('',#1834,1.);
#1109=VECTOR('',#1835,1.);
#1110=VECTOR('',#1836,1.);
#1111=VECTOR('',#1847,1.);
#1112=VECTOR('',#1848,1.);
#1113=VECTOR('',#1851,1.);
#1114=VECTOR('',#1854,1.);
#1115=VECTOR('',#1859,1.);
#1116=VECTOR('',#1860,1.);
#1117=VECTOR('',#1861,1.);
#1118=VECTOR('',#1862,1.);
#1119=VECTOR('',#1863,1.);
#1120=VECTOR('',#1864,1.);
#1121=VECTOR('',#1865,1.);
#1122=VECTOR('',#1866,1.);
#1123=VECTOR('',#1867,1.);
#1124=VECTOR('',#1868,1.);
#1125=VECTOR('',#1869,1.);
#1126=VECTOR('',#1872,1.);
#1127=VECTOR('',#1873,1.);
#1128=VECTOR('',#1874,1.);
#1129=VECTOR('',#1877,1.);
#1130=VECTOR('',#1880,1.);
#1131=VECTOR('',#1881,1.);
#1132=VECTOR('',#1882,1.);
#1133=VECTOR('',#1883,1.);
#1134=VECTOR('',#1884,1.);
#1135=VECTOR('',#1885,1.);
#1136=VECTOR('',#1886,1.);
#1137=VECTOR('',#1887,1.);
#1138=VECTOR('',#1888,1.);
#1139=VECTOR('',#1889,1.);
#1140=VECTOR('',#1890,1.);
#1141=VECTOR('',#1893,1.);
#1142=VECTOR('',#1894,1.);
#1143=VECTOR('',#1897,1.);
#1144=VECTOR('',#1898,1.);
#1145=VECTOR('',#1899,1.);
#1146=VECTOR('',#1902,1.);
#1147=VECTOR('',#1903,1.);
#1148=VECTOR('',#1904,1.);
#1149=VECTOR('',#1907,1.);
#1150=VECTOR('',#1908,1.);
#1151=VECTOR('',#1909,1.);
#1152=VECTOR('',#1912,1.);
#1153=VECTOR('',#1915,1.);
#1154=VECTOR('',#1924,1.);
#1155=VECTOR('',#1925,1.);
#1156=VECTOR('',#1928,1.);
#1157=VECTOR('',#1931,1.);
#1158=VECTOR('',#1940,1.);
#1159=VECTOR('',#1943,1.);
#1160=VECTOR('',#1956,1.);
#1161=VECTOR('',#1957,1.);
#1162=VECTOR('',#1960,1.);
#1163=VECTOR('',#1961,1.);
#1164=VECTOR('',#1962,1.);
#1165=VECTOR('',#1963,1.);
#1166=VECTOR('',#1966,1.);
#1167=VECTOR('',#1969,1.);
#1168=VECTOR('',#1972,1.);
#1169=VECTOR('',#1977,1.);
#1170=VECTOR('',#1978,1.);
#1171=VECTOR('',#1981,1.);
#1172=VECTOR('',#1982,1.);
#1173=VECTOR('',#1983,1.);
#1174=VECTOR('',#1984,1.);
#1175=VECTOR('',#1985,1.);
#1176=VECTOR('',#1988,1.);
#1177=VECTOR('',#1991,1.);
#1178=VECTOR('',#1994,1.);
#1179=VECTOR('',#1997,1.);
#1180=EDGE_LOOP('',(#40,#41,#42,#43));
#1181=EDGE_LOOP('',(#44,#45,#46,#47));
#1182=EDGE_LOOP('',(#48,#49,#50,#51));
#1183=EDGE_LOOP('',(#52,#53,#54,#55));
#1184=EDGE_LOOP('',(#56,#57,#58,#59,#60,#61));
#1185=EDGE_LOOP('',(#62,#63,#64,#65));
#1186=EDGE_LOOP('',(#66,#67,#68,#69));
#1187=EDGE_LOOP('',(#70,#71,#72,#73));
#1188=EDGE_LOOP('',(#74,#75,#76,#77,#78,#79,#80,#81,#82,#83,#84,#85,#86,
#87,#88,#89,#90,#91,#92,#93,#94,#95,#96,#97,#98,#99,#100,#101));
#1189=EDGE_LOOP('',(#102,#103,#104,#105));
#1190=EDGE_LOOP('',(#106,#107,#108,#109));
#1191=EDGE_LOOP('',(#110,#111,#112,#113));
#1192=EDGE_LOOP('',(#114,#115,#116,#117));
#1193=EDGE_LOOP('',(#118,#119,#120,#121));
#1194=EDGE_LOOP('',(#122,#123,#124,#125));
#1195=EDGE_LOOP('',(#126,#127,#128,#129));
#1196=EDGE_LOOP('',(#130,#131,#132,#133));
#1197=EDGE_LOOP('',(#134,#135,#136,#137));
#1198=EDGE_LOOP('',(#138,#139,#140,#141));
#1199=EDGE_LOOP('',(#142,#143,#144,#145));
#1200=EDGE_LOOP('',(#146,#147,#148,#149));
#1201=EDGE_LOOP('',(#150));
#1202=EDGE_LOOP('',(#151,#152,#153,#154));
#1203=EDGE_LOOP('',(#155,#156,#157,#158));
#1204=EDGE_LOOP('',(#159,#160,#161,#162));
#1205=EDGE_LOOP('',(#163,#164,#165,#166));
#1206=EDGE_LOOP('',(#167,#168,#169,#170,#171,#172,#173,#174,#175,#176,#177,
#178,#179,#180,#181,#182));
#1207=EDGE_LOOP('',(#183,#184,#185,#186));
#1208=EDGE_LOOP('',(#187,#188,#189,#190,#191));
#1209=EDGE_LOOP('',(#192,#193,#194,#195));
#1210=EDGE_LOOP('',(#196,#197,#198,#199));
#1211=EDGE_LOOP('',(#200,#201,#202,#203,#204));
#1212=EDGE_LOOP('',(#205,#206,#207,#208));
#1213=EDGE_LOOP('',(#209,#210,#211,#212));
#1214=EDGE_LOOP('',(#213,#214,#215,#216,#217));
#1215=EDGE_LOOP('',(#218,#219,#220,#221,#222));
#1216=EDGE_LOOP('',(#223,#224,#225,#226));
#1217=EDGE_LOOP('',(#227,#228,#229,#230));
#1218=EDGE_LOOP('',(#231,#232,#233,#234));
#1219=EDGE_LOOP('',(#235,#236,#237,#238));
#1220=EDGE_LOOP('',(#239,#240,#241,#242));
#1221=EDGE_LOOP('',(#243,#244,#245,#246));
#1222=EDGE_LOOP('',(#247,#248,#249,#250));
#1223=EDGE_LOOP('',(#251,#252,#253,#254));
#1224=EDGE_LOOP('',(#255,#256,#257,#258));
#1225=EDGE_LOOP('',(#259,#260,#261,#262));
#1226=EDGE_LOOP('',(#263,#264,#265,#266));
#1227=EDGE_LOOP('',(#267,#268,#269,#270));
#1228=EDGE_LOOP('',(#271,#272,#273,#274,#275,#276,#277,#278,#279,#280,#281,
#282,#283,#284,#285));
#1229=EDGE_LOOP('',(#286,#287,#288,#289,#290));
#1230=EDGE_LOOP('',(#291,#292,#293,#294));
#1231=EDGE_LOOP('',(#295,#296,#297,#298,#299,#300,#301,#302,#303,#304,#305,
#306,#307,#308,#309));
#1232=EDGE_LOOP('',(#310,#311,#312,#313));
#1233=EDGE_LOOP('',(#314,#315,#316,#317,#318));
#1234=EDGE_LOOP('',(#319,#320,#321,#322));
#1235=EDGE_LOOP('',(#323,#324,#325,#326,#327,#328));
#1236=EDGE_LOOP('',(#329,#330,#331,#332));
#1237=EDGE_LOOP('',(#333,#334,#335,#336));
#1238=EDGE_LOOP('',(#337,#338,#339,#340));
#1239=EDGE_LOOP('',(#341,#342,#343,#344));
#1240=EDGE_LOOP('',(#345,#346,#347,#348));
#1241=EDGE_LOOP('',(#349,#350,#351,#352));
#1242=EDGE_LOOP('',(#353,#354,#355,#356));
#1243=EDGE_LOOP('',(#357,#358,#359,#360));
#1244=EDGE_LOOP('',(#361,#362,#363,#364));
#1245=EDGE_LOOP('',(#365));
#1246=EDGE_LOOP('',(#366));
#1247=EDGE_LOOP('',(#367,#368,#369,#370));
#1248=EDGE_LOOP('',(#371,#372,#373,#374));
#1249=EDGE_LOOP('',(#375));
#1250=EDGE_LOOP('',(#376,#377,#378,#379));
#1251=EDGE_LOOP('',(#380));
#1252=EDGE_LOOP('',(#381));
#1253=EDGE_LOOP('',(#382));
#1254=EDGE_LOOP('',(#383));
#1255=EDGE_LOOP('',(#384,#385,#386,#387,#388,#389));
#1256=EDGE_LOOP('',(#390,#391,#392,#393,#394,#395,#396,#397));
#1257=EDGE_LOOP('',(#398,#399,#400,#401));
#1258=EDGE_LOOP('',(#402,#403,#404,#405));
#1259=EDGE_LOOP('',(#406,#407,#408,#409));
#1260=EDGE_LOOP('',(#410,#411,#412,#413));
#1261=EDGE_LOOP('',(#414,#415,#416,#417));
#1262=EDGE_LOOP('',(#418,#419,#420,#421,#422,#423,#424,#425));
#1263=EDGE_LOOP('',(#426,#427,#428,#429,#430,#431));
#1264=EDGE_LOOP('',(#432,#433,#434,#435));
#1265=EDGE_LOOP('',(#436,#437,#438,#439));
#1266=EDGE_LOOP('',(#440,#441,#442,#443));
#1267=EDGE_LOOP('',(#444,#445,#446,#447));
#1268=EDGE_LOOP('',(#448,#449,#450,#451));
#1269=EDGE_LOOP('',(#452,#453,#454,#455));
#1270=FACE_BOUND('',#1180,.T.);
#1271=FACE_BOUND('',#1181,.T.);
#1272=FACE_BOUND('',#1182,.T.);
#1273=FACE_BOUND('',#1183,.T.);
#1274=FACE_BOUND('',#1184,.T.);
#1275=FACE_BOUND('',#1185,.T.);
#1276=FACE_BOUND('',#1186,.T.);
#1277=FACE_BOUND('',#1187,.T.);
#1278=FACE_BOUND('',#1188,.T.);
#1279=FACE_BOUND('',#1189,.T.);
#1280=FACE_BOUND('',#1190,.T.);
#1281=FACE_BOUND('',#1191,.T.);
#1282=FACE_BOUND('',#1192,.T.);
#1283=FACE_BOUND('',#1193,.T.);
#1284=FACE_BOUND('',#1194,.T.);
#1285=FACE_BOUND('',#1195,.T.);
#1286=FACE_BOUND('',#1196,.T.);
#1287=FACE_BOUND('',#1197,.T.);
#1288=FACE_BOUND('',#1198,.T.);
#1289=FACE_BOUND('',#1199,.T.);
#1290=FACE_BOUND('',#1200,.T.);
#1291=FACE_BOUND('',#1201,.T.);
#1292=FACE_BOUND('',#1202,.T.);
#1293=FACE_BOUND('',#1203,.T.);
#1294=FACE_BOUND('',#1204,.T.);
#1295=FACE_BOUND('',#1205,.T.);
#1296=FACE_BOUND('',#1206,.T.);
#1297=FACE_BOUND('',#1207,.T.);
#1298=FACE_BOUND('',#1208,.T.);
#1299=FACE_BOUND('',#1209,.T.);
#1300=FACE_BOUND('',#1210,.T.);
#1301=FACE_BOUND('',#1211,.T.);
#1302=FACE_BOUND('',#1212,.T.);
#1303=FACE_BOUND('',#1213,.T.);
#1304=FACE_BOUND('',#1214,.T.);
#1305=FACE_BOUND('',#1215,.T.);
#1306=FACE_BOUND('',#1216,.T.);
#1307=FACE_BOUND('',#1217,.T.);
#1308=FACE_BOUND('',#1218,.T.);
#1309=FACE_BOUND('',#1219,.T.);
#1310=FACE_BOUND('',#1220,.T.);
#1311=FACE_BOUND('',#1221,.T.);
#1312=FACE_BOUND('',#1222,.T.);
#1313=FACE_BOUND('',#1223,.T.);
#1314=FACE_BOUND('',#1224,.T.);
#1315=FACE_BOUND('',#1225,.T.);
#1316=FACE_BOUND('',#1226,.T.);
#1317=FACE_BOUND('',#1227,.T.);
#1318=FACE_BOUND('',#1228,.T.);
#1319=FACE_BOUND('',#1229,.T.);
#1320=FACE_BOUND('',#1230,.T.);
#1321=FACE_BOUND('',#1231,.T.);
#1322=FACE_BOUND('',#1232,.T.);
#1323=FACE_BOUND('',#1233,.T.);
#1324=FACE_BOUND('',#1234,.T.);
#1325=FACE_BOUND('',#1235,.T.);
#1326=FACE_BOUND('',#1236,.T.);
#1327=FACE_BOUND('',#1237,.T.);
#1328=FACE_BOUND('',#1238,.T.);
#1329=FACE_BOUND('',#1239,.T.);
#1330=FACE_BOUND('',#1240,.T.);
#1331=FACE_BOUND('',#1241,.T.);
#1332=FACE_BOUND('',#1242,.T.);
#1333=FACE_BOUND('',#1243,.T.);
#1334=FACE_BOUND('',#1244,.T.);
#1335=FACE_BOUND('',#1245,.T.);
#1336=FACE_BOUND('',#1246,.T.);
#1337=FACE_BOUND('',#1247,.T.);
#1338=FACE_BOUND('',#1248,.T.);
#1339=FACE_BOUND('',#1249,.T.);
#1340=FACE_BOUND('',#1250,.T.);
#1341=FACE_BOUND('',#1251,.T.);
#1342=FACE_BOUND('',#1252,.T.);
#1343=FACE_BOUND('',#1253,.T.);
#1344=FACE_BOUND('',#1254,.T.);
#1345=FACE_BOUND('',#1255,.T.);
#1346=FACE_BOUND('',#1256,.T.);
#1347=FACE_BOUND('',#1257,.T.);
#1348=FACE_BOUND('',#1258,.T.);
#1349=FACE_BOUND('',#1259,.T.);
#1350=FACE_BOUND('',#1260,.T.);
#1351=FACE_BOUND('',#1261,.T.);
#1352=FACE_BOUND('',#1262,.T.);
#1353=FACE_BOUND('',#1263,.T.);
#1354=FACE_BOUND('',#1264,.T.);
#1355=FACE_BOUND('',#1265,.T.);
#1356=FACE_BOUND('',#1266,.T.);
#1357=FACE_BOUND('',#1267,.T.);
#1358=FACE_BOUND('',#1268,.T.);
#1359=FACE_BOUND('',#1269,.T.);
#1360=PLANE('',#1521);
#1361=PLANE('',#1522);
#1362=PLANE('',#1523);
#1363=PLANE('',#1526);
#1364=PLANE('',#1527);
#1365=PLANE('',#1528);
#1366=PLANE('',#1529);
#1367=PLANE('',#1530);
#1368=PLANE('',#1533);
#1369=PLANE('',#1536);
#1370=PLANE('',#1539);
#1371=PLANE('',#1542);
#1372=PLANE('',#1543);
#1373=PLANE('',#1544);
#1374=PLANE('',#1545);
#1375=PLANE('',#1546);
#1376=PLANE('',#1547);
#1377=PLANE('',#1549);
#1378=PLANE('',#1552);
#1379=PLANE('',#1553);
#1380=PLANE('',#1554);
#1381=PLANE('',#1555);
#1382=PLANE('',#1556);
#1383=PLANE('',#1557);
#1384=PLANE('',#1558);
#1385=PLANE('',#1559);
#1386=PLANE('',#1560);
#1387=PLANE('',#1561);
#1388=PLANE('',#1562);
#1389=PLANE('',#1563);
#1390=PLANE('',#1564);
#1391=PLANE('',#1568);
#1392=PLANE('',#1572);
#1393=PLANE('',#1574);
#1394=PLANE('',#1575);
#1395=PLANE('',#1577);
#1396=PLANE('',#1578);
#1397=PLANE('',#1579);
#1398=PLANE('',#1580);
#1399=PLANE('',#1581);
#1400=PLANE('',#1582);
#1401=PLANE('',#1583);
#1402=PLANE('',#1584);
#1403=PLANE('',#1585);
#1404=PLANE('',#1586);
#1405=PLANE('',#1587);
#1406=PLANE('',#1588);
#1407=PLANE('',#1589);
#1408=PLANE('',#1590);
#1409=PLANE('',#1593);
#1410=PLANE('',#1596);
#1411=PLANE('',#1597);
#1412=PLANE('',#1598);
#1413=PLANE('',#1602);
#1414=PLANE('',#1603);
#1415=PLANE('',#1604);
#1416=PLANE('',#1605);
#1417=PLANE('',#1606);
#1418=PLANE('',#1607);
#1419=PLANE('',#1608);
#1420=PLANE('',#1609);
#1421=PLANE('',#1610);
#1422=PLANE('',#1611);
#1423=PLANE('',#1612);
#1424=PLANE('',#1613);
#1425=PLANE('',#1614);
#1426=PLANE('',#1615);
#1427=PLANE('',#1616);
#1428=PLANE('',#1617);
#1429=ADVANCED_FACE('',(#1270),#1360,.T.);
#1430=ADVANCED_FACE('',(#1271),#1361,.T.);
#1431=ADVANCED_FACE('',(#1272,#1273),#1362,.T.);
#1432=ADVANCED_FACE('',(#1274),#1363,.T.);
#1433=ADVANCED_FACE('',(#1275),#1364,.F.);
#1434=ADVANCED_FACE('',(#1276),#1365,.T.);
#1435=ADVANCED_FACE('',(#1277),#1366,.T.);
#1436=ADVANCED_FACE('',(#1278,#1279),#1367,.T.);
#1437=ADVANCED_FACE('',(#1280,#1281),#1368,.F.);
#1438=ADVANCED_FACE('',(#1282),#1369,.T.);
#1439=ADVANCED_FACE('',(#1283),#14,.F.);
#1440=ADVANCED_FACE('',(#1284),#1370,.F.);
#1441=ADVANCED_FACE('',(#1285),#15,.F.);
#1442=ADVANCED_FACE('',(#1286),#1371,.T.);
#1443=ADVANCED_FACE('',(#1287),#1372,.T.);
#1444=ADVANCED_FACE('',(#1288),#1373,.T.);
#1445=ADVANCED_FACE('',(#1289),#1374,.T.);
#1446=ADVANCED_FACE('',(#1290),#1375,.F.);
#1447=ADVANCED_FACE('',(#1291,#1292),#1376,.T.);
#1448=ADVANCED_FACE('',(#1293,#1294),#1377,.F.);
#1449=ADVANCED_FACE('',(#1295),#1378,.T.);
#1450=ADVANCED_FACE('',(#1296,#1297),#1379,.T.);
#1451=ADVANCED_FACE('',(#1298),#1380,.T.);
#1452=ADVANCED_FACE('',(#1299),#1381,.F.);
#1453=ADVANCED_FACE('',(#1300),#1382,.F.);
#1454=ADVANCED_FACE('',(#1301),#1383,.F.);
#1455=ADVANCED_FACE('',(#1302),#1384,.T.);
#1456=ADVANCED_FACE('',(#1303),#1385,.F.);
#1457=ADVANCED_FACE('',(#1304),#1386,.F.);
#1458=ADVANCED_FACE('',(#1305),#1387,.T.);
#1459=ADVANCED_FACE('',(#1306),#1388,.F.);
#1460=ADVANCED_FACE('',(#1307),#1389,.T.);
#1461=ADVANCED_FACE('',(#1308),#1390,.T.);
#1462=ADVANCED_FACE('',(#1309),#16,.F.);
#1463=ADVANCED_FACE('',(#1310),#1391,.F.);
#1464=ADVANCED_FACE('',(#1311),#17,.F.);
#1465=ADVANCED_FACE('',(#1312,#1313),#1392,.T.);
#1466=ADVANCED_FACE('',(#1314),#12,.F.);
#1467=ADVANCED_FACE('',(#1315),#1393,.F.);
#1468=ADVANCED_FACE('',(#1316),#1394,.T.);
#1469=ADVANCED_FACE('',(#1317),#13,.F.);
#1470=ADVANCED_FACE('',(#1318),#1395,.F.);
#1471=ADVANCED_FACE('',(#1319),#1396,.F.);
#1472=ADVANCED_FACE('',(#1320),#1397,.F.);
#1473=ADVANCED_FACE('',(#1321),#1398,.F.);
#1474=ADVANCED_FACE('',(#1322),#1399,.F.);
#1475=ADVANCED_FACE('',(#1323),#1400,.T.);
#1476=ADVANCED_FACE('',(#1324),#1401,.T.);
#1477=ADVANCED_FACE('',(#1325),#1402,.T.);
#1478=ADVANCED_FACE('',(#1326),#1403,.F.);
#1479=ADVANCED_FACE('',(#1327),#1404,.T.);
#1480=ADVANCED_FACE('',(#1328),#1405,.T.);
#1481=ADVANCED_FACE('',(#1329),#1406,.T.);
#1482=ADVANCED_FACE('',(#1330),#1407,.T.);
#1483=ADVANCED_FACE('',(#1331),#1408,.T.);
#1484=ADVANCED_FACE('',(#1332),#18,.F.);
#1485=ADVANCED_FACE('',(#1333),#19,.F.);
#1486=ADVANCED_FACE('',(#1334),#1409,.F.);
#1487=ADVANCED_FACE('',(#1335,#1336),#20,.F.);
#1488=ADVANCED_FACE('',(#1337),#1410,.F.);
#1489=ADVANCED_FACE('',(#1338),#1411,.T.);
#1490=ADVANCED_FACE('',(#1339,#1340),#1412,.T.);
#1491=ADVANCED_FACE('',(#1341,#1342),#21,.F.);
#1492=ADVANCED_FACE('',(#1343,#1344),#1413,.F.);
#1493=ADVANCED_FACE('',(#1345),#1414,.F.);
#1494=ADVANCED_FACE('',(#1346),#1415,.T.);
#1495=ADVANCED_FACE('',(#1347),#1416,.T.);
#1496=ADVANCED_FACE('',(#1348),#1417,.F.);
#1497=ADVANCED_FACE('',(#1349),#1418,.T.);
#1498=ADVANCED_FACE('',(#1350),#1419,.F.);
#1499=ADVANCED_FACE('',(#1351),#1420,.F.);
#1500=ADVANCED_FACE('',(#1352),#1421,.F.);
#1501=ADVANCED_FACE('',(#1353),#1422,.T.);
#1502=ADVANCED_FACE('',(#1354),#1423,.T.);
#1503=ADVANCED_FACE('',(#1355),#1424,.T.);
#1504=ADVANCED_FACE('',(#1356),#1425,.T.);
#1505=ADVANCED_FACE('',(#1357),#1426,.F.);
#1506=ADVANCED_FACE('',(#1358),#1427,.F.);
#1507=ADVANCED_FACE('',(#1359),#1428,.T.);
#1508=CLOSED_SHELL('',(#1429,#1430,#1431,#1432,#1433,#1434,#1435,#1436,
#1437,#1438,#1439,#1440,#1441,#1442,#1443,#1444,#1445,#1446,#1447,#1448,
#1449,#1450,#1451,#1452,#1453,#1454,#1455,#1456,#1457,#1458,#1459,#1460,
#1461,#1462,#1463,#1464,#1465,#1466,#1467,#1468,#1469,#1470,#1471,#1472,
#1473,#1474,#1475,#1476,#1477,#1478,#1479,#1480,#1481,#1482,#1483,#1484,
#1485,#1486,#1487,#1488,#1489,#1490,#1491,#1492,#1493,#1494,#1495,#1496,
#1497,#1498,#1499,#1500,#1501,#1502,#1503,#1504,#1505,#1506,#1507));
#1509=STYLED_ITEM('',(#1510),#1517);
#1510=PRESENTATION_STYLE_ASSIGNMENT((#1511));
#1511=SURFACE_STYLE_USAGE(.BOTH.,#1512);
#1512=SURFACE_SIDE_STYLE('',(#1513));
#1513=SURFACE_STYLE_FILL_AREA(#1514);
#1514=FILL_AREA_STYLE('',(#1515));
#1515=FILL_AREA_STYLE_COLOUR('',#1516);
#1516=COLOUR_RGB('',0.615686274509804,0.811764705882353,0.929411764705882);
#1517=MANIFOLD_SOLID_BREP('Part 1',#1508);
#1518=SHAPE_DEFINITION_REPRESENTATION(#2434,#1519);
#1519=SHAPE_REPRESENTATION('Part 1',(#1520),#2429);
#1520=AXIS2_PLACEMENT_3D('',#2004,#1618,#1619);
#1521=AXIS2_PLACEMENT_3D('',#2005,#1620,#1621);
#1522=AXIS2_PLACEMENT_3D('',#2014,#1626,#1627);
#1523=AXIS2_PLACEMENT_3D('',#2023,#1632,#1633);
#1524=AXIS2_PLACEMENT_3D('',#2024,#1634,#1635);
#1525=AXIS2_PLACEMENT_3D('',#2029,#1637,#1638);
#1526=AXIS2_PLACEMENT_3D('',#2040,#1644,#1645);
#1527=AXIS2_PLACEMENT_3D('',#2050,#1651,#1652);
#1528=AXIS2_PLACEMENT_3D('',#2058,#1657,#1658);
#1529=AXIS2_PLACEMENT_3D('',#2066,#1663,#1664);
#1530=AXIS2_PLACEMENT_3D('',#2075,#1669,#1670);
#1531=AXIS2_PLACEMENT_3D('',#2123,#1696,#1697);
#1532=AXIS2_PLACEMENT_3D('',#2127,#1699,#1700);
#1533=AXIS2_PLACEMENT_3D('',#2128,#1701,#1702);
#1534=AXIS2_PLACEMENT_3D('',#2132,#1704,#1705);
#1535=AXIS2_PLACEMENT_3D('',#2136,#1707,#1708);
#1536=AXIS2_PLACEMENT_3D('',#2145,#1713,#1714);
#1537=AXIS2_PLACEMENT_3D('',#2151,#1718,#1719);
#1538=AXIS2_PLACEMENT_3D('',#2152,#1720,#1721);
#1539=AXIS2_PLACEMENT_3D('',#2155,#1723,#1724);
#1540=AXIS2_PLACEMENT_3D('',#2159,#1727,#1728);
#1541=AXIS2_PLACEMENT_3D('',#2160,#1729,#1730);
#1542=AXIS2_PLACEMENT_3D('',#2161,#1731,#1732);
#1543=AXIS2_PLACEMENT_3D('',#2167,#1736,#1737);
#1544=AXIS2_PLACEMENT_3D('',#2171,#1740,#1741);
#1545=AXIS2_PLACEMENT_3D('',#2177,#1745,#1746);
#1546=AXIS2_PLACEMENT_3D('',#2183,#1750,#1751);
#1547=AXIS2_PLACEMENT_3D('',#2189,#1755,#1756);
#1548=AXIS2_PLACEMENT_3D('',#2190,#1757,#1758);
#1549=AXIS2_PLACEMENT_3D('',#2194,#1761,#1762);
#1550=AXIS2_PLACEMENT_3D('',#2195,#1763,#1764);
#1551=AXIS2_PLACEMENT_3D('',#2200,#1766,#1767);
#1552=AXIS2_PLACEMENT_3D('',#2203,#1769,#1770);
#1553=AXIS2_PLACEMENT_3D('',#2207,#1773,#1774);
#1554=AXIS2_PLACEMENT_3D('',#2220,#1783,#1784);
#1555=AXIS2_PLACEMENT_3D('',#2226,#1788,#1789);
#1556=AXIS2_PLACEMENT_3D('',#2230,#1792,#1793);
#1557=AXIS2_PLACEMENT_3D('',#2234,#1796,#1797);
#1558=AXIS2_PLACEMENT_3D('',#2236,#1799,#1800);
#1559=AXIS2_PLACEMENT_3D('',#2237,#1801,#1802);
#1560=AXIS2_PLACEMENT_3D('',#2243,#1806,#1807);
#1561=AXIS2_PLACEMENT_3D('',#2247,#1810,#1811);
#1562=AXIS2_PLACEMENT_3D('',#2251,#1814,#1815);
#1563=AXIS2_PLACEMENT_3D('',#2253,#1817,#1818);
#1564=AXIS2_PLACEMENT_3D('',#2254,#1819,#1820);
#1565=AXIS2_PLACEMENT_3D('',#2263,#1825,#1826);
#1566=AXIS2_PLACEMENT_3D('',#2264,#1827,#1828);
#1567=AXIS2_PLACEMENT_3D('',#2268,#1830,#1831);
#1568=AXIS2_PLACEMENT_3D('',#2269,#1832,#1833);
#1569=AXIS2_PLACEMENT_3D('',#2275,#1837,#1838);
#1570=AXIS2_PLACEMENT_3D('',#2276,#1839,#1840);
#1571=AXIS2_PLACEMENT_3D('',#2277,#1841,#1842);
#1572=AXIS2_PLACEMENT_3D('',#2278,#1843,#1844);
#1573=AXIS2_PLACEMENT_3D('',#2279,#1845,#1846);
#1574=AXIS2_PLACEMENT_3D('',#2282,#1849,#1850);
#1575=AXIS2_PLACEMENT_3D('',#2284,#1852,#1853);
#1576=AXIS2_PLACEMENT_3D('',#2286,#1855,#1856);
#1577=AXIS2_PLACEMENT_3D('',#2287,#1857,#1858);
#1578=AXIS2_PLACEMENT_3D('',#2307,#1870,#1871);
#1579=AXIS2_PLACEMENT_3D('',#2312,#1875,#1876);
#1580=AXIS2_PLACEMENT_3D('',#2314,#1878,#1879);
#1581=AXIS2_PLACEMENT_3D('',#2335,#1891,#1892);
#1582=AXIS2_PLACEMENT_3D('',#2339,#1895,#1896);
#1583=AXIS2_PLACEMENT_3D('',#2345,#1900,#1901);
#1584=AXIS2_PLACEMENT_3D('',#2351,#1905,#1906);
#1585=AXIS2_PLACEMENT_3D('',#2355,#1910,#1911);
#1586=AXIS2_PLACEMENT_3D('',#2357,#1913,#1914);
#1587=AXIS2_PLACEMENT_3D('',#2359,#1916,#1917);
#1588=AXIS2_PLACEMENT_3D('',#2360,#1918,#1919);
#1589=AXIS2_PLACEMENT_3D('',#2361,#1920,#1921);
#1590=AXIS2_PLACEMENT_3D('',#2362,#1922,#1923);
#1591=AXIS2_PLACEMENT_3D('',#2365,#1926,#1927);
#1592=AXIS2_PLACEMENT_3D('',#2367,#1929,#1930);
#1593=AXIS2_PLACEMENT_3D('',#2369,#1932,#1933);
#1594=AXIS2_PLACEMENT_3D('',#2370,#1934,#1935);
#1595=AXIS2_PLACEMENT_3D('',#2371,#1936,#1937);
#1596=AXIS2_PLACEMENT_3D('',#2373,#1938,#1939);
#1597=AXIS2_PLACEMENT_3D('',#2375,#1941,#1942);
#1598=AXIS2_PLACEMENT_3D('',#2377,#1944,#1945);
#1599=AXIS2_PLACEMENT_3D('',#2378,#1946,#1947);
#1600=AXIS2_PLACEMENT_3D('',#2380,#1948,#1949);
#1601=AXIS2_PLACEMENT_3D('',#2381,#1950,#1951);
#1602=AXIS2_PLACEMENT_3D('',#2383,#1952,#1953);
#1603=AXIS2_PLACEMENT_3D('',#2384,#1954,#1955);
#1604=AXIS2_PLACEMENT_3D('',#2388,#1958,#1959);
#1605=AXIS2_PLACEMENT_3D('',#2396,#1964,#1965);
#1606=AXIS2_PLACEMENT_3D('',#2398,#1967,#1968);
#1607=AXIS2_PLACEMENT_3D('',#2400,#1970,#1971);
#1608=AXIS2_PLACEMENT_3D('',#2402,#1973,#1974);
#1609=AXIS2_PLACEMENT_3D('',#2403,#1975,#1976);
#1610=AXIS2_PLACEMENT_3D('',#2407,#1979,#1980);
#1611=AXIS2_PLACEMENT_3D('',#2417,#1986,#1987);
#1612=AXIS2_PLACEMENT_3D('',#2419,#1989,#1990);
#1613=AXIS2_PLACEMENT_3D('',#2421,#1992,#1993);
#1614=AXIS2_PLACEMENT_3D('',#2423,#1995,#1996);
#1615=AXIS2_PLACEMENT_3D('',#2425,#1998,#1999);
#1616=AXIS2_PLACEMENT_3D('',#2426,#2000,#2001);
#1617=AXIS2_PLACEMENT_3D('',#2427,#2002,#2003);
#1618=DIRECTION('',(0.,0.,1.));
#1619=DIRECTION('',(1.,0.,0.));
#1620=DIRECTION('',(0.,1.,0.));
#1621=DIRECTION('',(0.,0.,1.));
#1622=DIRECTION('',(1.,0.,0.));
#1623=DIRECTION('',(0.,0.,-1.));
#1624=DIRECTION('',(1.,0.,0.));
#1625=DIRECTION('',(0.,0.,-1.));
#1626=DIRECTION('',(1.,0.,0.));
#1627=DIRECTION('',(0.,0.,-1.));
#1628=DIRECTION('',(0.,-1.,0.));
#1629=DIRECTION('',(0.,0.,-1.));
#1630=DIRECTION('',(0.,-1.,0.));
#1631=DIRECTION('',(0.,0.,-1.));
#1632=DIRECTION('',(0.,1.,0.));
#1633=DIRECTION('',(0.,0.,1.));
#1634=DIRECTION('',(0.,1.,0.));
#1635=DIRECTION('',(0.,0.,1.));
#1636=DIRECTION('',(-1.,0.,1.4954512723938E-16));
#1637=DIRECTION('',(0.,1.,0.));
#1638=DIRECTION('',(0.,0.,-1.));
#1639=DIRECTION('',(-1.,0.,1.4954512723938E-16));
#1640=DIRECTION('',(1.,0.,0.));
#1641=DIRECTION('',(0.,0.,-1.));
#1642=DIRECTION('',(1.,0.,0.));
#1643=DIRECTION('',(0.,0.,-1.));
#1644=DIRECTION('',(0.,0.,1.));
#1645=DIRECTION('',(1.,0.,0.));
#1646=DIRECTION('',(0.,-1.,0.));
#1647=DIRECTION('',(1.,0.,0.));
#1648=DIRECTION('',(-1.,0.,0.));
#1649=DIRECTION('',(0.,-1.,0.));
#1650=DIRECTION('',(1.,0.,0.));
#1651=DIRECTION('',(0.,1.,0.));
#1652=DIRECTION('',(0.,0.,1.));
#1653=DIRECTION('',(1.,0.,0.));
#1654=DIRECTION('',(0.,0.,-1.));
#1655=DIRECTION('',(1.,0.,0.));
#1656=DIRECTION('',(0.,0.,-1.));
#1657=DIRECTION('',(0.,1.,0.));
#1658=DIRECTION('',(0.,0.,1.));
#1659=DIRECTION('',(0.,0.,-1.));
#1660=DIRECTION('',(1.,0.,0.));
#1661=DIRECTION('',(0.,0.,-1.));
#1662=DIRECTION('',(1.,0.,0.));
#1663=DIRECTION('',(0.,-1.,0.));
#1664=DIRECTION('',(0.,0.,-1.));
#1665=DIRECTION('',(-1.,0.,0.));
#1666=DIRECTION('',(0.,0.,-1.));
#1667=DIRECTION('',(-1.,0.,0.));
#1668=DIRECTION('',(0.,0.,-1.));
#1669=DIRECTION('',(0.,0.,1.));
#1670=DIRECTION('',(1.,0.,0.));
#1671=DIRECTION('',(-2.29006399468885E-16,1.,0.));
#1672=DIRECTION('',(1.,0.,0.));
#1673=DIRECTION('',(0.,-1.,0.));
#1674=DIRECTION('',(1.,0.,0.));
#1675=DIRECTION('',(-1.73472347597681E-15,1.,0.));
#1676=DIRECTION('',(1.,0.,0.));
#1677=DIRECTION('',(0.,-1.,0.));
#1678=DIRECTION('',(1.,0.,0.));
#1679=DIRECTION('',(0.,-1.,0.));
#1680=DIRECTION('',(-1.,0.,0.));
#1681=DIRECTION('',(-1.,0.,0.));
#1682=DIRECTION('',(0.,-1.,0.));
#1683=DIRECTION('',(0.,1.,0.));
#1684=DIRECTION('',(-1.,0.,0.));
#1685=DIRECTION('',(0.,-1.,0.));
#1686=DIRECTION('',(0.,1.,0.));
#1687=DIRECTION('',(-1.,0.,0.));
#1688=DIRECTION('',(0.,1.,0.));
#1689=DIRECTION('',(-1.,0.,0.));
#1690=DIRECTION('',(0.,-1.,0.));
#1691=DIRECTION('',(1.,0.,0.));
#1692=DIRECTION('',(0.,-1.,0.));
#1693=DIRECTION('',(0.,-1.,0.));
#1694=DIRECTION('',(1.,0.,0.));
#1695=DIRECTION('',(0.,1.,0.));
#1696=DIRECTION('',(0.,0.,1.));
#1697=DIRECTION('',(-0.58823529411765,0.808689828521617,0.));
#1698=DIRECTION('',(0.,1.,0.));
#1699=DIRECTION('',(0.,0.,1.));
#1700=DIRECTION('',(1.,0.,0.));
#1701=DIRECTION('',(0.,1.,0.));
#1702=DIRECTION('',(0.,0.,1.));
#1703=DIRECTION('',(1.,0.,0.));
#1704=DIRECTION('',(0.,1.,0.));
#1705=DIRECTION('',(0.,0.,1.));
#1706=DIRECTION('',(-1.,0.,0.));
#1707=DIRECTION('',(0.,1.,0.));
#1708=DIRECTION('',(0.,0.,1.));
#1709=DIRECTION('',(1.,0.,0.));
#1710=DIRECTION('',(0.,0.,-1.));
#1711=DIRECTION('',(1.,0.,0.));
#1712=DIRECTION('',(0.,0.,-1.));
#1713=DIRECTION('',(-1.4954512723938E-16,0.,-1.));
#1714=DIRECTION('',(-1.,0.,1.4954512723938E-16));
#1715=DIRECTION('',(0.,1.,0.));
#1716=DIRECTION('',(-1.,0.,1.4954512723938E-16));
#1717=DIRECTION('',(0.,1.,0.));
#1718=DIRECTION('',(0.,1.,0.));
#1719=DIRECTION('',(0.,0.,1.));
#1720=DIRECTION('',(0.,1.,0.));
#1721=DIRECTION('',(0.,0.,1.));
#1722=DIRECTION('',(0.,1.,0.));
#1723=DIRECTION('',(-1.4954512723938E-16,0.,-1.));
#1724=DIRECTION('',(-1.,0.,1.4954512723938E-16));
#1725=DIRECTION('',(-1.,0.,1.4954512723938E-16));
#1726=DIRECTION('',(0.,1.,0.));
#1727=DIRECTION('',(0.,1.,0.));
#1728=DIRECTION('',(0.,0.,1.));
#1729=DIRECTION('',(0.,1.,0.));
#1730=DIRECTION('',(0.,0.,1.));
#1731=DIRECTION('',(0.,-1.,0.));
#1732=DIRECTION('',(0.,0.,-1.));
#1733=DIRECTION('',(0.,0.,-1.));
#1734=DIRECTION('',(-1.,0.,0.));
#1735=DIRECTION('',(0.,0.,-1.));
#1736=DIRECTION('',(-1.,0.,0.));
#1737=DIRECTION('',(0.,0.,1.));
#1738=DIRECTION('',(0.,1.,0.));
#1739=DIRECTION('',(0.,0.,-1.));
#1740=DIRECTION('',(0.,0.,1.));
#1741=DIRECTION('',(1.,0.,0.));
#1742=DIRECTION('',(1.,0.,0.));
#1743=DIRECTION('',(-1.73472347597681E-15,1.,0.));
#1744=DIRECTION('',(0.,-1.,0.));
#1745=DIRECTION('',(-1.,0.,0.));
#1746=DIRECTION('',(0.,0.,1.));
#1747=DIRECTION('',(0.,1.,0.));
#1748=DIRECTION('',(0.,1.,0.));
#1749=DIRECTION('',(0.,0.,-1.));
#1750=DIRECTION('',(-1.,0.,0.));
#1751=DIRECTION('',(0.,0.,1.));
#1752=DIRECTION('',(0.,1.,0.));
#1753=DIRECTION('',(0.,0.,-1.));
#1754=DIRECTION('',(0.,1.,0.));
#1755=DIRECTION('',(0.,1.,0.));
#1756=DIRECTION('',(0.,0.,1.));
#1757=DIRECTION('',(0.,-1.,0.));
#1758=DIRECTION('',(1.,0.,0.));
#1759=DIRECTION('',(1.,0.,0.));
#1760=DIRECTION('',(1.,0.,0.));
#1761=DIRECTION('',(0.,0.,1.));
#1762=DIRECTION('',(1.,0.,0.));
#1763=DIRECTION('',(0.,0.,1.));
#1764=DIRECTION('',(1.,0.,0.));
#1765=DIRECTION('',(0.,-1.,0.));
#1766=DIRECTION('',(0.,0.,1.));
#1767=DIRECTION('',(1.,0.,0.));
#1768=DIRECTION('',(0.,-1.,0.));
#1769=DIRECTION('',(1.,0.,0.));
#1770=DIRECTION('',(0.,0.,-1.));
#1771=DIRECTION('',(0.,0.,-1.));
#1772=DIRECTION('',(0.,-1.,0.));
#1773=DIRECTION('',(0.,0.,1.));
#1774=DIRECTION('',(1.,0.,0.));
#1775=DIRECTION('',(0.,-1.,0.));
#1776=DIRECTION('',(-1.,0.,0.));
#1777=DIRECTION('',(0.,1.,0.));
#1778=DIRECTION('',(-1.,0.,0.));
#1779=DIRECTION('',(0.,1.,0.));
#1780=DIRECTION('',(-1.,0.,0.));
#1781=DIRECTION('',(0.,1.,0.));
#1782=DIRECTION('',(1.,0.,0.));
#1783=DIRECTION('',(0.,-1.,0.));
#1784=DIRECTION('',(0.,0.,-1.));
#1785=DIRECTION('',(0.,0.,-1.));
#1786=DIRECTION('',(-1.,0.,0.));
#1787=DIRECTION('',(0.,0.,-1.));
#1788=DIRECTION('',(-1.,0.,0.));
#1789=DIRECTION('',(0.,0.,1.));
#1790=DIRECTION('',(0.,0.,-1.));
#1791=DIRECTION('',(0.,1.,0.));
#1792=DIRECTION('',(0.,-1.,0.));
#1793=DIRECTION('',(0.,0.,-1.));
#1794=DIRECTION('',(0.,0.,-1.));
#1795=DIRECTION('',(-1.,0.,0.));
#1796=DIRECTION('',(1.,0.,0.));
#1797=DIRECTION('',(0.,0.,-1.));
#1798=DIRECTION('',(0.,-1.,0.));
#1799=DIRECTION('',(0.,0.,1.));
#1800=DIRECTION('',(1.,0.,0.));
#1801=DIRECTION('',(1.,0.,0.));
#1802=DIRECTION('',(0.,0.,-1.));
#1803=DIRECTION('',(0.,0.,-1.));
#1804=DIRECTION('',(0.,-1.,0.));
#1805=DIRECTION('',(0.,0.,-1.));
#1806=DIRECTION('',(0.,1.,0.));
#1807=DIRECTION('',(0.,0.,1.));
#1808=DIRECTION('',(0.,0.,-1.));
#1809=DIRECTION('',(1.,0.,0.));
#1810=DIRECTION('',(1.,0.,0.));
#1811=DIRECTION('',(0.,0.,-1.));
#1812=DIRECTION('',(0.,0.,-1.));
#1813=DIRECTION('',(0.,-1.,0.));
#1814=DIRECTION('',(0.,-1.,0.));
#1815=DIRECTION('',(0.,0.,-1.));
#1816=DIRECTION('',(-1.,0.,0.));
#1817=DIRECTION('',(0.,0.,1.));
#1818=DIRECTION('',(1.,0.,0.));
#1819=DIRECTION('',(0.,0.,-1.));
#1820=DIRECTION('',(-1.,0.,0.));
#1821=DIRECTION('',(0.,-1.,0.));
#1822=DIRECTION('',(-1.,0.,0.));
#1823=DIRECTION('',(0.,-1.,0.));
#1824=DIRECTION('',(1.,0.,0.));
#1825=DIRECTION('',(0.,-1.,0.));
#1826=DIRECTION('',(0.,0.,-1.));
#1827=DIRECTION('',(0.,1.,0.));
#1828=DIRECTION('',(0.,0.,1.));
#1829=DIRECTION('',(0.,-1.,0.));
#1830=DIRECTION('',(0.,-1.,0.));
#1831=DIRECTION('',(0.,0.,1.));
#1832=DIRECTION('',(0.,0.,-1.));
#1833=DIRECTION('',(-1.,0.,0.));
#1834=DIRECTION('',(1.,0.,0.));
#1835=DIRECTION('',(0.,-1.,0.));
#1836=DIRECTION('',(1.,0.,0.));
#1837=DIRECTION('',(0.,-1.,0.));
#1838=DIRECTION('',(0.,0.,-1.));
#1839=DIRECTION('',(0.,1.,0.));
#1840=DIRECTION('',(0.,0.,1.));
#1841=DIRECTION('',(0.,-1.,0.));
#1842=DIRECTION('',(0.,0.,-1.));
#1843=DIRECTION('',(0.,-1.,0.));
#1844=DIRECTION('',(1.,0.,0.));
#1845=DIRECTION('',(0.,-1.,0.));
#1846=DIRECTION('',(0.,0.,-1.));
#1847=DIRECTION('',(0.,0.707106781186547,-0.707106781186548));
#1848=DIRECTION('',(0.,-0.707106781186547,-0.707106781186548));
#1849=DIRECTION('',(0.,0.707106781186548,-0.707106781186547));
#1850=DIRECTION('',(1.,0.,0.));
#1851=DIRECTION('',(0.,-0.707106781186547,-0.707106781186548));
#1852=DIRECTION('',(0.,-0.707106781186548,-0.707106781186547));
#1853=DIRECTION('',(-1.,0.,0.));
#1854=DIRECTION('',(0.,0.707106781186547,-0.707106781186548));
#1855=DIRECTION('',(0.,-1.,0.));
#1856=DIRECTION('',(0.,0.,-1.));
#1857=DIRECTION('',(1.,0.,0.));
#1858=DIRECTION('',(0.,0.,-1.));
#1859=DIRECTION('',(0.,0.,-1.));
#1860=DIRECTION('',(0.,1.,0.));
#1861=DIRECTION('',(0.,0.,-1.));
#1862=DIRECTION('',(0.,-0.707106781186547,-0.707106781186548));
#1863=DIRECTION('',(0.,1.,0.));
#1864=DIRECTION('',(0.,0.,-1.));
#1865=DIRECTION('',(0.,-0.384615384615385,-0.923076923076923));
#1866=DIRECTION('',(0.,0.,-1.));
#1867=DIRECTION('',(0.,0.,1.));
#1868=DIRECTION('',(0.,-1.,0.));
#1869=DIRECTION('',(0.,0.,1.));
#1870=DIRECTION('',(1.,0.,0.));
#1871=DIRECTION('',(0.,0.,-1.));
#1872=DIRECTION('',(0.,0.,-1.));
#1873=DIRECTION('',(0.,0.384615384615385,0.923076923076923));
#1874=DIRECTION('',(0.,0.,-1.));
#1875=DIRECTION('',(0.,1.,0.));
#1876=DIRECTION('',(0.,0.,1.));
#1877=DIRECTION('',(-1.,0.,0.));
#1878=DIRECTION('',(-1.,-1.73472347597681E-15,0.));
#1879=DIRECTION('',(1.73472347597681E-15,-1.,0.));
#1880=DIRECTION('',(0.,0.,1.));
#1881=DIRECTION('',(-1.73472347597681E-15,1.,0.));
#1882=DIRECTION('',(0.,0.,1.));
#1883=DIRECTION('',(0.,0.,-1.));
#1884=DIRECTION('',(-6.67201336914157E-16,0.384615384615385,0.923076923076923));
#1885=DIRECTION('',(-1.73472347597681E-15,1.,0.));
#1886=DIRECTION('',(0.,0.,-1.));
#1887=DIRECTION('',(-1.73472347597681E-15,1.,0.));
#1888=DIRECTION('',(-1.2266347333467E-15,0.707106781186547,0.707106781186549));
#1889=DIRECTION('',(0.,0.,-1.));
#1890=DIRECTION('',(0.,1.,0.));
#1891=DIRECTION('',(0.,1.,0.));
#1892=DIRECTION('',(0.,0.,1.));
#1893=DIRECTION('',(0.,0.,-1.));
#1894=DIRECTION('',(-1.,0.,0.));
#1895=DIRECTION('',(1.,0.,0.));
#1896=DIRECTION('',(0.,0.,-1.));
#1897=DIRECTION('',(0.,-1.,0.));
#1898=DIRECTION('',(0.,-0.384615384615385,-0.923076923076923));
#1899=DIRECTION('',(0.,0.,-1.));
#1900=DIRECTION('',(-1.,-2.29006399468885E-16,0.));
#1901=DIRECTION('',(2.29006399468885E-16,-1.,0.));
#1902=DIRECTION('',(0.,0.,-1.));
#1903=DIRECTION('',(-2.29006399468885E-16,1.,0.));
#1904=DIRECTION('',(0.,0.,-1.));
#1905=DIRECTION('',(0.,0.,1.));
#1906=DIRECTION('',(1.,0.,0.));
#1907=DIRECTION('',(-1.,0.,0.));
#1908=DIRECTION('',(1.,0.,0.));
#1909=DIRECTION('',(1.,0.,0.));
#1910=DIRECTION('',(0.,-1.,0.));
#1911=DIRECTION('',(0.,0.,-1.));
#1912=DIRECTION('',(1.,0.,0.));
#1913=DIRECTION('',(0.,-1.,0.));
#1914=DIRECTION('',(0.,0.,-1.));
#1915=DIRECTION('',(1.,0.,0.));
#1916=DIRECTION('',(0.,0.,1.));
#1917=DIRECTION('',(1.,0.,0.));
#1918=DIRECTION('',(0.,-0.923076923076923,0.384615384615385));
#1919=DIRECTION('',(-1.,0.,0.));
#1920=DIRECTION('',(0.,-0.923076923076923,0.384615384615385));
#1921=DIRECTION('',(-1.,0.,0.));
#1922=DIRECTION('',(1.,0.,0.));
#1923=DIRECTION('',(0.,0.,-1.));
#1924=DIRECTION('',(0.,0.,1.));
#1925=DIRECTION('',(0.,0.,1.));
#1926=DIRECTION('',(0.,0.,1.));
#1927=DIRECTION('',(1.,0.,0.));
#1928=DIRECTION('',(0.,0.,1.));
#1929=DIRECTION('',(0.,0.,1.));
#1930=DIRECTION('',(1.,0.,0.));
#1931=DIRECTION('',(0.,0.,1.));
#1932=DIRECTION('',(1.,0.,0.));
#1933=DIRECTION('',(0.,0.,-1.));
#1934=DIRECTION('',(0.,-1.,0.));
#1935=DIRECTION('',(0.,0.,-1.));
#1936=DIRECTION('',(0.,-1.,0.));
#1937=DIRECTION('',(1.,0.,0.));
#1938=DIRECTION('',(1.,0.,0.));
#1939=DIRECTION('',(0.,0.,-1.));
#1940=DIRECTION('',(0.,0.,-1.));
#1941=DIRECTION('',(1.,0.,0.));
#1942=DIRECTION('',(0.,0.,-1.));
#1943=DIRECTION('',(0.,0.,-1.));
#1944=DIRECTION('',(0.,-1.,0.));
#1945=DIRECTION('',(1.,0.,0.));
#1946=DIRECTION('',(0.,-1.,0.));
#1947=DIRECTION('',(0.,0.,-1.));
#1948=DIRECTION('',(0.,1.,0.));
#1949=DIRECTION('',(0.,0.,1.));
#1950=DIRECTION('',(0.,-1.,0.));
#1951=DIRECTION('',(0.,0.,-1.));
#1952=DIRECTION('',(0.,-1.,0.));
#1953=DIRECTION('',(1.,0.,0.));
#1954=DIRECTION('',(0.,-1.,0.));
#1955=DIRECTION('',(0.,0.,-1.));
#1956=DIRECTION('',(0.,0.,-1.));
#1957=DIRECTION('',(-1.,0.,0.));
#1958=DIRECTION('',(-1.,0.,0.));
#1959=DIRECTION('',(0.,0.,1.));
#1960=DIRECTION('',(0.,0.,-1.));
#1961=DIRECTION('',(0.,-0.707106781186547,-0.707106781186549));
#1962=DIRECTION('',(0.,1.,0.));
#1963=DIRECTION('',(0.,1.,0.));
#1964=DIRECTION('',(0.,0.,1.));
#1965=DIRECTION('',(1.,0.,0.));
#1966=DIRECTION('',(1.,0.,0.));
#1967=DIRECTION('',(0.,0.,1.));
#1968=DIRECTION('',(1.,0.,0.));
#1969=DIRECTION('',(1.,0.,0.));
#1970=DIRECTION('',(0.,-1.,0.));
#1971=DIRECTION('',(1.,0.,0.));
#1972=DIRECTION('',(-1.,0.,0.));
#1973=DIRECTION('',(0.,0.707106781186549,-0.707106781186547));
#1974=DIRECTION('',(1.,0.,0.));
#1975=DIRECTION('',(0.,1.,0.));
#1976=DIRECTION('',(0.,0.,1.));
#1977=DIRECTION('',(0.,0.,-1.));
#1978=DIRECTION('',(-1.,0.,0.));
#1979=DIRECTION('',(-1.,0.,0.));
#1980=DIRECTION('',(0.,0.,1.));
#1981=DIRECTION('',(0.,1.,0.));
#1982=DIRECTION('',(0.,0.707106781186547,0.707106781186548));
#1983=DIRECTION('',(0.,0.,-1.));
#1984=DIRECTION('',(0.,1.,0.));
#1985=DIRECTION('',(0.,0.,-1.));
#1986=DIRECTION('',(0.,1.,0.));
#1987=DIRECTION('',(0.,0.,1.));
#1988=DIRECTION('',(1.,0.,0.));
#1989=DIRECTION('',(0.,0.,1.));
#1990=DIRECTION('',(-1.,0.,0.));
#1991=DIRECTION('',(1.,0.,0.));
#1992=DIRECTION('',(0.,0.,-1.));
#1993=DIRECTION('',(-1.,0.,0.));
#1994=DIRECTION('',(-1.,0.,0.));
#1995=DIRECTION('',(0.,-1.,0.));
#1996=DIRECTION('',(-1.,0.,0.));
#1997=DIRECTION('',(-1.,0.,0.));
#1998=DIRECTION('',(0.,0.707106781186548,-0.707106781186547));
#1999=DIRECTION('',(-1.,0.,0.));
#2000=DIRECTION('',(0.,-1.,0.));
#2001=DIRECTION('',(0.,0.,-1.));
#2002=DIRECTION('',(0.,1.,0.));
#2003=DIRECTION('',(0.,0.,1.));
#2004=CARTESIAN_POINT('',(0.,0.,0.));
#2005=CARTESIAN_POINT('',(0.0485,0.003,0.017));
#2006=CARTESIAN_POINT('',(0.0485,0.003,0.003));
#2007=CARTESIAN_POINT('',(0.0623,0.003,0.003));
#2008=CARTESIAN_POINT('',(0.094,0.003,0.003));
#2009=CARTESIAN_POINT('',(0.0623,0.003,0.024));
#2010=CARTESIAN_POINT('',(0.0623,0.003,0.017));
#2011=CARTESIAN_POINT('',(0.0485,0.003,0.017));
#2012=CARTESIAN_POINT('',(0.094,0.003,0.017));
#2013=CARTESIAN_POINT('',(0.094,0.003,0.017));
#2014=CARTESIAN_POINT('',(0.0593,0.01815,0.006));
#2015=CARTESIAN_POINT('',(0.0593,0.01815,0.006));
#2016=CARTESIAN_POINT('',(0.0593,0.0348,0.006));
#2017=CARTESIAN_POINT('',(0.0593,0.008,0.006));
#2018=CARTESIAN_POINT('',(0.0593,0.008,0.006));
#2019=CARTESIAN_POINT('',(0.0593,0.008,0.003));
#2020=CARTESIAN_POINT('',(0.0593,0.01815,0.003));
#2021=CARTESIAN_POINT('',(0.0593,0.0348,0.003));
#2022=CARTESIAN_POINT('',(0.0593,0.0348,0.006));
#2023=CARTESIAN_POINT('',(0.0485,0.003,0.017));
#2024=CARTESIAN_POINT('',(0.0514,0.003,0.0054));
#2025=CARTESIAN_POINT('',(0.0514,0.003,0.007));
#2026=CARTESIAN_POINT('',(0.0514,0.003,0.0038));
#2027=CARTESIAN_POINT('',(0.0485,0.003,0.007));
#2028=CARTESIAN_POINT('',(0.0456,0.003,0.007));
#2029=CARTESIAN_POINT('',(0.0456,0.003,0.0054));
#2030=CARTESIAN_POINT('',(0.0456,0.003,0.0038));
#2031=CARTESIAN_POINT('',(0.0485,0.003,0.0038));
#2032=CARTESIAN_POINT('',(0.0485,0.003,0.017));
#2033=CARTESIAN_POINT('',(0.0397,0.003,0.017));
#2034=CARTESIAN_POINT('',(0.0573,0.003,0.017));
#2035=CARTESIAN_POINT('',(0.0573,0.003,0.006));
#2036=CARTESIAN_POINT('',(0.0573,0.003,0.003));
#2037=CARTESIAN_POINT('',(0.0485,0.003,0.003));
#2038=CARTESIAN_POINT('',(0.0397,0.003,0.003));
#2039=CARTESIAN_POINT('',(0.0397,0.003,0.006));
#2040=CARTESIAN_POINT('',(0.0485,0.06375,0.006));
#2041=CARTESIAN_POINT('',(0.0573,0.0273,0.006));
#2042=CARTESIAN_POINT('',(0.0573,0.0323,0.006));
#2043=CARTESIAN_POINT('',(0.0573,0.008,0.006));
#2044=CARTESIAN_POINT('',(0.0598,0.008,0.006));
#2045=CARTESIAN_POINT('',(0.0573,0.0348,0.006));
#2046=CARTESIAN_POINT('',(0.0553,0.0348,0.006));
#2047=CARTESIAN_POINT('',(0.0553,0.0323,0.006));
#2048=CARTESIAN_POINT('',(0.0553,0.0323,0.006));
#2049=CARTESIAN_POINT('',(0.0573,0.0323,0.006));
#2050=CARTESIAN_POINT('',(0.0485,0.003,0.024));
#2051=CARTESIAN_POINT('',(0.0372,0.003,0.0215));
#2052=CARTESIAN_POINT('',(0.0347,0.003,0.0215));
#2053=CARTESIAN_POINT('',(0.0397,0.003,0.0215));
#2054=CARTESIAN_POINT('',(0.0347,0.003,0.024));
#2055=CARTESIAN_POINT('',(0.0347,0.003,0.017));
#2056=CARTESIAN_POINT('',(0.0485,0.003,0.017));
#2057=CARTESIAN_POINT('',(0.0397,0.003,0.024));
#2058=CARTESIAN_POINT('',(0.0485,0.003,0.017));
#2059=CARTESIAN_POINT('',(0.0347,0.003,0.024));
#2060=CARTESIAN_POINT('',(0.0347,0.003,0.003));
#2061=CARTESIAN_POINT('',(0.0485,0.003,0.003));
#2062=CARTESIAN_POINT('',(0.003,0.003,0.003));
#2063=CARTESIAN_POINT('',(0.003,0.003,0.017));
#2064=CARTESIAN_POINT('',(0.003,0.003,0.017));
#2065=CARTESIAN_POINT('',(0.0485,0.003,0.017));
#2066=CARTESIAN_POINT('',(0.0485,0.1245,0.017));
#2067=CARTESIAN_POINT('',(0.0485,0.1245,0.017));
#2068=CARTESIAN_POINT('',(0.091,0.1245,0.017));
#2069=CARTESIAN_POINT('',(0.0565,0.1245,0.017));
#2070=CARTESIAN_POINT('',(0.0565,0.1245,0.01));
#2071=CARTESIAN_POINT('',(0.0565,0.1245,0.003));
#2072=CARTESIAN_POINT('',(0.0485,0.1245,0.003));
#2073=CARTESIAN_POINT('',(0.091,0.1245,0.003));
#2074=CARTESIAN_POINT('',(0.091,0.1245,0.0257));
#2075=CARTESIAN_POINT('',(0.0485,0.06375,0.003));
#2076=CARTESIAN_POINT('',(0.0377,0.01815,0.003));
#2077=CARTESIAN_POINT('',(0.0377,0.008,0.003));
#2078=CARTESIAN_POINT('',(0.0377,0.0348,0.003));
#2079=CARTESIAN_POINT('',(0.0397,0.0348,0.003));
#2080=CARTESIAN_POINT('',(0.0417,0.0348,0.003));
#2081=CARTESIAN_POINT('',(0.0417,0.0323,0.003));
#2082=CARTESIAN_POINT('',(0.0417,0.0313,0.003));
#2083=CARTESIAN_POINT('',(0.0407,0.0313,0.003));
#2084=CARTESIAN_POINT('',(0.0397,0.0313,0.003));
#2085=CARTESIAN_POINT('',(0.0397,0.0273,0.003));
#2086=CARTESIAN_POINT('',(0.0397,0.0293,0.003));
#2087=CARTESIAN_POINT('',(0.0485,0.0293,0.003));
#2088=CARTESIAN_POINT('',(0.0573,0.0293,0.003));
#2089=CARTESIAN_POINT('',(0.0573,0.0273,0.003));
#2090=CARTESIAN_POINT('',(0.0573,0.0313,0.003));
#2091=CARTESIAN_POINT('',(0.0563,0.0313,0.003));
#2092=CARTESIAN_POINT('',(0.0553,0.0313,0.003));
#2093=CARTESIAN_POINT('',(0.0553,0.0323,0.003));
#2094=CARTESIAN_POINT('',(0.0553,0.0348,0.003));
#2095=CARTESIAN_POINT('',(0.0573,0.0348,0.003));
#2096=CARTESIAN_POINT('',(0.0598,0.008,0.003));
#2097=CARTESIAN_POINT('',(0.0623,0.008,0.003));
#2098=CARTESIAN_POINT('',(0.0623,0.0055,0.003));
#2099=CARTESIAN_POINT('',(0.094,0.06375,0.003));
#2100=CARTESIAN_POINT('',(0.094,0.1215,0.003));
#2101=CARTESIAN_POINT('',(0.0925,0.1215,0.003));
#2102=CARTESIAN_POINT('',(0.091,0.1215,0.003));
#2103=CARTESIAN_POINT('',(0.091,0.123,0.003));
#2104=CARTESIAN_POINT('',(0.0565,0.1205,0.003));
#2105=CARTESIAN_POINT('',(0.0565,0.1205,0.003));
#2106=CARTESIAN_POINT('',(0.0485,0.1205,0.003));
#2107=CARTESIAN_POINT('',(0.0405,0.1205,0.003));
#2108=CARTESIAN_POINT('',(0.0405,0.1205,0.003));
#2109=CARTESIAN_POINT('',(0.0405,0.1245,0.003));
#2110=CARTESIAN_POINT('',(0.0485,0.1245,0.003));
#2111=CARTESIAN_POINT('',(0.006,0.1245,0.003));
#2112=CARTESIAN_POINT('',(0.006,0.123,0.003));
#2113=CARTESIAN_POINT('',(0.006,0.1215,0.003));
#2114=CARTESIAN_POINT('',(0.0045,0.1215,0.003));
#2115=CARTESIAN_POINT('',(0.003,0.1215,0.003));
#2116=CARTESIAN_POINT('',(0.003,0.06375,0.003));
#2117=CARTESIAN_POINT('',(0.0347,0.0055,0.003));
#2118=CARTESIAN_POINT('',(0.0347,0.008,0.003));
#2119=CARTESIAN_POINT('',(0.0372,0.008,0.003));
#2120=CARTESIAN_POINT('',(0.051,0.105936931771217,0.003));
#2121=CARTESIAN_POINT('',(0.051,0.102936931771217,0.003));
#2122=CARTESIAN_POINT('',(0.051,0.108936931771217,0.003));
#2123=CARTESIAN_POINT('',(0.0485,0.0995,0.003));
#2124=CARTESIAN_POINT('',(0.046,0.102936931771217,0.003));
#2125=CARTESIAN_POINT('',(0.046,0.105936931771217,0.003));
#2126=CARTESIAN_POINT('',(0.046,0.108936931771217,0.003));
#2127=CARTESIAN_POINT('',(0.0485,0.108936931771217,0.003));
#2128=CARTESIAN_POINT('',(0.0485,0.,0.003));
#2129=CARTESIAN_POINT('',(0.05075,0.,0.0099));
#2130=CARTESIAN_POINT('',(0.04625,0.,0.0099));
#2131=CARTESIAN_POINT('',(0.05075,0.,0.0099));
#2132=CARTESIAN_POINT('',(0.05075,0.,0.0054));
#2133=CARTESIAN_POINT('',(0.05075,0.,0.0009));
#2134=CARTESIAN_POINT('',(0.0485,0.,0.0009));
#2135=CARTESIAN_POINT('',(0.04625,0.,0.0009));
#2136=CARTESIAN_POINT('',(0.04625,0.,0.0054));
#2137=CARTESIAN_POINT('',(0.0485,0.,0.));
#2138=CARTESIAN_POINT('',(0.,0.,0.));
#2139=CARTESIAN_POINT('',(0.097,0.,0.));
#2140=CARTESIAN_POINT('',(0.097,0.,0.003));
#2141=CARTESIAN_POINT('',(0.097,0.,0.017));
#2142=CARTESIAN_POINT('',(0.0485,0.,0.017));
#2143=CARTESIAN_POINT('',(0.,0.,0.017));
#2144=CARTESIAN_POINT('',(0.,0.,0.003));
#2145=CARTESIAN_POINT('',(0.0485,-0.022,0.007));
#2146=CARTESIAN_POINT('',(0.0514,-0.022,0.007));
#2147=CARTESIAN_POINT('',(0.0514,0.0016,0.007));
#2148=CARTESIAN_POINT('',(0.0485,0.0016,0.007));
#2149=CARTESIAN_POINT('',(0.0456,0.0016,0.007));
#2150=CARTESIAN_POINT('',(0.0456,-0.022,0.007));
#2151=CARTESIAN_POINT('',(0.0514,-0.022,0.0054));
#2152=CARTESIAN_POINT('',(0.0514,0.0016,0.0054));
#2153=CARTESIAN_POINT('',(0.0514,0.0016,0.0038));
#2154=CARTESIAN_POINT('',(0.0514,-0.022,0.0038));
#2155=CARTESIAN_POINT('',(0.0485,-0.022,0.0038));
#2156=CARTESIAN_POINT('',(0.0485,0.0016,0.0038));
#2157=CARTESIAN_POINT('',(0.0456,0.0016,0.0038));
#2158=CARTESIAN_POINT('',(0.0456,-0.022,0.0038));
#2159=CARTESIAN_POINT('',(0.0456,-0.022,0.0054));
#2160=CARTESIAN_POINT('',(0.0456,0.0016,0.0054));
#2161=CARTESIAN_POINT('',(0.0485,0.1245,0.017));
#2162=CARTESIAN_POINT('',(0.0405,0.1245,0.01));
#2163=CARTESIAN_POINT('',(0.0405,0.1245,0.017));
#2164=CARTESIAN_POINT('',(0.0485,0.1245,0.017));
#2165=CARTESIAN_POINT('',(0.006,0.1245,0.017));
#2166=CARTESIAN_POINT('',(0.006,0.1245,0.0257));
#2167=CARTESIAN_POINT('',(0.094,0.06375,0.017));
#2168=CARTESIAN_POINT('',(0.094,0.06375,0.017));
#2169=CARTESIAN_POINT('',(0.094,0.1215,0.017));
#2170=CARTESIAN_POINT('',(0.094,0.1215,0.0257));
#2171=CARTESIAN_POINT('',(0.0485,0.06375,0.003));
#2172=CARTESIAN_POINT('',(0.0485,0.0253,0.003));
#2173=CARTESIAN_POINT('',(0.0397,0.0253,0.003));
#2174=CARTESIAN_POINT('',(0.0573,0.0253,0.003));
#2175=CARTESIAN_POINT('',(0.0397,0.0273,0.003));
#2176=CARTESIAN_POINT('',(0.0573,0.0273,0.003));
#2177=CARTESIAN_POINT('',(0.,0.06375,0.003));
#2178=CARTESIAN_POINT('',(0.,0.06375,0.));
#2179=CARTESIAN_POINT('',(-2.08166817117217E-17,0.1275,0.));
#2180=CARTESIAN_POINT('',(0.,0.06375,0.017));
#2181=CARTESIAN_POINT('',(-2.08166817117217E-17,0.1275,0.017));
#2182=CARTESIAN_POINT('',(-2.08166817117217E-17,0.1275,0.003));
#2183=CARTESIAN_POINT('',(0.097,0.06375,0.003));
#2184=CARTESIAN_POINT('',(0.097,0.06375,0.));
#2185=CARTESIAN_POINT('',(0.097,0.1275,0.));
#2186=CARTESIAN_POINT('',(0.097,0.1275,0.003));
#2187=CARTESIAN_POINT('',(0.097,0.1275,0.017));
#2188=CARTESIAN_POINT('',(0.097,0.06375,0.017));
#2189=CARTESIAN_POINT('',(0.0485,0.1275,0.003));
#2190=CARTESIAN_POINT('',(0.0485,0.1275,0.00995272418623709));
#2191=CARTESIAN_POINT('',(0.054,0.1275,0.00995272418623709));
#2192=CARTESIAN_POINT('',(0.0485,0.1275,0.));
#2193=CARTESIAN_POINT('',(0.0485,0.1275,0.017));
#2194=CARTESIAN_POINT('',(0.0485,0.06375,0.));
#2195=CARTESIAN_POINT('',(0.0485,0.0995,0.));
#2196=CARTESIAN_POINT('',(0.051,0.102936931771217,0.));
#2197=CARTESIAN_POINT('',(0.046,0.102936931771217,0.));
#2198=CARTESIAN_POINT('',(0.051,0.105936931771217,0.));
#2199=CARTESIAN_POINT('',(0.051,0.108936931771217,0.));
#2200=CARTESIAN_POINT('',(0.0485,0.108936931771217,0.));
#2201=CARTESIAN_POINT('',(0.046,0.108936931771217,0.));
#2202=CARTESIAN_POINT('',(0.046,0.105936931771217,0.));
#2203=CARTESIAN_POINT('',(0.003,0.06375,0.017));
#2204=CARTESIAN_POINT('',(0.003,0.1215,0.0257));
#2205=CARTESIAN_POINT('',(0.003,0.1215,0.017));
#2206=CARTESIAN_POINT('',(0.003,0.06375,0.017));
#2207=CARTESIAN_POINT('',(0.0485,0.06375,0.017));
#2208=CARTESIAN_POINT('',(0.003,0.06375,0.017));
#2209=CARTESIAN_POINT('',(0.003,0.1245,0.017));
#2210=CARTESIAN_POINT('',(0.0485,0.1245,0.017));
#2211=CARTESIAN_POINT('',(0.0405,0.1205,0.017));
#2212=CARTESIAN_POINT('',(0.0405,0.1205,0.017));
#2213=CARTESIAN_POINT('',(0.0485,0.1205,0.017));
#2214=CARTESIAN_POINT('',(0.0565,0.1205,0.017));
#2215=CARTESIAN_POINT('',(0.0565,0.1205,0.017));
#2216=CARTESIAN_POINT('',(0.0485,0.1245,0.017));
#2217=CARTESIAN_POINT('',(0.094,0.1245,0.017));
#2218=CARTESIAN_POINT('',(0.094,0.06375,0.017));
#2219=CARTESIAN_POINT('',(0.0485,0.003,0.017));
#2220=CARTESIAN_POINT('',(0.0925,0.1215,0.0257));
#2221=CARTESIAN_POINT('',(0.094,0.1215,0.0257));
#2222=CARTESIAN_POINT('',(0.094,0.1215,0.0257));
#2223=CARTESIAN_POINT('',(0.0925,0.1215,0.0257));
#2224=CARTESIAN_POINT('',(0.091,0.1215,0.0257));
#2225=CARTESIAN_POINT('',(0.091,0.1215,0.0257));
#2226=CARTESIAN_POINT('',(0.094,0.06375,0.0257));
#2227=CARTESIAN_POINT('',(0.094,0.1245,0.0257));
#2228=CARTESIAN_POINT('',(0.094,0.1245,0.0257));
#2229=CARTESIAN_POINT('',(0.094,0.06375,0.0257));
#2230=CARTESIAN_POINT('',(0.0485,0.1245,0.0257));
#2231=CARTESIAN_POINT('',(0.091,0.1245,0.0257));
#2232=CARTESIAN_POINT('',(0.091,0.1245,0.0257));
#2233=CARTESIAN_POINT('',(0.0485,0.1245,0.0257));
#2234=CARTESIAN_POINT('',(0.091,0.123,0.0257));
#2235=CARTESIAN_POINT('',(0.091,0.123,0.0257));
#2236=CARTESIAN_POINT('',(0.0485,0.06375,0.0257));
#2237=CARTESIAN_POINT('',(0.003,0.06375,0.0257));
#2238=CARTESIAN_POINT('',(0.003,0.1215,0.0257));
#2239=CARTESIAN_POINT('',(0.003,0.1215,0.0257));
#2240=CARTESIAN_POINT('',(0.003,0.06375,0.0257));
#2241=CARTESIAN_POINT('',(0.003,0.1245,0.0257));
#2242=CARTESIAN_POINT('',(0.003,0.1245,0.0257));
#2243=CARTESIAN_POINT('',(0.0045,0.1215,0.0257));
#2244=CARTESIAN_POINT('',(0.006,0.1215,0.0257));
#2245=CARTESIAN_POINT('',(0.006,0.1215,0.0257));
#2246=CARTESIAN_POINT('',(0.0045,0.1215,0.0257));
#2247=CARTESIAN_POINT('',(0.006,0.123,0.0257));
#2248=CARTESIAN_POINT('',(0.006,0.1245,0.0257));
#2249=CARTESIAN_POINT('',(0.006,0.1245,0.0257));
#2250=CARTESIAN_POINT('',(0.006,0.123,0.0257));
#2251=CARTESIAN_POINT('',(0.0485,0.1245,0.0257));
#2252=CARTESIAN_POINT('',(0.0485,0.1245,0.0257));
#2253=CARTESIAN_POINT('',(0.0485,0.06375,0.0257));
#2254=CARTESIAN_POINT('',(0.0485,0.0016,0.0089));
#2255=CARTESIAN_POINT('',(0.05075,0.0016,0.0089));
#2256=CARTESIAN_POINT('',(0.05075,0.0016,0.0089));
#2257=CARTESIAN_POINT('',(0.05075,0.001,0.0089));
#2258=CARTESIAN_POINT('',(0.04625,0.001,0.0089));
#2259=CARTESIAN_POINT('',(0.04625,0.001,0.0089));
#2260=CARTESIAN_POINT('',(0.04625,0.0016,0.0089));
#2261=CARTESIAN_POINT('',(0.04625,0.0016,0.0089));
#2262=CARTESIAN_POINT('',(0.0485,0.0016,0.0089));
#2263=CARTESIAN_POINT('',(0.04625,0.0016,0.0054));
#2264=CARTESIAN_POINT('',(0.04625,0.001,0.0054));
#2265=CARTESIAN_POINT('',(0.04625,0.001,0.0019));
#2266=CARTESIAN_POINT('',(0.04625,0.0016,0.0019));
#2267=CARTESIAN_POINT('',(0.04625,0.0016,0.0019));
#2268=CARTESIAN_POINT('',(0.04625,0.0016,0.0054));
#2269=CARTESIAN_POINT('',(0.0485,0.0016,0.0019));
#2270=CARTESIAN_POINT('',(0.0485,0.001,0.0019));
#2271=CARTESIAN_POINT('',(0.05075,0.001,0.0019));
#2272=CARTESIAN_POINT('',(0.05075,0.0016,0.0019));
#2273=CARTESIAN_POINT('',(0.05075,0.0016,0.0019));
#2274=CARTESIAN_POINT('',(0.0485,0.0016,0.0019));
#2275=CARTESIAN_POINT('',(0.05075,0.0016,0.0054));
#2276=CARTESIAN_POINT('',(0.05075,0.001,0.0054));
#2277=CARTESIAN_POINT('',(0.05075,0.0016,0.0054));
#2278=CARTESIAN_POINT('',(0.0485,0.0016,0.0085));
#2279=CARTESIAN_POINT('',(0.04625,0.001,0.0054));
#2280=CARTESIAN_POINT('',(0.04625,0.,0.0099));
#2281=CARTESIAN_POINT('',(0.04625,0.001,0.0019));
#2282=CARTESIAN_POINT('',(0.0485,0.001,0.0019));
#2283=CARTESIAN_POINT('',(0.05075,0.001,0.0019));
#2284=CARTESIAN_POINT('',(0.0485,0.,0.0099));
#2285=CARTESIAN_POINT('',(0.05075,0.,0.0099));
#2286=CARTESIAN_POINT('',(0.05075,0.001,0.0054));
#2287=CARTESIAN_POINT('',(0.0573,0.0273,0.006));
#2288=CARTESIAN_POINT('',(0.0573,0.003,0.024));
#2289=CARTESIAN_POINT('',(0.0573,0.003,0.0215));
#2290=CARTESIAN_POINT('',(0.0573,0.001,0.0215));
#2291=CARTESIAN_POINT('',(0.0573,0.001,0.0215));
#2292=CARTESIAN_POINT('',(0.0573,0.001,0.02275));
#2293=CARTESIAN_POINT('',(0.0573,0.001,0.023));
#2294=CARTESIAN_POINT('',(0.0573,0.001,0.023));
#2295=CARTESIAN_POINT('',(0.0573,0.002,0.024));
#2296=CARTESIAN_POINT('',(0.0573,0.0055,0.024));
#2297=CARTESIAN_POINT('',(0.0573,0.008,0.024));
#2298=CARTESIAN_POINT('',(0.0573,0.008,0.024));
#2299=CARTESIAN_POINT('',(0.0573,0.0315603550295858,0.00422485207100591));
#2300=CARTESIAN_POINT('',(0.0573,0.0313,0.0036));
#2301=CARTESIAN_POINT('',(0.0573,0.0313,0.006));
#2302=CARTESIAN_POINT('',(0.0573,0.0293,0.0017));
#2303=CARTESIAN_POINT('',(0.0573,0.0293,0.0017));
#2304=CARTESIAN_POINT('',(0.0573,0.0273,0.0017));
#2305=CARTESIAN_POINT('',(0.0573,0.0253,0.0017));
#2306=CARTESIAN_POINT('',(0.0573,0.0253,0.0017));
#2307=CARTESIAN_POINT('',(0.0553,0.0323,0.006));
#2308=CARTESIAN_POINT('',(0.0553,0.0313,0.006));
#2309=CARTESIAN_POINT('',(0.0553,0.0313,0.0036));
#2310=CARTESIAN_POINT('',(0.0553,0.0323,0.006));
#2311=CARTESIAN_POINT('',(0.0553,0.0348,0.006));
#2312=CARTESIAN_POINT('',(0.0563,0.0313,0.006));
#2313=CARTESIAN_POINT('',(0.0553,0.0313,0.0036));
#2314=CARTESIAN_POINT('',(0.0397,0.0273,0.006));
#2315=CARTESIAN_POINT('',(0.0397,0.0253,0.0017));
#2316=CARTESIAN_POINT('',(0.0397,0.0253,0.0017));
#2317=CARTESIAN_POINT('',(0.0397,0.0273,0.0017));
#2318=CARTESIAN_POINT('',(0.0397,0.0293,0.0017));
#2319=CARTESIAN_POINT('',(0.0397,0.0293,0.0017));
#2320=CARTESIAN_POINT('',(0.0397,0.0313,0.006));
#2321=CARTESIAN_POINT('',(0.0397,0.0313,0.0036));
#2322=CARTESIAN_POINT('',(0.0397,0.0315603550295858,0.00422485207100591));
#2323=CARTESIAN_POINT('',(0.0397,0.0323,0.006));
#2324=CARTESIAN_POINT('',(0.0397,0.0273,0.006));
#2325=CARTESIAN_POINT('',(0.0397,0.008,0.006));
#2326=CARTESIAN_POINT('',(0.0397,0.008,0.024));
#2327=CARTESIAN_POINT('',(0.0397,0.008,0.024));
#2328=CARTESIAN_POINT('',(0.0397,0.0273,0.024));
#2329=CARTESIAN_POINT('',(0.0397,0.002,0.024));
#2330=CARTESIAN_POINT('',(0.0397,0.002,0.024));
#2331=CARTESIAN_POINT('',(0.0397,0.001,0.023));
#2332=CARTESIAN_POINT('',(0.0397,0.001,0.024));
#2333=CARTESIAN_POINT('',(0.0397,0.001,0.0215));
#2334=CARTESIAN_POINT('',(0.0397,0.001,0.0215));
#2335=CARTESIAN_POINT('',(0.0407,0.0313,0.006));
#2336=CARTESIAN_POINT('',(0.0417,0.0313,0.006));
#2337=CARTESIAN_POINT('',(0.0417,0.0313,0.0036));
#2338=CARTESIAN_POINT('',(0.0397,0.0313,0.0036));
#2339=CARTESIAN_POINT('',(0.0417,0.0323,0.006));
#2340=CARTESIAN_POINT('',(0.0417,0.0323,0.006));
#2341=CARTESIAN_POINT('',(0.0417,0.0348,0.006));
#2342=CARTESIAN_POINT('',(0.0417,0.0323,0.006));
#2343=CARTESIAN_POINT('',(0.0417,0.0323,0.006));
#2344=CARTESIAN_POINT('',(0.0417,0.0348,0.006));
#2345=CARTESIAN_POINT('',(0.0377,0.01815,0.006));
#2346=CARTESIAN_POINT('',(0.0377,0.008,0.006));
#2347=CARTESIAN_POINT('',(0.0377,0.008,0.006));
#2348=CARTESIAN_POINT('',(0.0377,0.01815,0.006));
#2349=CARTESIAN_POINT('',(0.0377,0.0348,0.006));
#2350=CARTESIAN_POINT('',(0.0377,0.0348,0.006));
#2351=CARTESIAN_POINT('',(0.0485,0.06375,0.006));
#2352=CARTESIAN_POINT('',(0.0372,0.008,0.006));
#2353=CARTESIAN_POINT('',(0.0417,0.0323,0.006));
#2354=CARTESIAN_POINT('',(0.0397,0.0348,0.006));
#2355=CARTESIAN_POINT('',(0.0485,0.0253,0.0017));
#2356=CARTESIAN_POINT('',(0.0485,0.0253,0.0017));
#2357=CARTESIAN_POINT('',(0.0485,0.0293,0.0017));
#2358=CARTESIAN_POINT('',(0.0485,0.0293,0.0017));
#2359=CARTESIAN_POINT('',(0.0485,0.0273,0.0017));
#2360=CARTESIAN_POINT('',(0.0485,0.0323,0.006));
#2361=CARTESIAN_POINT('',(0.0485,0.0323,0.006));
#2362=CARTESIAN_POINT('',(0.046,0.105936931771217,-1.99999999999983E-6));
#2363=CARTESIAN_POINT('',(0.046,0.108936931771217,-1.99999999999983E-6));
#2364=CARTESIAN_POINT('',(0.046,0.102936931771217,-1.99999999999983E-6));
#2365=CARTESIAN_POINT('',(0.0485,0.108936931771217,-1.99999999999983E-6));
#2366=CARTESIAN_POINT('',(0.051,0.108936931771217,-1.99999999999983E-6));
#2367=CARTESIAN_POINT('',(0.0485,0.0995,-1.99999999999983E-6));
#2368=CARTESIAN_POINT('',(0.051,0.102936931771217,-1.99999999999983E-6));
#2369=CARTESIAN_POINT('',(0.051,0.105936931771217,-1.99999999999983E-6));
#2370=CARTESIAN_POINT('',(0.0485,0.1275,0.00995272418623709));
#2371=CARTESIAN_POINT('',(0.0485,0.1235,0.00995272418623709));
#2372=CARTESIAN_POINT('',(0.054,0.1235,0.00995272418623709));
#2373=CARTESIAN_POINT('',(0.0405,0.1205,0.01));
#2374=CARTESIAN_POINT('',(0.0405,0.1205,0.01));
#2375=CARTESIAN_POINT('',(0.0565,0.1205,0.01));
#2376=CARTESIAN_POINT('',(0.0565,0.1205,0.01));
#2377=CARTESIAN_POINT('',(0.0485,0.1205,0.01));
#2378=CARTESIAN_POINT('',(0.0485,0.1205,0.00995272418623709));
#2379=CARTESIAN_POINT('',(0.0485,0.1205,0.00715272418623709));
#2380=CARTESIAN_POINT('',(0.0485,0.120498,0.00995272418623709));
#2381=CARTESIAN_POINT('',(0.0485,0.1235,0.00995272418623709));
#2382=CARTESIAN_POINT('',(0.0485,0.1235,0.00715272418623709));
#2383=CARTESIAN_POINT('',(0.0485,0.1235,0.01));
#2384=CARTESIAN_POINT('',(0.0372,0.008,0.024));
#2385=CARTESIAN_POINT('',(0.0347,0.008,0.024));
#2386=CARTESIAN_POINT('',(0.0347,0.008,0.024));
#2387=CARTESIAN_POINT('',(0.0372,0.008,0.024));
#2388=CARTESIAN_POINT('',(0.0347,0.0055,0.024));
#2389=CARTESIAN_POINT('',(0.0347,0.001,0.024));
#2390=CARTESIAN_POINT('',(0.0347,0.001,0.023));
#2391=CARTESIAN_POINT('',(0.0347,0.001,0.0215));
#2392=CARTESIAN_POINT('',(0.0347,0.00375,0.02575));
#2393=CARTESIAN_POINT('',(0.0347,0.002,0.024));
#2394=CARTESIAN_POINT('',(0.0347,0.0055,0.024));
#2395=CARTESIAN_POINT('',(0.0347,0.001,0.0215));
#2396=CARTESIAN_POINT('',(0.0382,0.01815,0.024));
#2397=CARTESIAN_POINT('',(0.0382,0.002,0.024));
#2398=CARTESIAN_POINT('',(0.0372,0.001,0.0215));
#2399=CARTESIAN_POINT('',(0.0372,0.001,0.0215));
#2400=CARTESIAN_POINT('',(0.0372,0.001,0.0205));
#2401=CARTESIAN_POINT('',(0.0372,0.001,0.023));
#2402=CARTESIAN_POINT('',(0.0382,0.002,0.024));
#2403=CARTESIAN_POINT('',(0.0598,0.003,0.024));
#2404=CARTESIAN_POINT('',(0.0623,0.003,0.024));
#2405=CARTESIAN_POINT('',(0.0623,0.003,0.0215));
#2406=CARTESIAN_POINT('',(0.0598,0.003,0.0215));
#2407=CARTESIAN_POINT('',(0.0623,0.0055,0.024));
#2408=CARTESIAN_POINT('',(0.0623,0.0055,0.024));
#2409=CARTESIAN_POINT('',(0.0623,0.002,0.024));
#2410=CARTESIAN_POINT('',(0.0623,0.008,0.024));
#2411=CARTESIAN_POINT('',(0.0623,0.001,0.023));
#2412=CARTESIAN_POINT('',(0.0623,0.001,0.023));
#2413=CARTESIAN_POINT('',(0.0623,0.001,0.02275));
#2414=CARTESIAN_POINT('',(0.0623,0.001,0.0215));
#2415=CARTESIAN_POINT('',(0.0623,0.001,0.0215));
#2416=CARTESIAN_POINT('',(0.0623,0.008,0.024));
#2417=CARTESIAN_POINT('',(0.0598,0.008,0.024));
#2418=CARTESIAN_POINT('',(0.0598,0.008,0.024));
#2419=CARTESIAN_POINT('',(0.0598,0.0055,0.024));
#2420=CARTESIAN_POINT('',(0.0598,0.002,0.024));
#2421=CARTESIAN_POINT('',(0.0598,0.001,0.0215));
#2422=CARTESIAN_POINT('',(0.0598,0.001,0.0215));
#2423=CARTESIAN_POINT('',(0.0598,0.001,0.02275));
#2424=CARTESIAN_POINT('',(0.0598,0.001,0.023));
#2425=CARTESIAN_POINT('',(0.0598,0.001,0.023));
#2426=CARTESIAN_POINT('',(0.0573,0.0348,0.006));
#2427=CARTESIAN_POINT('',(0.0397,0.0348,0.006));
#2428=MECHANICAL_DESIGN_GEOMETRIC_PRESENTATION_REPRESENTATION('',(#1509),
#2429);
#2429=(
GEOMETRIC_REPRESENTATION_CONTEXT(3)
GLOBAL_UNCERTAINTY_ASSIGNED_CONTEXT((#2430))
GLOBAL_UNIT_ASSIGNED_CONTEXT((#2433,#2432,#2431))
REPRESENTATION_CONTEXT('Part 1','TOP_LEVEL_ASSEMBLY_PART')
);
#2430=UNCERTAINTY_MEASURE_WITH_UNIT(LENGTH_MEASURE(1.E-8),#2433,
'DISTANCE_ACCURACY_VALUE','Maximum Tolerance applied to model');
#2431=(
NAMED_UNIT(*)
SI_UNIT($,.STERADIAN.)
SOLID_ANGLE_UNIT()
);
#2432=(
NAMED_UNIT(*)
PLANE_ANGLE_UNIT()
SI_UNIT($,.RADIAN.)
);
#2433=(
LENGTH_UNIT()
NAMED_UNIT(*)
SI_UNIT($,.METRE.)
);
#2434=PRODUCT_DEFINITION_SHAPE('','',#2435);
#2435=PRODUCT_DEFINITION('','',#2437,#2436);
#2436=PRODUCT_DEFINITION_CONTEXT('',#2443,'design');
#2437=PRODUCT_DEFINITION_FORMATION_WITH_SPECIFIED_SOURCE('','',#2439,
 .NOT_KNOWN.);
#2438=PRODUCT_RELATED_PRODUCT_CATEGORY('','',(#2439));
#2439=PRODUCT('Part 1','Part 1','Part 1',(#2441));
#2440=PRODUCT_CATEGORY('','');
#2441=PRODUCT_CONTEXT('',#2443,'mechanical');
#2442=APPLICATION_PROTOCOL_DEFINITION('international standard',
'ap242_managed_model_based_3d_engineering',2020,#2443);
#2443=APPLICATION_CONTEXT('managed model based 3d engineering');
ENDSEC;
END-ISO-10303-21;
