ISO-10303-21;
HEADER;
/* Generated by software containing ST-Developer
 * from STEP Tools, Inc. (www.steptools.com) 
 */
/* OPTION: using custom renumber hook */

FILE_DESCRIPTION(
/* description */ ('STEP AP242 Edition 2',
'CAx-IF Rec.Pracs.---Representation and Presentation of Product Manufa
cturing Information (PMI)---4.0---2014-10-13',
'CAx-IF Rec.Pracs.---3D Tessellated Geometry---0.4---2014-09-14','2;1',
'CAx-IF Rec.Pracs.---User Defined Attributes---1.5---2016-08-15'),
/* implementation_level */ '2;1');

FILE_NAME(
/* name */ 'Part Studio 1',
/* time_stamp */ '2026-10-10T15:51:42Z',
/* author */ (''),
/* organization */ (''),
/* preprocessor_version */ 'ST-DEVELOPER v20',
/* originating_system */ 'ONSHAPE BY PTC INC, 1.222',
/* authorisation */ '  ');

FILE_SCHEMA (('AP242_MANAGED_MODEL_BASED_3D_ENGINEERING_MIM_LF { 1 0 10303 442 3 1 4 }'));
ENDSEC;

DATA;
#10=SHAPE_REPRESENTATION_RELATIONSHIP('','',#572,#11);
#11=ADVANCED_BREP_SHAPE_REPRESENTATION('',(#570),#894);
#12=ORIENTED_EDGE('',*,*,#166,.F.);
#13=ORIENTED_EDGE('',*,*,#167,.T.);
#14=ORIENTED_EDGE('',*,*,#168,.T.);
#15=ORIENTED_EDGE('',*,*,#169,.T.);
#16=ORIENTED_EDGE('',*,*,#170,.T.);
#17=ORIENTED_EDGE('',*,*,#171,.T.);
#18=ORIENTED_EDGE('',*,*,#172,.T.);
#19=ORIENTED_EDGE('',*,*,#173,.T.);
#20=ORIENTED_EDGE('',*,*,#174,.F.);
#21=ORIENTED_EDGE('',*,*,#175,.T.);
#22=ORIENTED_EDGE('',*,*,#176,.T.);
#23=ORIENTED_EDGE('',*,*,#177,.T.);
#24=ORIENTED_EDGE('',*,*,#178,.T.);
#25=ORIENTED_EDGE('',*,*,#169,.F.);
#26=ORIENTED_EDGE('',*,*,#179,.F.);
#27=ORIENTED_EDGE('',*,*,#180,.T.);
#28=ORIENTED_EDGE('',*,*,#181,.T.);
#29=ORIENTED_EDGE('',*,*,#182,.F.);
#30=ORIENTED_EDGE('',*,*,#183,.F.);
#31=ORIENTED_EDGE('',*,*,#184,.T.);
#32=ORIENTED_EDGE('',*,*,#185,.T.);
#33=ORIENTED_EDGE('',*,*,#186,.T.);
#34=ORIENTED_EDGE('',*,*,#187,.T.);
#35=ORIENTED_EDGE('',*,*,#188,.T.);
#36=ORIENTED_EDGE('',*,*,#189,.T.);
#37=ORIENTED_EDGE('',*,*,#190,.F.);
#38=ORIENTED_EDGE('',*,*,#191,.T.);
#39=ORIENTED_EDGE('',*,*,#192,.T.);
#40=ORIENTED_EDGE('',*,*,#193,.T.);
#41=ORIENTED_EDGE('',*,*,#194,.F.);
#42=ORIENTED_EDGE('',*,*,#195,.F.);
#43=ORIENTED_EDGE('',*,*,#196,.T.);
#44=ORIENTED_EDGE('',*,*,#179,.T.);
#45=ORIENTED_EDGE('',*,*,#197,.F.);
#46=ORIENTED_EDGE('',*,*,#198,.F.);
#47=ORIENTED_EDGE('',*,*,#199,.T.);
#48=ORIENTED_EDGE('',*,*,#200,.T.);
#49=ORIENTED_EDGE('',*,*,#181,.F.);
#50=ORIENTED_EDGE('',*,*,#201,.F.);
#51=ORIENTED_EDGE('',*,*,#202,.T.);
#52=ORIENTED_EDGE('',*,*,#203,.F.);
#53=ORIENTED_EDGE('',*,*,#204,.T.);
#54=ORIENTED_EDGE('',*,*,#205,.F.);
#55=ORIENTED_EDGE('',*,*,#206,.T.);
#56=ORIENTED_EDGE('',*,*,#207,.F.);
#57=ORIENTED_EDGE('',*,*,#208,.T.);
#58=ORIENTED_EDGE('',*,*,#209,.T.);
#59=ORIENTED_EDGE('',*,*,#210,.F.);
#60=ORIENTED_EDGE('',*,*,#177,.F.);
#61=ORIENTED_EDGE('',*,*,#211,.F.);
#62=ORIENTED_EDGE('',*,*,#195,.T.);
#63=ORIENTED_EDGE('',*,*,#212,.T.);
#64=ORIENTED_EDGE('',*,*,#199,.F.);
#65=ORIENTED_EDGE('',*,*,#213,.T.);
#66=ORIENTED_EDGE('',*,*,#174,.T.);
#67=ORIENTED_EDGE('',*,*,#168,.F.);
#68=ORIENTED_EDGE('',*,*,#214,.T.);
#69=ORIENTED_EDGE('',*,*,#210,.T.);
#70=ORIENTED_EDGE('',*,*,#215,.F.);
#71=ORIENTED_EDGE('',*,*,#216,.T.);
#72=ORIENTED_EDGE('',*,*,#217,.F.);
#73=ORIENTED_EDGE('',*,*,#218,.F.);
#74=ORIENTED_EDGE('',*,*,#219,.F.);
#75=ORIENTED_EDGE('',*,*,#202,.F.);
#76=ORIENTED_EDGE('',*,*,#220,.T.);
#77=ORIENTED_EDGE('',*,*,#221,.F.);
#78=ORIENTED_EDGE('',*,*,#222,.F.);
#79=ORIENTED_EDGE('',*,*,#171,.F.);
#80=ORIENTED_EDGE('',*,*,#223,.F.);
#81=ORIENTED_EDGE('',*,*,#224,.T.);
#82=ORIENTED_EDGE('',*,*,#166,.T.);
#83=ORIENTED_EDGE('',*,*,#178,.F.);
#84=ORIENTED_EDGE('',*,*,#225,.F.);
#85=ORIENTED_EDGE('',*,*,#218,.T.);
#86=ORIENTED_EDGE('',*,*,#226,.T.);
#87=ORIENTED_EDGE('',*,*,#193,.F.);
#88=ORIENTED_EDGE('',*,*,#216,.F.);
#89=ORIENTED_EDGE('',*,*,#227,.T.);
#90=ORIENTED_EDGE('',*,*,#183,.T.);
#91=ORIENTED_EDGE('',*,*,#228,.F.);
#92=ORIENTED_EDGE('',*,*,#227,.F.);
#93=ORIENTED_EDGE('',*,*,#215,.T.);
#94=ORIENTED_EDGE('',*,*,#209,.F.);
#95=ORIENTED_EDGE('',*,*,#229,.T.);
#96=ORIENTED_EDGE('',*,*,#184,.F.);
#97=ORIENTED_EDGE('',*,*,#219,.T.);
#98=ORIENTED_EDGE('',*,*,#225,.T.);
#99=ORIENTED_EDGE('',*,*,#192,.F.);
#100=ORIENTED_EDGE('',*,*,#230,.T.);
#101=ORIENTED_EDGE('',*,*,#203,.T.);
#102=ORIENTED_EDGE('',*,*,#231,.F.);
#103=ORIENTED_EDGE('',*,*,#223,.T.);
#104=ORIENTED_EDGE('',*,*,#170,.F.);
#105=ORIENTED_EDGE('',*,*,#232,.T.);
#106=ORIENTED_EDGE('',*,*,#207,.T.);
#107=ORIENTED_EDGE('',*,*,#188,.F.);
#108=ORIENTED_EDGE('',*,*,#233,.T.);
#109=ORIENTED_EDGE('',*,*,#172,.F.);
#110=ORIENTED_EDGE('',*,*,#222,.T.);
#111=ORIENTED_EDGE('',*,*,#234,.T.);
#112=ORIENTED_EDGE('',*,*,#201,.T.);
#113=ORIENTED_EDGE('',*,*,#235,.T.);
#114=ORIENTED_EDGE('',*,*,#190,.T.);
#115=ORIENTED_EDGE('',*,*,#236,.F.);
#116=ORIENTED_EDGE('',*,*,#220,.F.);
#117=ORIENTED_EDGE('',*,*,#221,.T.);
#118=ORIENTED_EDGE('',*,*,#236,.T.);
#119=ORIENTED_EDGE('',*,*,#189,.F.);
#120=ORIENTED_EDGE('',*,*,#234,.F.);
#121=ORIENTED_EDGE('',*,*,#235,.F.);
#122=ORIENTED_EDGE('',*,*,#204,.F.);
#123=ORIENTED_EDGE('',*,*,#230,.F.);
#124=ORIENTED_EDGE('',*,*,#191,.F.);
#125=ORIENTED_EDGE('',*,*,#233,.F.);
#126=ORIENTED_EDGE('',*,*,#187,.F.);
#127=ORIENTED_EDGE('',*,*,#237,.F.);
#128=ORIENTED_EDGE('',*,*,#173,.F.);
#129=ORIENTED_EDGE('',*,*,#237,.T.);
#130=ORIENTED_EDGE('',*,*,#186,.F.);
#131=ORIENTED_EDGE('',*,*,#238,.F.);
#132=ORIENTED_EDGE('',*,*,#232,.F.);
#133=ORIENTED_EDGE('',*,*,#238,.T.);
#134=ORIENTED_EDGE('',*,*,#185,.F.);
#135=ORIENTED_EDGE('',*,*,#229,.F.);
#136=ORIENTED_EDGE('',*,*,#208,.F.);
#137=ORIENTED_EDGE('',*,*,#231,.T.);
#138=ORIENTED_EDGE('',*,*,#206,.F.);
#139=ORIENTED_EDGE('',*,*,#239,.F.);
#140=ORIENTED_EDGE('',*,*,#224,.F.);
#141=ORIENTED_EDGE('',*,*,#240,.F.);
#142=ORIENTED_EDGE('',*,*,#241,.T.);
#143=ORIENTED_EDGE('',*,*,#214,.F.);
#144=ORIENTED_EDGE('',*,*,#167,.F.);
#145=ORIENTED_EDGE('',*,*,#239,.T.);
#146=ORIENTED_EDGE('',*,*,#205,.T.);
#147=ORIENTED_EDGE('',*,*,#176,.F.);
#148=ORIENTED_EDGE('',*,*,#242,.F.);
#149=ORIENTED_EDGE('',*,*,#240,.T.);
#150=ORIENTED_EDGE('',*,*,#241,.F.);
#151=ORIENTED_EDGE('',*,*,#242,.T.);
#152=ORIENTED_EDGE('',*,*,#175,.F.);
#153=ORIENTED_EDGE('',*,*,#213,.F.);
#154=ORIENTED_EDGE('',*,*,#180,.F.);
#155=ORIENTED_EDGE('',*,*,#196,.F.);
#156=ORIENTED_EDGE('',*,*,#211,.T.);
#157=ORIENTED_EDGE('',*,*,#198,.T.);
#158=ORIENTED_EDGE('',*,*,#226,.F.);
#159=ORIENTED_EDGE('',*,*,#217,.T.);
#160=ORIENTED_EDGE('',*,*,#228,.T.);
#161=ORIENTED_EDGE('',*,*,#182,.T.);
#162=ORIENTED_EDGE('',*,*,#200,.F.);
#163=ORIENTED_EDGE('',*,*,#212,.F.);
#164=ORIENTED_EDGE('',*,*,#197,.T.);
#165=ORIENTED_EDGE('',*,*,#194,.T.);
#166=EDGE_CURVE('',#243,#244,#293,.T.);
#167=EDGE_CURVE('',#243,#245,#294,.T.);
#168=EDGE_CURVE('',#245,#246,#295,.T.);
#169=EDGE_CURVE('',#246,#244,#296,.T.);
#170=EDGE_CURVE('',#247,#248,#297,.T.);
#171=EDGE_CURVE('',#248,#249,#298,.T.);
#172=EDGE_CURVE('',#249,#250,#299,.T.);
#173=EDGE_CURVE('',#250,#247,#300,.T.);
#174=EDGE_CURVE('',#251,#246,#301,.T.);
#175=EDGE_CURVE('',#251,#252,#302,.T.);
#176=EDGE_CURVE('',#252,#253,#303,.T.);
#177=EDGE_CURVE('',#253,#254,#304,.T.);
#178=EDGE_CURVE('',#254,#244,#305,.T.);
#179=EDGE_CURVE('',#255,#256,#306,.T.);
#180=EDGE_CURVE('',#255,#257,#307,.T.);
#181=EDGE_CURVE('',#257,#258,#308,.T.);
#182=EDGE_CURVE('',#259,#258,#309,.T.);
#183=EDGE_CURVE('',#260,#259,#310,.T.);
#184=EDGE_CURVE('',#260,#261,#311,.T.);
#185=EDGE_CURVE('',#261,#262,#312,.T.);
#186=EDGE_CURVE('',#262,#263,#313,.T.);
#187=EDGE_CURVE('',#263,#264,#314,.T.);
#188=EDGE_CURVE('',#264,#265,#315,.T.);
#189=EDGE_CURVE('',#265,#266,#316,.T.);
#190=EDGE_CURVE('',#267,#266,#317,.T.);
#191=EDGE_CURVE('',#267,#268,#318,.T.);
#192=EDGE_CURVE('',#268,#269,#319,.T.);
#193=EDGE_CURVE('',#269,#270,#320,.T.);
#194=EDGE_CURVE('',#256,#270,#321,.T.);
#195=EDGE_CURVE('',#271,#272,#322,.T.);
#196=EDGE_CURVE('',#271,#255,#323,.T.);
#197=EDGE_CURVE('',#272,#256,#324,.T.);
#198=EDGE_CURVE('',#273,#257,#325,.T.);
#199=EDGE_CURVE('',#273,#274,#326,.T.);
#200=EDGE_CURVE('',#274,#258,#327,.T.);
#201=EDGE_CURVE('',#275,#276,#328,.T.);
#202=EDGE_CURVE('',#275,#277,#329,.T.);
#203=EDGE_CURVE('',#278,#277,#330,.T.);
#204=EDGE_CURVE('',#278,#276,#331,.T.);
#205=EDGE_CURVE('',#279,#253,#332,.T.);
#206=EDGE_CURVE('',#279,#280,#333,.T.);
#207=EDGE_CURVE('',#281,#280,#334,.T.);
#208=EDGE_CURVE('',#281,#282,#335,.T.);
#209=EDGE_CURVE('',#282,#283,#336,.T.);
#210=EDGE_CURVE('',#254,#283,#337,.T.);
#211=EDGE_CURVE('',#271,#273,#338,.T.);
#212=EDGE_CURVE('',#272,#274,#339,.T.);
#213=EDGE_CURVE('',#284,#251,#340,.T.);
#214=EDGE_CURVE('',#245,#284,#341,.T.);
#215=EDGE_CURVE('',#285,#283,#342,.T.);
#216=EDGE_CURVE('',#285,#286,#343,.T.);
#217=EDGE_CURVE('',#287,#286,#344,.T.);
#218=EDGE_CURVE('',#288,#287,#345,.T.);
#219=EDGE_CURVE('',#277,#288,#346,.T.);
#220=EDGE_CURVE('',#275,#289,#347,.T.);
#221=EDGE_CURVE('',#290,#289,#348,.T.);
#222=EDGE_CURVE('',#249,#290,#349,.T.);
#223=EDGE_CURVE('',#291,#248,#350,.T.);
#224=EDGE_CURVE('',#291,#243,#351,.T.);
#225=EDGE_CURVE('',#288,#269,#352,.T.);
#226=EDGE_CURVE('',#287,#270,#353,.T.);
#227=EDGE_CURVE('',#285,#260,#354,.T.);
#228=EDGE_CURVE('',#286,#259,#355,.T.);
#229=EDGE_CURVE('',#282,#261,#356,.T.);
#230=EDGE_CURVE('',#268,#278,#357,.F.);
#231=EDGE_CURVE('',#291,#280,#358,.T.);
#232=EDGE_CURVE('',#247,#281,#359,.T.);
#233=EDGE_CURVE('',#264,#250,#360,.F.);
#234=EDGE_CURVE('',#290,#265,#361,.T.);
#235=EDGE_CURVE('',#276,#267,#362,.F.);
#236=EDGE_CURVE('',#289,#266,#363,.T.);
#237=EDGE_CURVE('',#247,#263,#364,.T.);
#238=EDGE_CURVE('',#281,#262,#365,.F.);
#239=EDGE_CURVE('',#243,#279,#366,.T.);
#240=EDGE_CURVE('',#292,#279,#367,.T.);
#241=EDGE_CURVE('',#292,#284,#368,.T.);
#242=EDGE_CURVE('',#292,#252,#369,.T.);
#243=VERTEX_POINT('',#740);
#244=VERTEX_POINT('',#741);
#245=VERTEX_POINT('',#743);
#246=VERTEX_POINT('',#745);
#247=VERTEX_POINT('',#749);
#248=VERTEX_POINT('',#750);
#249=VERTEX_POINT('',#752);
#250=VERTEX_POINT('',#754);
#251=VERTEX_POINT('',#758);
#252=VERTEX_POINT('',#760);
#253=VERTEX_POINT('',#762);
#254=VERTEX_POINT('',#764);
#255=VERTEX_POINT('',#768);
#256=VERTEX_POINT('',#769);
#257=VERTEX_POINT('',#771);
#258=VERTEX_POINT('',#773);
#259=VERTEX_POINT('',#775);
#260=VERTEX_POINT('',#777);
#261=VERTEX_POINT('',#779);
#262=VERTEX_POINT('',#781);
#263=VERTEX_POINT('',#783);
#264=VERTEX_POINT('',#785);
#265=VERTEX_POINT('',#787);
#266=VERTEX_POINT('',#789);
#267=VERTEX_POINT('',#791);
#268=VERTEX_POINT('',#793);
#269=VERTEX_POINT('',#795);
#270=VERTEX_POINT('',#797);
#271=VERTEX_POINT('',#801);
#272=VERTEX_POINT('',#802);
#273=VERTEX_POINT('',#807);
#274=VERTEX_POINT('',#809);
#275=VERTEX_POINT('',#813);
#276=VERTEX_POINT('',#814);
#277=VERTEX_POINT('',#816);
#278=VERTEX_POINT('',#818);
#279=VERTEX_POINT('',#822);
#280=VERTEX_POINT('',#824);
#281=VERTEX_POINT('',#826);
#282=VERTEX_POINT('',#828);
#283=VERTEX_POINT('',#830);
#284=VERTEX_POINT('',#836);
#285=VERTEX_POINT('',#840);
#286=VERTEX_POINT('',#842);
#287=VERTEX_POINT('',#844);
#288=VERTEX_POINT('',#846);
#289=VERTEX_POINT('',#849);
#290=VERTEX_POINT('',#851);
#291=VERTEX_POINT('',#854);
#292=VERTEX_POINT('',#886);
#293=LINE('',#739,#370);
#294=LINE('',#742,#371);
#295=LINE('',#744,#372);
#296=LINE('',#746,#373);
#297=LINE('',#748,#374);
#298=LINE('',#751,#375);
#299=LINE('',#753,#376);
#300=LINE('',#755,#377);
#301=LINE('',#757,#378);
#302=LINE('',#759,#379);
#303=LINE('',#761,#380);
#304=LINE('',#763,#381);
#305=LINE('',#765,#382);
#306=LINE('',#767,#383);
#307=LINE('',#770,#384);
#308=LINE('',#772,#385);
#309=LINE('',#774,#386);
#310=LINE('',#776,#387);
#311=LINE('',#778,#388);
#312=LINE('',#780,#389);
#313=LINE('',#782,#390);
#314=LINE('',#784,#391);
#315=LINE('',#786,#392);
#316=LINE('',#788,#393);
#317=LINE('',#790,#394);
#318=LINE('',#792,#395);
#319=LINE('',#794,#396);
#320=LINE('',#796,#397);
#321=LINE('',#798,#398);
#322=LINE('',#800,#399);
#323=LINE('',#803,#400);
#324=LINE('',#804,#401);
#325=LINE('',#806,#402);
#326=LINE('',#808,#403);
#327=LINE('',#810,#404);
#328=LINE('',#812,#405);
#329=LINE('',#815,#406);
#330=LINE('',#817,#407);
#331=LINE('',#819,#408);
#332=LINE('',#821,#409);
#333=LINE('',#823,#410);
#334=LINE('',#825,#411);
#335=LINE('',#827,#412);
#336=LINE('',#829,#413);
#337=LINE('',#831,#414);
#338=LINE('',#833,#415);
#339=LINE('',#834,#416);
#340=LINE('',#835,#417);
#341=LINE('',#837,#418);
#342=LINE('',#839,#419);
#343=LINE('',#841,#420);
#344=LINE('',#843,#421);
#345=LINE('',#845,#422);
#346=LINE('',#847,#423);
#347=LINE('',#848,#424);
#348=LINE('',#850,#425);
#349=LINE('',#852,#426);
#350=LINE('',#853,#427);
#351=LINE('',#855,#428);
#352=LINE('',#857,#429);
#353=LINE('',#858,#430);
#354=LINE('',#860,#431);
#355=LINE('',#861,#432);
#356=LINE('',#863,#433);
#357=LINE('',#865,#434);
#358=LINE('',#867,#435);
#359=LINE('',#868,#436);
#360=LINE('',#870,#437);
#361=LINE('',#871,#438);
#362=LINE('',#873,#439);
#363=LINE('',#874,#440);
#364=LINE('',#878,#441);
#365=LINE('',#880,#442);
#366=LINE('',#883,#443);
#367=LINE('',#885,#444);
#368=LINE('',#887,#445);
#369=LINE('',#889,#446);
#370=VECTOR('',#606,1.);
#371=VECTOR('',#607,1.);
#372=VECTOR('',#608,1.);
#373=VECTOR('',#609,1.);
#374=VECTOR('',#612,1.);
#375=VECTOR('',#613,1.);
#376=VECTOR('',#614,1.);
#377=VECTOR('',#615,1.);
#378=VECTOR('',#618,1.);
#379=VECTOR('',#619,1.);
#380=VECTOR('',#620,1.);
#381=VECTOR('',#621,1.);
#382=VECTOR('',#622,1.);
#383=VECTOR('',#625,1.);
#384=VECTOR('',#626,1.);
#385=VECTOR('',#627,1.);
#386=VECTOR('',#628,1.);
#387=VECTOR('',#629,1.);
#388=VECTOR('',#630,1.);
#389=VECTOR('',#631,1.);
#390=VECTOR('',#632,1.);
#391=VECTOR('',#633,1.);
#392=VECTOR('',#634,1.);
#393=VECTOR('',#635,1.);
#394=VECTOR('',#636,1.);
#395=VECTOR('',#637,1.);
#396=VECTOR('',#638,1.);
#397=VECTOR('',#639,1.);
#398=VECTOR('',#640,1.);
#399=VECTOR('',#643,1.);
#400=VECTOR('',#644,1.);
#401=VECTOR('',#645,1.);
#402=VECTOR('',#648,1.);
#403=VECTOR('',#649,1.);
#404=VECTOR('',#650,1.);
#405=VECTOR('',#653,1.);
#406=VECTOR('',#654,1.);
#407=VECTOR('',#655,1.);
#408=VECTOR('',#656,1.);
#409=VECTOR('',#659,1.);
#410=VECTOR('',#660,1.);
#411=VECTOR('',#661,1.);
#412=VECTOR('',#662,1.);
#413=VECTOR('',#663,1.);
#414=VECTOR('',#664,1.);
#415=VECTOR('',#667,1.);
#416=VECTOR('',#668,1.);
#417=VECTOR('',#669,1.);
#418=VECTOR('',#670,1.);
#419=VECTOR('',#673,1.);
#420=VECTOR('',#674,1.);
#421=VECTOR('',#675,1.);
#422=VECTOR('',#676,1.);
#423=VECTOR('',#677,1.);
#424=VECTOR('',#678,1.);
#425=VECTOR('',#679,1.);
#426=VECTOR('',#680,1.);
#427=VECTOR('',#681,1.);
#428=VECTOR('',#682,1.);
#429=VECTOR('',#685,1.);
#430=VECTOR('',#686,1.);
#431=VECTOR('',#689,1.);
#432=VECTOR('',#690,1.);
#433=VECTOR('',#693,1.);
#434=VECTOR('',#696,1.);
#435=VECTOR('',#699,1.);
#436=VECTOR('',#700,1.);
#437=VECTOR('',#703,1.);
#438=VECTOR('',#704,1.);
#439=VECTOR('',#707,1.);
#440=VECTOR('',#708,1.);
#441=VECTOR('',#715,1.);
#442=VECTOR('',#718,1.);
#443=VECTOR('',#723,1.);
#444=VECTOR('',#726,1.);
#445=VECTOR('',#727,1.);
#446=VECTOR('',#730,1.);
#447=EDGE_LOOP('',(#12,#13,#14,#15));
#448=EDGE_LOOP('',(#16,#17,#18,#19));
#449=EDGE_LOOP('',(#20,#21,#22,#23,#24,#25));
#450=EDGE_LOOP('',(#26,#27,#28,#29,#30,#31,#32,#33,#34,#35,#36,#37,#38,
#39,#40,#41));
#451=EDGE_LOOP('',(#42,#43,#44,#45));
#452=EDGE_LOOP('',(#46,#47,#48,#49));
#453=EDGE_LOOP('',(#50,#51,#52,#53));
#454=EDGE_LOOP('',(#54,#55,#56,#57,#58,#59,#60));
#455=EDGE_LOOP('',(#61,#62,#63,#64));
#456=EDGE_LOOP('',(#65,#66,#67,#68));
#457=EDGE_LOOP('',(#69,#70,#71,#72,#73,#74,#75,#76,#77,#78,#79,#80,#81,
#82,#83));
#458=EDGE_LOOP('',(#84,#85,#86,#87));
#459=EDGE_LOOP('',(#88,#89,#90,#91));
#460=EDGE_LOOP('',(#92,#93,#94,#95,#96));
#461=EDGE_LOOP('',(#97,#98,#99,#100,#101));
#462=EDGE_LOOP('',(#102,#103,#104,#105,#106));
#463=EDGE_LOOP('',(#107,#108,#109,#110,#111));
#464=EDGE_LOOP('',(#112,#113,#114,#115,#116));
#465=EDGE_LOOP('',(#117,#118,#119,#120));
#466=EDGE_LOOP('',(#121,#122,#123,#124));
#467=EDGE_LOOP('',(#125,#126,#127,#128));
#468=EDGE_LOOP('',(#129,#130,#131,#132));
#469=EDGE_LOOP('',(#133,#134,#135,#136));
#470=EDGE_LOOP('',(#137,#138,#139,#140));
#471=EDGE_LOOP('',(#141,#142,#143,#144,#145));
#472=EDGE_LOOP('',(#146,#147,#148,#149));
#473=EDGE_LOOP('',(#150,#151,#152,#153));
#474=EDGE_LOOP('',(#154,#155,#156,#157));
#475=EDGE_LOOP('',(#158,#159,#160,#161,#162,#163,#164,#165));
#476=FACE_BOUND('',#447,.T.);
#477=FACE_BOUND('',#448,.T.);
#478=FACE_BOUND('',#449,.T.);
#479=FACE_BOUND('',#450,.T.);
#480=FACE_BOUND('',#451,.T.);
#481=FACE_BOUND('',#452,.T.);
#482=FACE_BOUND('',#453,.T.);
#483=FACE_BOUND('',#454,.T.);
#484=FACE_BOUND('',#455,.T.);
#485=FACE_BOUND('',#456,.T.);
#486=FACE_BOUND('',#457,.T.);
#487=FACE_BOUND('',#458,.T.);
#488=FACE_BOUND('',#459,.T.);
#489=FACE_BOUND('',#460,.T.);
#490=FACE_BOUND('',#461,.T.);
#491=FACE_BOUND('',#462,.T.);
#492=FACE_BOUND('',#463,.T.);
#493=FACE_BOUND('',#464,.T.);
#494=FACE_BOUND('',#465,.T.);
#495=FACE_BOUND('',#466,.T.);
#496=FACE_BOUND('',#467,.T.);
#497=FACE_BOUND('',#468,.T.);
#498=FACE_BOUND('',#469,.T.);
#499=FACE_BOUND('',#470,.T.);
#500=FACE_BOUND('',#471,.T.);
#501=FACE_BOUND('',#472,.T.);
#502=FACE_BOUND('',#473,.T.);
#503=FACE_BOUND('',#474,.T.);
#504=FACE_BOUND('',#475,.T.);
#505=PLANE('',#574);
#506=PLANE('',#575);
#507=PLANE('',#576);
#508=PLANE('',#577);
#509=PLANE('',#578);
#510=PLANE('',#579);
#511=PLANE('',#580);
#512=PLANE('',#581);
#513=PLANE('',#582);
#514=PLANE('',#583);
#515=PLANE('',#584);
#516=PLANE('',#585);
#517=PLANE('',#586);
#518=PLANE('',#587);
#519=PLANE('',#588);
#520=PLANE('',#589);
#521=PLANE('',#590);
#522=PLANE('',#591);
#523=PLANE('',#592);
#524=PLANE('',#593);
#525=PLANE('',#594);
#526=PLANE('',#595);
#527=PLANE('',#596);
#528=PLANE('',#597);
#529=PLANE('',#598);
#530=PLANE('',#599);
#531=PLANE('',#600);
#532=PLANE('',#601);
#533=ADVANCED_FACE('',(#476),#505,.T.);
#534=ADVANCED_FACE('',(#477),#506,.F.);
#535=ADVANCED_FACE('',(#478),#507,.F.);
#536=ADVANCED_FACE('',(#479),#508,.F.);
#537=ADVANCED_FACE('',(#480),#509,.F.);
#538=ADVANCED_FACE('',(#481),#510,.T.);
#539=ADVANCED_FACE('',(#482),#511,.F.);
#540=ADVANCED_FACE('',(#483),#512,.T.);
#541=ADVANCED_FACE('',(#484,#485),#513,.T.);
#542=ADVANCED_FACE('',(#486),#514,.F.);
#543=ADVANCED_FACE('',(#487),#515,.T.);
#544=ADVANCED_FACE('',(#488),#516,.F.);
#545=ADVANCED_FACE('',(#489),#517,.F.);
#546=ADVANCED_FACE('',(#490),#518,.F.);
#547=ADVANCED_FACE('',(#491),#519,.T.);
#548=ADVANCED_FACE('',(#492),#520,.T.);
#549=ADVANCED_FACE('',(#493),#521,.F.);
#550=ADVANCED_FACE('',(#494),#522,.T.);
#551=ADVANCED_FACE('',(#495),#523,.F.);
#552=ADVANCED_FACE('',(#496),#524,.F.);
#553=ADVANCED_FACE('',(#497),#525,.T.);
#554=ADVANCED_FACE('',(#498),#526,.T.);
#555=ADVANCED_FACE('',(#499),#527,.F.);
#556=ADVANCED_FACE('',(#500),#528,.T.);
#557=ADVANCED_FACE('',(#501),#529,.F.);
#558=ADVANCED_FACE('',(#502),#530,.T.);
#559=ADVANCED_FACE('',(#503),#531,.T.);
#560=ADVANCED_FACE('',(#504),#532,.F.);
#561=CLOSED_SHELL('',(#533,#534,#535,#536,#537,#538,#539,#540,#541,#542,
#543,#544,#545,#546,#547,#548,#549,#550,#551,#552,#553,#554,#555,#556,#557,
#558,#559,#560));
#562=STYLED_ITEM('',(#563),#570);
#563=PRESENTATION_STYLE_ASSIGNMENT((#564));
#564=SURFACE_STYLE_USAGE(.BOTH.,#565);
#565=SURFACE_SIDE_STYLE('',(#566));
#566=SURFACE_STYLE_FILL_AREA(#567);
#567=FILL_AREA_STYLE('',(#568));
#568=FILL_AREA_STYLE_COLOUR('',#569);
#569=COLOUR_RGB('',0.615686274509804,0.811764705882353,0.929411764705882);
#570=MANIFOLD_SOLID_BREP('Part 1',#561);
#571=SHAPE_DEFINITION_REPRESENTATION(#899,#572);
#572=SHAPE_REPRESENTATION('Part 1',(#573),#894);
#573=AXIS2_PLACEMENT_3D('',#737,#602,#603);
#574=AXIS2_PLACEMENT_3D('',#738,#604,#605);
#575=AXIS2_PLACEMENT_3D('',#747,#610,#611);
#576=AXIS2_PLACEMENT_3D('',#756,#616,#617);
#577=AXIS2_PLACEMENT_3D('',#766,#623,#624);
#578=AXIS2_PLACEMENT_3D('',#799,#641,#642);
#579=AXIS2_PLACEMENT_3D('',#805,#646,#647);
#580=AXIS2_PLACEMENT_3D('',#811,#651,#652);
#581=AXIS2_PLACEMENT_3D('',#820,#657,#658);
#582=AXIS2_PLACEMENT_3D('',#832,#665,#666);
#583=AXIS2_PLACEMENT_3D('',#838,#671,#672);
#584=AXIS2_PLACEMENT_3D('',#856,#683,#684);
#585=AXIS2_PLACEMENT_3D('',#859,#687,#688);
#586=AXIS2_PLACEMENT_3D('',#862,#691,#692);
#587=AXIS2_PLACEMENT_3D('',#864,#694,#695);
#588=AXIS2_PLACEMENT_3D('',#866,#697,#698);
#589=AXIS2_PLACEMENT_3D('',#869,#701,#702);
#590=AXIS2_PLACEMENT_3D('',#872,#705,#706);
#591=AXIS2_PLACEMENT_3D('',#875,#709,#710);
#592=AXIS2_PLACEMENT_3D('',#876,#711,#712);
#593=AXIS2_PLACEMENT_3D('',#877,#713,#714);
#594=AXIS2_PLACEMENT_3D('',#879,#716,#717);
#595=AXIS2_PLACEMENT_3D('',#881,#719,#720);
#596=AXIS2_PLACEMENT_3D('',#882,#721,#722);
#597=AXIS2_PLACEMENT_3D('',#884,#724,#725);
#598=AXIS2_PLACEMENT_3D('',#888,#728,#729);
#599=AXIS2_PLACEMENT_3D('',#890,#731,#732);
#600=AXIS2_PLACEMENT_3D('',#891,#733,#734);
#601=AXIS2_PLACEMENT_3D('',#892,#735,#736);
#602=DIRECTION('',(0.,0.,1.));
#603=DIRECTION('',(1.,0.,0.));
#604=DIRECTION('',(-4.08771364000426E-16,1.,0.));
#605=DIRECTION('',(-1.,-4.08771364000426E-16,0.));
#606=DIRECTION('',(1.,4.08771364000426E-16,0.));
#607=DIRECTION('',(0.,0.,1.));
#608=DIRECTION('',(1.,4.08771364000426E-16,0.));
#609=DIRECTION('',(0.,0.,-1.));
#610=DIRECTION('',(4.08771364000426E-16,-1.,0.));
#611=DIRECTION('',(1.,4.08771364000426E-16,0.));
#612=DIRECTION('',(0.,0.,1.));
#613=DIRECTION('',(1.,4.08771364000426E-16,0.));
#614=DIRECTION('',(0.,0.,-1.));
#615=DIRECTION('',(-1.,-4.08771364000426E-16,0.));
#616=DIRECTION('',(1.,3.04004114081368E-16,0.));
#617=DIRECTION('',(-3.04004114081368E-16,1.,0.));
#618=DIRECTION('',(3.04004114081368E-16,-1.,0.));
#619=DIRECTION('',(0.,0.,-1.));
#620=DIRECTION('',(-4.08771364000426E-16,1.,0.));
#621=DIRECTION('',(0.,0.,-1.));
#622=DIRECTION('',(3.04004114081368E-16,-1.,0.));
#623=DIRECTION('',(0.,0.,1.));
#624=DIRECTION('',(1.,0.,0.));
#625=DIRECTION('',(1.,0.,0.));
#626=DIRECTION('',(0.,1.,0.));
#627=DIRECTION('',(1.,0.,0.));
#628=DIRECTION('',(-1.15648231731787E-16,1.,0.));
#629=DIRECTION('',(1.,0.,0.));
#630=DIRECTION('',(-3.04004114081368E-16,1.,0.));
#631=DIRECTION('',(-1.,-4.08771364000426E-16,0.));
#632=DIRECTION('',(3.61004885471624E-16,-1.,0.));
#633=DIRECTION('',(1.,4.08771364000426E-16,0.));
#634=DIRECTION('',(0.,-1.,0.));
#635=DIRECTION('',(1.,1.10632874743419E-16,0.));
#636=DIRECTION('',(0.,-1.,0.));
#637=DIRECTION('',(1.,4.08771364000426E-16,0.));
#638=DIRECTION('',(-3.04004114081368E-16,1.,0.));
#639=DIRECTION('',(1.,0.,0.));
#640=DIRECTION('',(-1.15648231731787E-16,1.,0.));
#641=DIRECTION('',(0.,1.,0.));
#642=DIRECTION('',(0.,0.,1.));
#643=DIRECTION('',(1.,0.,0.));
#644=DIRECTION('',(0.,0.,-1.));
#645=DIRECTION('',(0.,0.,-1.));
#646=DIRECTION('',(0.,1.,0.));
#647=DIRECTION('',(0.,0.,1.));
#648=DIRECTION('',(0.,0.,-1.));
#649=DIRECTION('',(1.,0.,0.));
#650=DIRECTION('',(0.,0.,-1.));
#651=DIRECTION('',(4.08771364000426E-16,-1.,0.));
#652=DIRECTION('',(1.,4.08771364000426E-16,0.));
#653=DIRECTION('',(0.,0.,-1.));
#654=DIRECTION('',(1.,4.08771364000426E-16,0.));
#655=DIRECTION('',(0.,0.,1.));
#656=DIRECTION('',(-1.,-4.08771364000426E-16,0.));
#657=DIRECTION('',(4.08771364000426E-16,-1.,0.));
#658=DIRECTION('',(1.,4.08771364000426E-16,0.));
#659=DIRECTION('',(1.,4.08771364000426E-16,0.));
#660=DIRECTION('',(-1.,-3.61004885471625E-16,0.));
#661=DIRECTION('',(0.,0.,1.));
#662=DIRECTION('',(1.,4.08771364000426E-16,0.));
#663=DIRECTION('',(0.,0.,1.));
#664=DIRECTION('',(1.,4.08771364000426E-16,0.));
#665=DIRECTION('',(0.,0.,1.));
#666=DIRECTION('',(1.,0.,0.));
#667=DIRECTION('',(0.,1.,0.));
#668=DIRECTION('',(-1.15648231731787E-16,1.,0.));
#669=DIRECTION('',(1.,4.08771364000426E-16,0.));
#670=DIRECTION('',(-3.61004885471624E-16,1.,0.));
#671=DIRECTION('',(0.,0.,1.));
#672=DIRECTION('',(1.,0.,0.));
#673=DIRECTION('',(-3.04004114081368E-16,1.,0.));
#674=DIRECTION('',(1.,0.,0.));
#675=DIRECTION('',(-1.15648231731787E-16,1.,0.));
#676=DIRECTION('',(1.,0.,0.));
#677=DIRECTION('',(-3.04004114081368E-16,1.,0.));
#678=DIRECTION('',(0.,-1.,0.));
#679=DIRECTION('',(1.,1.10632874743419E-16,0.));
#680=DIRECTION('',(0.,-1.,0.));
#681=DIRECTION('',(4.08771364000426E-16,-1.,0.));
#682=DIRECTION('',(1.,4.08771364000426E-16,0.));
#683=DIRECTION('',(0.,1.,0.));
#684=DIRECTION('',(0.,0.,1.));
#685=DIRECTION('',(0.,0.,-1.));
#686=DIRECTION('',(0.,0.,-1.));
#687=DIRECTION('',(0.,1.,0.));
#688=DIRECTION('',(0.,0.,1.));
#689=DIRECTION('',(0.,0.,-1.));
#690=DIRECTION('',(0.,0.,-1.));
#691=DIRECTION('',(1.,3.04004114081368E-16,0.));
#692=DIRECTION('',(-3.04004114081368E-16,1.,0.));
#693=DIRECTION('',(-2.14963370575545E-16,0.707106781186548,-0.707106781186548));
#694=DIRECTION('',(1.,3.04004114081368E-16,0.));
#695=DIRECTION('',(-3.04004114081368E-16,1.,0.));
#696=DIRECTION('',(2.14963370575545E-16,-0.707106781186548,-0.707106781186548));
#697=DIRECTION('',(1.,3.61004885471624E-16,0.));
#698=DIRECTION('',(-3.61004885471624E-16,1.,0.));
#699=DIRECTION('',(-3.61004830130563E-16,0.999999846702733,0.000553709771153169));
#700=DIRECTION('',(-3.61004885471624E-16,1.,0.));
#701=DIRECTION('',(1.,0.,0.));
#702=DIRECTION('',(0.,0.,-1.));
#703=DIRECTION('',(0.,-0.70710678118655,-0.707106781186545));
#704=DIRECTION('',(0.,0.,-1.));
#705=DIRECTION('',(1.,0.,0.));
#706=DIRECTION('',(0.,0.,-1.));
#707=DIRECTION('',(0.,0.707106781186548,0.707106781186548));
#708=DIRECTION('',(0.,0.,-1.));
#709=DIRECTION('',(-1.10632874743419E-16,1.,0.));
#710=DIRECTION('',(-1.,-1.10632874743419E-16,0.));
#711=DIRECTION('',(2.89045003439575E-16,-0.707106781186548,0.707106781186548));
#712=DIRECTION('',(1.,4.08771364000426E-16,0.));
#713=DIRECTION('',(2.89045003439575E-16,-0.707106781186545,0.70710678118655));
#714=DIRECTION('',(1.,4.08771364000426E-16,0.));
#715=DIRECTION('',(-0.577350269189626,-0.577350269189628,-0.577350269189624));
#716=DIRECTION('',(0.707106781186546,2.55269002558459E-16,-0.707106781186549));
#717=DIRECTION('',(3.61004885471624E-16,-1.,0.));
#718=DIRECTION('',(0.577350269189627,-0.577350269189625,0.577350269189625));
#719=DIRECTION('',(2.89045003439575E-16,-0.707106781186548,-0.707106781186548));
#720=DIRECTION('',(-1.,-4.08771364000426E-16,0.));
#721=DIRECTION('',(1.9989193251967E-19,-0.000553709771153169,0.999999846702733));
#722=DIRECTION('',(0.,-0.999999846702733,-0.000553709771153169));
#723=DIRECTION('',(-3.61004830130563E-16,0.999999846702733,0.000553709771153169));
#724=DIRECTION('',(1.,3.61004885471624E-16,0.));
#725=DIRECTION('',(-3.61004885471624E-16,1.,0.));
#726=DIRECTION('',(-4.08771364000426E-16,1.,0.));
#727=DIRECTION('',(0.,0.,1.));
#728=DIRECTION('',(0.,0.,1.));
#729=DIRECTION('',(1.,0.,0.));
#730=DIRECTION('',(1.,4.08771364000426E-16,0.));
#731=DIRECTION('',(4.08771364000426E-16,-1.,0.));
#732=DIRECTION('',(1.,4.08771364000426E-16,0.));
#733=DIRECTION('',(-1.,0.,0.));
#734=DIRECTION('',(0.,0.,1.));
#735=DIRECTION('',(-1.,-1.15648231731787E-16,0.));
#736=DIRECTION('',(1.15648231731787E-16,-1.,0.));
#737=CARTESIAN_POINT('',(0.,0.,0.));
#738=CARTESIAN_POINT('',(0.05035,0.01535,0.00195));
#739=CARTESIAN_POINT('',(0.045,0.01535,0.0019));
#740=CARTESIAN_POINT('',(0.01275,0.01535,0.0019));
#741=CARTESIAN_POINT('',(0.07895,0.01535,0.0019));
#742=CARTESIAN_POINT('',(0.01275,0.01535,-0.148122032850702));
#743=CARTESIAN_POINT('',(0.01275,0.01535,0.0029));
#744=CARTESIAN_POINT('',(0.045,0.01535,0.0029));
#745=CARTESIAN_POINT('',(0.07895,0.01535,0.0029));
#746=CARTESIAN_POINT('',(0.07895,0.01535,0.0029));
#747=CARTESIAN_POINT('',(0.045,0.01435,-0.148122032850702));
#748=CARTESIAN_POINT('',(0.01175,0.01435,-0.148122032850702));
#749=CARTESIAN_POINT('',(0.01175,0.01435,0.001));
#750=CARTESIAN_POINT('',(0.01175,0.01435,0.0019));
#751=CARTESIAN_POINT('',(0.045,0.01435,0.0019));
#752=CARTESIAN_POINT('',(0.02675,0.01435,0.0019));
#753=CARTESIAN_POINT('',(0.02675,0.01435,0.001902));
#754=CARTESIAN_POINT('',(0.02675,0.01435,0.001));
#755=CARTESIAN_POINT('',(0.045,0.01435,0.001));
#756=CARTESIAN_POINT('',(0.07895,0.06,0.0029));
#757=CARTESIAN_POINT('',(0.07895,0.06,0.0029));
#758=CARTESIAN_POINT('',(0.07895,0.10465,0.0029));
#759=CARTESIAN_POINT('',(0.07895,0.10465,0.0029));
#760=CARTESIAN_POINT('',(0.07895,0.10465,0.00195));
#761=CARTESIAN_POINT('',(0.07895,0.10465,0.00195));
#762=CARTESIAN_POINT('',(0.07895,0.10565,0.00195));
#763=CARTESIAN_POINT('',(0.07895,0.10565,0.0029));
#764=CARTESIAN_POINT('',(0.07895,0.10565,0.0019));
#765=CARTESIAN_POINT('',(0.07895,0.06,0.0019));
#766=CARTESIAN_POINT('',(0.045,0.06,0.));
#767=CARTESIAN_POINT('',(0.045,0.,0.));
#768=CARTESIAN_POINT('',(0.00085,0.,0.));
#769=CARTESIAN_POINT('',(0.09085,9.83009969720191E-20,0.));
#770=CARTESIAN_POINT('',(0.00085,0.06,0.));
#771=CARTESIAN_POINT('',(0.000849999999999977,0.12,0.));
#772=CARTESIAN_POINT('',(0.045,0.12,0.));
#773=CARTESIAN_POINT('',(0.09085,0.12,0.));
#774=CARTESIAN_POINT('',(0.09085,0.06,0.));
#775=CARTESIAN_POINT('',(0.09085,0.07565,0.));
#776=CARTESIAN_POINT('',(0.089125,0.07565,0.));
#777=CARTESIAN_POINT('',(0.08895,0.07565,0.));
#778=CARTESIAN_POINT('',(0.08895,0.06,0.));
#779=CARTESIAN_POINT('',(0.08895,0.10665,0.));
#780=CARTESIAN_POINT('',(0.01175,0.10665,0.));
#781=CARTESIAN_POINT('',(0.01075,0.10665,0.));
#782=CARTESIAN_POINT('',(0.01075,0.01435,0.));
#783=CARTESIAN_POINT('',(0.01075,0.01335,0.));
#784=CARTESIAN_POINT('',(0.045,0.01335,0.));
#785=CARTESIAN_POINT('',(0.02675,0.01335,0.));
#786=CARTESIAN_POINT('',(0.02675,0.01035,0.));
#787=CARTESIAN_POINT('',(0.02675,0.00635,0.));
#788=CARTESIAN_POINT('',(0.04635,0.00635,0.));
#789=CARTESIAN_POINT('',(0.06595,0.00635,0.));
#790=CARTESIAN_POINT('',(0.06595,0.01035,0.));
#791=CARTESIAN_POINT('',(0.06595,0.01335,0.));
#792=CARTESIAN_POINT('',(0.045,0.01335,0.));
#793=CARTESIAN_POINT('',(0.08895,0.01335,0.));
#794=CARTESIAN_POINT('',(0.08895,0.06,0.));
#795=CARTESIAN_POINT('',(0.08895,0.04435,0.));
#796=CARTESIAN_POINT('',(0.089125,0.04435,0.));
#797=CARTESIAN_POINT('',(0.09085,0.04435,0.));
#798=CARTESIAN_POINT('',(0.09085,0.06,0.));
#799=CARTESIAN_POINT('',(0.045,0.,0.0019));
#800=CARTESIAN_POINT('',(0.045,0.,0.0029));
#801=CARTESIAN_POINT('',(0.00084999999999999,0.,0.0029));
#802=CARTESIAN_POINT('',(0.09085,9.83009969720191E-20,0.0029));
#803=CARTESIAN_POINT('',(0.00085,0.,0.0019));
#804=CARTESIAN_POINT('',(0.09085,9.83009969720191E-20,0.0019));
#805=CARTESIAN_POINT('',(0.045,0.12,0.0019));
#806=CARTESIAN_POINT('',(0.000849999999999977,0.12,0.0019));
#807=CARTESIAN_POINT('',(0.000849999999999977,0.12,0.0029));
#808=CARTESIAN_POINT('',(0.045,0.12,0.0029));
#809=CARTESIAN_POINT('',(0.09085,0.12,0.0029));
#810=CARTESIAN_POINT('',(0.09085,0.12,0.0019));
#811=CARTESIAN_POINT('',(0.045,0.01435,-0.148122032850702));
#812=CARTESIAN_POINT('',(0.06595,0.01435,0.001902));
#813=CARTESIAN_POINT('',(0.06595,0.01435,0.0019));
#814=CARTESIAN_POINT('',(0.06595,0.01435,0.001));
#815=CARTESIAN_POINT('',(0.045,0.01435,0.0019));
#816=CARTESIAN_POINT('',(0.08895,0.01435,0.0019));
#817=CARTESIAN_POINT('',(0.08895,0.01435,-0.148122032850702));
#818=CARTESIAN_POINT('',(0.08895,0.01435,0.001));
#819=CARTESIAN_POINT('',(0.045,0.01435,0.001));
#820=CARTESIAN_POINT('',(0.045,0.10565,-0.148122032850702));
#821=CARTESIAN_POINT('',(0.04585,0.10565,0.00195));
#822=CARTESIAN_POINT('',(0.01275,0.10565,0.00195));
#823=CARTESIAN_POINT('',(0.01275,0.10565,0.00195));
#824=CARTESIAN_POINT('',(0.01175,0.10565,0.00195));
#825=CARTESIAN_POINT('',(0.01175,0.10565,-0.148122032850702));
#826=CARTESIAN_POINT('',(0.01175,0.10565,0.001));
#827=CARTESIAN_POINT('',(0.08895,0.10565,0.001));
#828=CARTESIAN_POINT('',(0.08895,0.10565,0.001));
#829=CARTESIAN_POINT('',(0.08895,0.10565,-0.148122032850702));
#830=CARTESIAN_POINT('',(0.08895,0.10565,0.0019));
#831=CARTESIAN_POINT('',(0.045,0.10565,0.0019));
#832=CARTESIAN_POINT('',(0.045,0.06,0.0029));
#833=CARTESIAN_POINT('',(0.00085,0.06,0.0029));
#834=CARTESIAN_POINT('',(0.09085,0.06,0.0029));
#835=CARTESIAN_POINT('',(0.045,0.10465,0.0029));
#836=CARTESIAN_POINT('',(0.01275,0.10465,0.0029));
#837=CARTESIAN_POINT('',(0.01275,0.06,0.0029));
#838=CARTESIAN_POINT('',(0.045,0.06,0.0019));
#839=CARTESIAN_POINT('',(0.08895,0.06,0.0019));
#840=CARTESIAN_POINT('',(0.08895,0.07565,0.0019));
#841=CARTESIAN_POINT('',(0.089125,0.07565,0.0019));
#842=CARTESIAN_POINT('',(0.09085,0.07565,0.0019));
#843=CARTESIAN_POINT('',(0.09085,0.06,0.0019));
#844=CARTESIAN_POINT('',(0.09085,0.04435,0.0019));
#845=CARTESIAN_POINT('',(0.089125,0.04435,0.0019));
#846=CARTESIAN_POINT('',(0.08895,0.04435,0.0019));
#847=CARTESIAN_POINT('',(0.08895,0.06,0.0019));
#848=CARTESIAN_POINT('',(0.06595,0.01035,0.0019));
#849=CARTESIAN_POINT('',(0.06595,0.00635,0.0019));
#850=CARTESIAN_POINT('',(0.04635,0.00635,0.0019));
#851=CARTESIAN_POINT('',(0.02675,0.00635,0.0019));
#852=CARTESIAN_POINT('',(0.02675,0.01035,0.0019));
#853=CARTESIAN_POINT('',(0.01175,0.01535,0.0019));
#854=CARTESIAN_POINT('',(0.01175,0.01535,0.0019));
#855=CARTESIAN_POINT('',(0.045,0.01535,0.0019));
#856=CARTESIAN_POINT('',(0.089125,0.04435,0.001902));
#857=CARTESIAN_POINT('',(0.08895,0.04435,0.001902));
#858=CARTESIAN_POINT('',(0.09085,0.04435,0.001902));
#859=CARTESIAN_POINT('',(0.089125,0.07565,0.001902));
#860=CARTESIAN_POINT('',(0.08895,0.07565,0.001902));
#861=CARTESIAN_POINT('',(0.09085,0.07565,0.001902));
#862=CARTESIAN_POINT('',(0.08895,0.06,-0.148122032850702));
#863=CARTESIAN_POINT('',(0.08895,0.157386016425351,-0.0507360164253509));
#864=CARTESIAN_POINT('',(0.08895,0.06,-0.148122032850702));
#865=CARTESIAN_POINT('',(0.08895,-0.0373860164253509,-0.0507360164253509));
#866=CARTESIAN_POINT('',(0.01175,0.06,-0.148122032850702));
#867=CARTESIAN_POINT('',(0.01175,0.0605,0.001925));
#868=CARTESIAN_POINT('',(0.01175,0.10565,0.001));
#869=CARTESIAN_POINT('',(0.02675,0.01035,0.001902));
#870=CARTESIAN_POINT('',(0.02675,0.012801,-0.000549));
#871=CARTESIAN_POINT('',(0.02675,0.00635,0.001902));
#872=CARTESIAN_POINT('',(0.06595,0.01035,0.001902));
#873=CARTESIAN_POINT('',(0.06595,0.01335,-4.28188003790446E-18));
#874=CARTESIAN_POINT('',(0.06595,0.00635,0.001902));
#875=CARTESIAN_POINT('',(0.04635,0.00635,0.001902));
#876=CARTESIAN_POINT('',(0.045,0.01335,0.));
#877=CARTESIAN_POINT('',(0.045,0.01335,0.));
#878=CARTESIAN_POINT('',(0.0269666666666667,0.0295666666666667,0.0162166666666667));
#879=CARTESIAN_POINT('',(0.01175,0.06,0.001));
#880=CARTESIAN_POINT('',(0.0228333333333334,0.0945666666666666,0.0120833333333333));
#881=CARTESIAN_POINT('',(0.045,0.10565,0.001));
#882=CARTESIAN_POINT('',(0.01275,0.0605,0.001925));
#883=CARTESIAN_POINT('',(0.01275,0.0605,0.001925));
#884=CARTESIAN_POINT('',(0.01275,0.06,0.00195));
#885=CARTESIAN_POINT('',(0.01275,0.10465,0.00195));
#886=CARTESIAN_POINT('',(0.01275,0.10465,0.00195));
#887=CARTESIAN_POINT('',(0.01275,0.10465,-0.148122032850702));
#888=CARTESIAN_POINT('',(0.04585,0.10465,0.00195));
#889=CARTESIAN_POINT('',(0.04585,0.10465,0.00195));
#890=CARTESIAN_POINT('',(0.05035,0.10465,0.00195));
#891=CARTESIAN_POINT('',(0.00085,0.06,0.0019));
#892=CARTESIAN_POINT('',(0.09085,0.06,0.0019));
#893=MECHANICAL_DESIGN_GEOMETRIC_PRESENTATION_REPRESENTATION('',(#562),
#894);
#894=(
GEOMETRIC_REPRESENTATION_CONTEXT(3)
GLOBAL_UNCERTAINTY_ASSIGNED_CONTEXT((#895))
GLOBAL_UNIT_ASSIGNED_CONTEXT((#898,#897,#896))
REPRESENTATION_CONTEXT('Part 1','TOP_LEVEL_ASSEMBLY_PART')
);
#895=UNCERTAINTY_MEASURE_WITH_UNIT(LENGTH_MEASURE(1.E-8),#898,
'DISTANCE_ACCURACY_VALUE','Maximum Tolerance applied to model');
#896=(
NAMED_UNIT(*)
SI_UNIT($,.STERADIAN.)
SOLID_ANGLE_UNIT()
);
#897=(
NAMED_UNIT(*)
PLANE_ANGLE_UNIT()
SI_UNIT($,.RADIAN.)
);
#898=(
LENGTH_UNIT()
NAMED_UNIT(*)
SI_UNIT($,.METRE.)
);
#899=PRODUCT_DEFINITION_SHAPE('','',#900);
#900=PRODUCT_DEFINITION('','',#902,#901);
#901=PRODUCT_DEFINITION_CONTEXT('',#908,'design');
#902=PRODUCT_DEFINITION_FORMATION_WITH_SPECIFIED_SOURCE('','',#904,
 .NOT_KNOWN.);
#903=PRODUCT_RELATED_PRODUCT_CATEGORY('','',(#904));
#904=PRODUCT('Part 1','Part 1','Part 1',(#906));
#905=PRODUCT_CATEGORY('','');
#906=PRODUCT_CONTEXT('',#908,'mechanical');
#907=APPLICATION_PROTOCOL_DEFINITION('international standard',
'ap242_managed_model_based_3d_engineering',2020,#908);
#908=APPLICATION_CONTEXT('managed model based 3d engineering');
ENDSEC;
END-ISO-10303-21;
